G04 #@! TF.GenerationSoftware,KiCad,Pcbnew,5.1.9*
G04 #@! TF.CreationDate,2021-04-01T11:10:47+02:00*
G04 #@! TF.ProjectId,Y11025HL,59313130-3235-4484-9c2e-6b696361645f,rev?*
G04 #@! TF.SameCoordinates,Original*
G04 #@! TF.FileFunction,Copper,L1,Top*
G04 #@! TF.FilePolarity,Positive*
%FSLAX45Y45*%
G04 Gerber Fmt 4.5, Leading zero omitted, Abs format (unit mm)*
G04 Created by KiCad (PCBNEW 5.1.9) date 2021-04-01 11:10:47*
%MOMM*%
%LPD*%
G01*
G04 APERTURE LIST*
G04 #@! TA.AperFunction,SMDPad,CuDef*
%ADD10R,0.998220X2.499360*%
G04 #@! TD*
G04 #@! TA.AperFunction,SMDPad,CuDef*
%ADD11R,1.998980X2.499360*%
G04 #@! TD*
G04 #@! TA.AperFunction,ComponentPad*
%ADD12C,1.200000*%
G04 #@! TD*
G04 #@! TA.AperFunction,ComponentPad*
%ADD13R,1.000000X1.000000*%
G04 #@! TD*
G04 #@! TA.AperFunction,ComponentPad*
%ADD14O,1.000000X1.000000*%
G04 #@! TD*
G04 #@! TA.AperFunction,SMDPad,CuDef*
%ADD15R,1.060000X0.650000*%
G04 #@! TD*
G04 #@! TA.AperFunction,ViaPad*
%ADD16C,0.400000*%
G04 #@! TD*
G04 #@! TA.AperFunction,Conductor*
%ADD17C,0.180000*%
G04 #@! TD*
G04 #@! TA.AperFunction,Conductor*
%ADD18C,0.150000*%
G04 #@! TD*
G04 #@! TA.AperFunction,Conductor*
%ADD19C,0.100000*%
G04 #@! TD*
G04 APERTURE END LIST*
D10*
X10299974Y-10740000D03*
X10099822Y-10740000D03*
X9900178Y-10740000D03*
X9700026Y-10740000D03*
D11*
X10579882Y-11052166D03*
X9420118Y-11052166D03*
G04 #@! TA.AperFunction,SMDPad,CuDef*
G36*
G01*
X10284043Y-9352178D02*
X10018878Y-9617343D01*
G75*
G02*
X9983522Y-9617343I-17678J17678D01*
G01*
X9718357Y-9352178D01*
G75*
G02*
X9718357Y-9316822I17678J17678D01*
G01*
X9983522Y-9051657D01*
G75*
G02*
X10018878Y-9051657I17678J-17678D01*
G01*
X10284043Y-9316822D01*
G75*
G02*
X10284043Y-9352178I-17678J-17678D01*
G01*
G37*
G04 #@! TD.AperFunction*
G04 #@! TA.AperFunction,SMDPad,CuDef*
G36*
G01*
X10105498Y-9703963D02*
X10094892Y-9714570D01*
G75*
G02*
X10084285Y-9714570I-5303J5303D01*
G01*
X10022413Y-9652698D01*
G75*
G02*
X10022413Y-9642092I5303J5303D01*
G01*
X10033020Y-9631485D01*
G75*
G02*
X10043626Y-9631485I5303J-5303D01*
G01*
X10105498Y-9693357D01*
G75*
G02*
X10105498Y-9703963I-5303J-5303D01*
G01*
G37*
G04 #@! TD.AperFunction*
G04 #@! TA.AperFunction,SMDPad,CuDef*
G36*
G01*
X10151460Y-9658001D02*
X10140854Y-9668608D01*
G75*
G02*
X10130247Y-9668608I-5303J5303D01*
G01*
X10068375Y-9606736D01*
G75*
G02*
X10068375Y-9596130I5303J5303D01*
G01*
X10078982Y-9585523D01*
G75*
G02*
X10089588Y-9585523I5303J-5303D01*
G01*
X10151460Y-9647395D01*
G75*
G02*
X10151460Y-9658001I-5303J-5303D01*
G01*
G37*
G04 #@! TD.AperFunction*
G04 #@! TA.AperFunction,SMDPad,CuDef*
G36*
G01*
X10197422Y-9612039D02*
X10186816Y-9622646D01*
G75*
G02*
X10176209Y-9622646I-5303J5303D01*
G01*
X10114337Y-9560774D01*
G75*
G02*
X10114337Y-9550168I5303J5303D01*
G01*
X10124944Y-9539561D01*
G75*
G02*
X10135550Y-9539561I5303J-5303D01*
G01*
X10197422Y-9601433D01*
G75*
G02*
X10197422Y-9612039I-5303J-5303D01*
G01*
G37*
G04 #@! TD.AperFunction*
G04 #@! TA.AperFunction,SMDPad,CuDef*
G36*
G01*
X10243384Y-9566077D02*
X10232777Y-9576684D01*
G75*
G02*
X10222171Y-9576684I-5303J5303D01*
G01*
X10160299Y-9514812D01*
G75*
G02*
X10160299Y-9504206I5303J5303D01*
G01*
X10170906Y-9493599D01*
G75*
G02*
X10181512Y-9493599I5303J-5303D01*
G01*
X10243384Y-9555471D01*
G75*
G02*
X10243384Y-9566077I-5303J-5303D01*
G01*
G37*
G04 #@! TD.AperFunction*
G04 #@! TA.AperFunction,SMDPad,CuDef*
G36*
G01*
X10289346Y-9520116D02*
X10278739Y-9530722D01*
G75*
G02*
X10268133Y-9530722I-5303J5303D01*
G01*
X10206261Y-9468850D01*
G75*
G02*
X10206261Y-9458244I5303J5303D01*
G01*
X10216868Y-9447637D01*
G75*
G02*
X10227474Y-9447637I5303J-5303D01*
G01*
X10289346Y-9509509D01*
G75*
G02*
X10289346Y-9520116I-5303J-5303D01*
G01*
G37*
G04 #@! TD.AperFunction*
G04 #@! TA.AperFunction,SMDPad,CuDef*
G36*
G01*
X10335308Y-9474154D02*
X10324701Y-9484760D01*
G75*
G02*
X10314095Y-9484760I-5303J5303D01*
G01*
X10252223Y-9422888D01*
G75*
G02*
X10252223Y-9412282I5303J5303D01*
G01*
X10262830Y-9401675D01*
G75*
G02*
X10273436Y-9401675I5303J-5303D01*
G01*
X10335308Y-9463547D01*
G75*
G02*
X10335308Y-9474154I-5303J-5303D01*
G01*
G37*
G04 #@! TD.AperFunction*
G04 #@! TA.AperFunction,SMDPad,CuDef*
G36*
G01*
X10381270Y-9428192D02*
X10370663Y-9438798D01*
G75*
G02*
X10360057Y-9438798I-5303J5303D01*
G01*
X10298185Y-9376926D01*
G75*
G02*
X10298185Y-9366320I5303J5303D01*
G01*
X10308792Y-9355713D01*
G75*
G02*
X10319398Y-9355713I5303J-5303D01*
G01*
X10381270Y-9417585D01*
G75*
G02*
X10381270Y-9428192I-5303J-5303D01*
G01*
G37*
G04 #@! TD.AperFunction*
G04 #@! TA.AperFunction,SMDPad,CuDef*
G36*
G01*
X10381270Y-9251415D02*
X10319398Y-9313287D01*
G75*
G02*
X10308792Y-9313287I-5303J5303D01*
G01*
X10298185Y-9302680D01*
G75*
G02*
X10298185Y-9292074I5303J5303D01*
G01*
X10360057Y-9230202D01*
G75*
G02*
X10370663Y-9230202I5303J-5303D01*
G01*
X10381270Y-9240808D01*
G75*
G02*
X10381270Y-9251415I-5303J-5303D01*
G01*
G37*
G04 #@! TD.AperFunction*
G04 #@! TA.AperFunction,SMDPad,CuDef*
G36*
G01*
X10335308Y-9205453D02*
X10273436Y-9267325D01*
G75*
G02*
X10262830Y-9267325I-5303J5303D01*
G01*
X10252223Y-9256718D01*
G75*
G02*
X10252223Y-9246112I5303J5303D01*
G01*
X10314095Y-9184240D01*
G75*
G02*
X10324701Y-9184240I5303J-5303D01*
G01*
X10335308Y-9194846D01*
G75*
G02*
X10335308Y-9205453I-5303J-5303D01*
G01*
G37*
G04 #@! TD.AperFunction*
G04 #@! TA.AperFunction,SMDPad,CuDef*
G36*
G01*
X10289346Y-9159491D02*
X10227474Y-9221363D01*
G75*
G02*
X10216868Y-9221363I-5303J5303D01*
G01*
X10206261Y-9210756D01*
G75*
G02*
X10206261Y-9200150I5303J5303D01*
G01*
X10268133Y-9138278D01*
G75*
G02*
X10278739Y-9138278I5303J-5303D01*
G01*
X10289346Y-9148885D01*
G75*
G02*
X10289346Y-9159491I-5303J-5303D01*
G01*
G37*
G04 #@! TD.AperFunction*
G04 #@! TA.AperFunction,SMDPad,CuDef*
G36*
G01*
X10243384Y-9113529D02*
X10181512Y-9175401D01*
G75*
G02*
X10170906Y-9175401I-5303J5303D01*
G01*
X10160299Y-9164794D01*
G75*
G02*
X10160299Y-9154188I5303J5303D01*
G01*
X10222171Y-9092316D01*
G75*
G02*
X10232777Y-9092316I5303J-5303D01*
G01*
X10243384Y-9102923D01*
G75*
G02*
X10243384Y-9113529I-5303J-5303D01*
G01*
G37*
G04 #@! TD.AperFunction*
G04 #@! TA.AperFunction,SMDPad,CuDef*
G36*
G01*
X10197422Y-9067567D02*
X10135550Y-9129439D01*
G75*
G02*
X10124944Y-9129439I-5303J5303D01*
G01*
X10114337Y-9118832D01*
G75*
G02*
X10114337Y-9108226I5303J5303D01*
G01*
X10176209Y-9046354D01*
G75*
G02*
X10186816Y-9046354I5303J-5303D01*
G01*
X10197422Y-9056961D01*
G75*
G02*
X10197422Y-9067567I-5303J-5303D01*
G01*
G37*
G04 #@! TD.AperFunction*
G04 #@! TA.AperFunction,SMDPad,CuDef*
G36*
G01*
X10151460Y-9021605D02*
X10089588Y-9083477D01*
G75*
G02*
X10078982Y-9083477I-5303J5303D01*
G01*
X10068375Y-9072871D01*
G75*
G02*
X10068375Y-9062264I5303J5303D01*
G01*
X10130247Y-9000392D01*
G75*
G02*
X10140854Y-9000392I5303J-5303D01*
G01*
X10151460Y-9010999D01*
G75*
G02*
X10151460Y-9021605I-5303J-5303D01*
G01*
G37*
G04 #@! TD.AperFunction*
G04 #@! TA.AperFunction,SMDPad,CuDef*
G36*
G01*
X10105498Y-8975643D02*
X10043626Y-9037515D01*
G75*
G02*
X10033020Y-9037515I-5303J5303D01*
G01*
X10022413Y-9026909D01*
G75*
G02*
X10022413Y-9016302I5303J5303D01*
G01*
X10084285Y-8954430D01*
G75*
G02*
X10094892Y-8954430I5303J-5303D01*
G01*
X10105498Y-8965037D01*
G75*
G02*
X10105498Y-8975643I-5303J-5303D01*
G01*
G37*
G04 #@! TD.AperFunction*
G04 #@! TA.AperFunction,SMDPad,CuDef*
G36*
G01*
X9979987Y-9026909D02*
X9969380Y-9037515D01*
G75*
G02*
X9958774Y-9037515I-5303J5303D01*
G01*
X9896902Y-8975643D01*
G75*
G02*
X9896902Y-8965037I5303J5303D01*
G01*
X9907508Y-8954430D01*
G75*
G02*
X9918115Y-8954430I5303J-5303D01*
G01*
X9979987Y-9016302D01*
G75*
G02*
X9979987Y-9026909I-5303J-5303D01*
G01*
G37*
G04 #@! TD.AperFunction*
G04 #@! TA.AperFunction,SMDPad,CuDef*
G36*
G01*
X9934025Y-9072871D02*
X9923418Y-9083477D01*
G75*
G02*
X9912812Y-9083477I-5303J5303D01*
G01*
X9850940Y-9021605D01*
G75*
G02*
X9850940Y-9010999I5303J5303D01*
G01*
X9861546Y-9000392D01*
G75*
G02*
X9872153Y-9000392I5303J-5303D01*
G01*
X9934025Y-9062264D01*
G75*
G02*
X9934025Y-9072871I-5303J-5303D01*
G01*
G37*
G04 #@! TD.AperFunction*
G04 #@! TA.AperFunction,SMDPad,CuDef*
G36*
G01*
X9888063Y-9118832D02*
X9877456Y-9129439D01*
G75*
G02*
X9866850Y-9129439I-5303J5303D01*
G01*
X9804978Y-9067567D01*
G75*
G02*
X9804978Y-9056961I5303J5303D01*
G01*
X9815585Y-9046354D01*
G75*
G02*
X9826191Y-9046354I5303J-5303D01*
G01*
X9888063Y-9108226D01*
G75*
G02*
X9888063Y-9118832I-5303J-5303D01*
G01*
G37*
G04 #@! TD.AperFunction*
G04 #@! TA.AperFunction,SMDPad,CuDef*
G36*
G01*
X9842101Y-9164794D02*
X9831494Y-9175401D01*
G75*
G02*
X9820888Y-9175401I-5303J5303D01*
G01*
X9759016Y-9113529D01*
G75*
G02*
X9759016Y-9102923I5303J5303D01*
G01*
X9769623Y-9092316D01*
G75*
G02*
X9780229Y-9092316I5303J-5303D01*
G01*
X9842101Y-9154188D01*
G75*
G02*
X9842101Y-9164794I-5303J-5303D01*
G01*
G37*
G04 #@! TD.AperFunction*
G04 #@! TA.AperFunction,SMDPad,CuDef*
G36*
G01*
X9796139Y-9210756D02*
X9785532Y-9221363D01*
G75*
G02*
X9774926Y-9221363I-5303J5303D01*
G01*
X9713054Y-9159491D01*
G75*
G02*
X9713054Y-9148885I5303J5303D01*
G01*
X9723661Y-9138278D01*
G75*
G02*
X9734267Y-9138278I5303J-5303D01*
G01*
X9796139Y-9200150D01*
G75*
G02*
X9796139Y-9210756I-5303J-5303D01*
G01*
G37*
G04 #@! TD.AperFunction*
G04 #@! TA.AperFunction,SMDPad,CuDef*
G36*
G01*
X9750177Y-9256718D02*
X9739571Y-9267325D01*
G75*
G02*
X9728964Y-9267325I-5303J5303D01*
G01*
X9667092Y-9205453D01*
G75*
G02*
X9667092Y-9194846I5303J5303D01*
G01*
X9677699Y-9184240D01*
G75*
G02*
X9688305Y-9184240I5303J-5303D01*
G01*
X9750177Y-9246112D01*
G75*
G02*
X9750177Y-9256718I-5303J-5303D01*
G01*
G37*
G04 #@! TD.AperFunction*
G04 #@! TA.AperFunction,SMDPad,CuDef*
G36*
G01*
X9704215Y-9302680D02*
X9693609Y-9313287D01*
G75*
G02*
X9683002Y-9313287I-5303J5303D01*
G01*
X9621130Y-9251415D01*
G75*
G02*
X9621130Y-9240808I5303J5303D01*
G01*
X9631737Y-9230202D01*
G75*
G02*
X9642343Y-9230202I5303J-5303D01*
G01*
X9704215Y-9292074D01*
G75*
G02*
X9704215Y-9302680I-5303J-5303D01*
G01*
G37*
G04 #@! TD.AperFunction*
G04 #@! TA.AperFunction,SMDPad,CuDef*
G36*
G01*
X9704215Y-9376926D02*
X9642343Y-9438798D01*
G75*
G02*
X9631737Y-9438798I-5303J5303D01*
G01*
X9621130Y-9428192D01*
G75*
G02*
X9621130Y-9417585I5303J5303D01*
G01*
X9683002Y-9355713D01*
G75*
G02*
X9693609Y-9355713I5303J-5303D01*
G01*
X9704215Y-9366320D01*
G75*
G02*
X9704215Y-9376926I-5303J-5303D01*
G01*
G37*
G04 #@! TD.AperFunction*
G04 #@! TA.AperFunction,SMDPad,CuDef*
G36*
G01*
X9750177Y-9422888D02*
X9688305Y-9484760D01*
G75*
G02*
X9677699Y-9484760I-5303J5303D01*
G01*
X9667092Y-9474154D01*
G75*
G02*
X9667092Y-9463547I5303J5303D01*
G01*
X9728964Y-9401675D01*
G75*
G02*
X9739571Y-9401675I5303J-5303D01*
G01*
X9750177Y-9412282D01*
G75*
G02*
X9750177Y-9422888I-5303J-5303D01*
G01*
G37*
G04 #@! TD.AperFunction*
G04 #@! TA.AperFunction,SMDPad,CuDef*
G36*
G01*
X9796139Y-9468850D02*
X9734267Y-9530722D01*
G75*
G02*
X9723661Y-9530722I-5303J5303D01*
G01*
X9713054Y-9520116D01*
G75*
G02*
X9713054Y-9509509I5303J5303D01*
G01*
X9774926Y-9447637D01*
G75*
G02*
X9785532Y-9447637I5303J-5303D01*
G01*
X9796139Y-9458244D01*
G75*
G02*
X9796139Y-9468850I-5303J-5303D01*
G01*
G37*
G04 #@! TD.AperFunction*
G04 #@! TA.AperFunction,SMDPad,CuDef*
G36*
G01*
X9842101Y-9514812D02*
X9780229Y-9576684D01*
G75*
G02*
X9769623Y-9576684I-5303J5303D01*
G01*
X9759016Y-9566077D01*
G75*
G02*
X9759016Y-9555471I5303J5303D01*
G01*
X9820888Y-9493599D01*
G75*
G02*
X9831494Y-9493599I5303J-5303D01*
G01*
X9842101Y-9504206D01*
G75*
G02*
X9842101Y-9514812I-5303J-5303D01*
G01*
G37*
G04 #@! TD.AperFunction*
G04 #@! TA.AperFunction,SMDPad,CuDef*
G36*
G01*
X9888063Y-9560774D02*
X9826191Y-9622646D01*
G75*
G02*
X9815585Y-9622646I-5303J5303D01*
G01*
X9804978Y-9612039D01*
G75*
G02*
X9804978Y-9601433I5303J5303D01*
G01*
X9866850Y-9539561D01*
G75*
G02*
X9877456Y-9539561I5303J-5303D01*
G01*
X9888063Y-9550168D01*
G75*
G02*
X9888063Y-9560774I-5303J-5303D01*
G01*
G37*
G04 #@! TD.AperFunction*
G04 #@! TA.AperFunction,SMDPad,CuDef*
G36*
G01*
X9934025Y-9606736D02*
X9872153Y-9668608D01*
G75*
G02*
X9861546Y-9668608I-5303J5303D01*
G01*
X9850940Y-9658001D01*
G75*
G02*
X9850940Y-9647395I5303J5303D01*
G01*
X9912812Y-9585523D01*
G75*
G02*
X9923418Y-9585523I5303J-5303D01*
G01*
X9934025Y-9596130D01*
G75*
G02*
X9934025Y-9606736I-5303J-5303D01*
G01*
G37*
G04 #@! TD.AperFunction*
G04 #@! TA.AperFunction,SMDPad,CuDef*
G36*
G01*
X9979987Y-9652698D02*
X9918115Y-9714570D01*
G75*
G02*
X9907508Y-9714570I-5303J5303D01*
G01*
X9896902Y-9703963D01*
G75*
G02*
X9896902Y-9693357I5303J5303D01*
G01*
X9958774Y-9631485D01*
G75*
G02*
X9969380Y-9631485I5303J-5303D01*
G01*
X9979987Y-9642092D01*
G75*
G02*
X9979987Y-9652698I-5303J-5303D01*
G01*
G37*
G04 #@! TD.AperFunction*
D12*
X9820395Y-10179605D03*
X10179605Y-10179605D03*
X10179605Y-9820395D03*
X9820395Y-9820395D03*
G04 #@! TA.AperFunction,SMDPad,CuDef*
G36*
G01*
X9339050Y-9370350D02*
X9304550Y-9370350D01*
G75*
G02*
X9289800Y-9355600I0J14750D01*
G01*
X9289800Y-9326100D01*
G75*
G02*
X9304550Y-9311350I14750J0D01*
G01*
X9339050Y-9311350D01*
G75*
G02*
X9353800Y-9326100I0J-14750D01*
G01*
X9353800Y-9355600D01*
G75*
G02*
X9339050Y-9370350I-14750J0D01*
G01*
G37*
G04 #@! TD.AperFunction*
G04 #@! TA.AperFunction,SMDPad,CuDef*
G36*
G01*
X9339050Y-9467350D02*
X9304550Y-9467350D01*
G75*
G02*
X9289800Y-9452600I0J14750D01*
G01*
X9289800Y-9423100D01*
G75*
G02*
X9304550Y-9408350I14750J0D01*
G01*
X9339050Y-9408350D01*
G75*
G02*
X9353800Y-9423100I0J-14750D01*
G01*
X9353800Y-9452600D01*
G75*
G02*
X9339050Y-9467350I-14750J0D01*
G01*
G37*
G04 #@! TD.AperFunction*
G04 #@! TA.AperFunction,SMDPad,CuDef*
G36*
G01*
X9409653Y-9220242D02*
X9385258Y-9195847D01*
G75*
G02*
X9385258Y-9174987I10430J10430D01*
G01*
X9406118Y-9154128D01*
G75*
G02*
X9426977Y-9154128I10430J-10430D01*
G01*
X9451373Y-9178523D01*
G75*
G02*
X9451373Y-9199382I-10430J-10430D01*
G01*
X9430513Y-9220242D01*
G75*
G02*
X9409653Y-9220242I-10430J10430D01*
G01*
G37*
G04 #@! TD.AperFunction*
G04 #@! TA.AperFunction,SMDPad,CuDef*
G36*
G01*
X9478243Y-9151653D02*
X9453848Y-9127257D01*
G75*
G02*
X9453848Y-9106398I10430J10430D01*
G01*
X9474707Y-9085538D01*
G75*
G02*
X9495567Y-9085538I10430J-10430D01*
G01*
X9519962Y-9109933D01*
G75*
G02*
X9519962Y-9130793I-10430J-10430D01*
G01*
X9499102Y-9151653D01*
G75*
G02*
X9478243Y-9151653I-10430J10430D01*
G01*
G37*
G04 #@! TD.AperFunction*
G04 #@! TA.AperFunction,SMDPad,CuDef*
G36*
G01*
X9435600Y-10320550D02*
X9435600Y-10355050D01*
G75*
G02*
X9420850Y-10369800I-14750J0D01*
G01*
X9391350Y-10369800D01*
G75*
G02*
X9376600Y-10355050I0J14750D01*
G01*
X9376600Y-10320550D01*
G75*
G02*
X9391350Y-10305800I14750J0D01*
G01*
X9420850Y-10305800D01*
G75*
G02*
X9435600Y-10320550I0J-14750D01*
G01*
G37*
G04 #@! TD.AperFunction*
G04 #@! TA.AperFunction,SMDPad,CuDef*
G36*
G01*
X9338600Y-10320550D02*
X9338600Y-10355050D01*
G75*
G02*
X9323850Y-10369800I-14750J0D01*
G01*
X9294350Y-10369800D01*
G75*
G02*
X9279600Y-10355050I0J14750D01*
G01*
X9279600Y-10320550D01*
G75*
G02*
X9294350Y-10305800I14750J0D01*
G01*
X9323850Y-10305800D01*
G75*
G02*
X9338600Y-10320550I0J-14750D01*
G01*
G37*
G04 #@! TD.AperFunction*
G04 #@! TA.AperFunction,SMDPad,CuDef*
G36*
G01*
X9664170Y-9841280D02*
X9629670Y-9841280D01*
G75*
G02*
X9614920Y-9826530I0J14750D01*
G01*
X9614920Y-9797030D01*
G75*
G02*
X9629670Y-9782280I14750J0D01*
G01*
X9664170Y-9782280D01*
G75*
G02*
X9678920Y-9797030I0J-14750D01*
G01*
X9678920Y-9826530D01*
G75*
G02*
X9664170Y-9841280I-14750J0D01*
G01*
G37*
G04 #@! TD.AperFunction*
G04 #@! TA.AperFunction,SMDPad,CuDef*
G36*
G01*
X9664170Y-9938280D02*
X9629670Y-9938280D01*
G75*
G02*
X9614920Y-9923530I0J14750D01*
G01*
X9614920Y-9894030D01*
G75*
G02*
X9629670Y-9879280I14750J0D01*
G01*
X9664170Y-9879280D01*
G75*
G02*
X9678920Y-9894030I0J-14750D01*
G01*
X9678920Y-9923530D01*
G75*
G02*
X9664170Y-9938280I-14750J0D01*
G01*
G37*
G04 #@! TD.AperFunction*
G04 #@! TA.AperFunction,SMDPad,CuDef*
G36*
G01*
X9336850Y-10155450D02*
X9336850Y-10189950D01*
G75*
G02*
X9322100Y-10204700I-14750J0D01*
G01*
X9292600Y-10204700D01*
G75*
G02*
X9277850Y-10189950I0J14750D01*
G01*
X9277850Y-10155450D01*
G75*
G02*
X9292600Y-10140700I14750J0D01*
G01*
X9322100Y-10140700D01*
G75*
G02*
X9336850Y-10155450I0J-14750D01*
G01*
G37*
G04 #@! TD.AperFunction*
G04 #@! TA.AperFunction,SMDPad,CuDef*
G36*
G01*
X9433850Y-10155450D02*
X9433850Y-10189950D01*
G75*
G02*
X9419100Y-10204700I-14750J0D01*
G01*
X9389600Y-10204700D01*
G75*
G02*
X9374850Y-10189950I0J14750D01*
G01*
X9374850Y-10155450D01*
G75*
G02*
X9389600Y-10140700I14750J0D01*
G01*
X9419100Y-10140700D01*
G75*
G02*
X9433850Y-10155450I0J-14750D01*
G01*
G37*
G04 #@! TD.AperFunction*
G04 #@! TA.AperFunction,SMDPad,CuDef*
G36*
G01*
X9421600Y-10011700D02*
X9387100Y-10011700D01*
G75*
G02*
X9372350Y-9996950I0J14750D01*
G01*
X9372350Y-9967450D01*
G75*
G02*
X9387100Y-9952700I14750J0D01*
G01*
X9421600Y-9952700D01*
G75*
G02*
X9436350Y-9967450I0J-14750D01*
G01*
X9436350Y-9996950D01*
G75*
G02*
X9421600Y-10011700I-14750J0D01*
G01*
G37*
G04 #@! TD.AperFunction*
G04 #@! TA.AperFunction,SMDPad,CuDef*
G36*
G01*
X9421600Y-9914700D02*
X9387100Y-9914700D01*
G75*
G02*
X9372350Y-9899950I0J14750D01*
G01*
X9372350Y-9870450D01*
G75*
G02*
X9387100Y-9855700I14750J0D01*
G01*
X9421600Y-9855700D01*
G75*
G02*
X9436350Y-9870450I0J-14750D01*
G01*
X9436350Y-9899950D01*
G75*
G02*
X9421600Y-9914700I-14750J0D01*
G01*
G37*
G04 #@! TD.AperFunction*
G04 #@! TA.AperFunction,SMDPad,CuDef*
G36*
G01*
X10268400Y-8888200D02*
X10268400Y-8853700D01*
G75*
G02*
X10283150Y-8838950I14750J0D01*
G01*
X10312650Y-8838950D01*
G75*
G02*
X10327400Y-8853700I0J-14750D01*
G01*
X10327400Y-8888200D01*
G75*
G02*
X10312650Y-8902950I-14750J0D01*
G01*
X10283150Y-8902950D01*
G75*
G02*
X10268400Y-8888200I0J14750D01*
G01*
G37*
G04 #@! TD.AperFunction*
G04 #@! TA.AperFunction,SMDPad,CuDef*
G36*
G01*
X10365400Y-8888200D02*
X10365400Y-8853700D01*
G75*
G02*
X10380150Y-8838950I14750J0D01*
G01*
X10409650Y-8838950D01*
G75*
G02*
X10424400Y-8853700I0J-14750D01*
G01*
X10424400Y-8888200D01*
G75*
G02*
X10409650Y-8902950I-14750J0D01*
G01*
X10380150Y-8902950D01*
G75*
G02*
X10365400Y-8888200I0J14750D01*
G01*
G37*
G04 #@! TD.AperFunction*
G04 #@! TA.AperFunction,SMDPad,CuDef*
G36*
G01*
X10630400Y-8888200D02*
X10630400Y-8853700D01*
G75*
G02*
X10645150Y-8838950I14750J0D01*
G01*
X10674650Y-8838950D01*
G75*
G02*
X10689400Y-8853700I0J-14750D01*
G01*
X10689400Y-8888200D01*
G75*
G02*
X10674650Y-8902950I-14750J0D01*
G01*
X10645150Y-8902950D01*
G75*
G02*
X10630400Y-8888200I0J14750D01*
G01*
G37*
G04 #@! TD.AperFunction*
G04 #@! TA.AperFunction,SMDPad,CuDef*
G36*
G01*
X10727400Y-8888200D02*
X10727400Y-8853700D01*
G75*
G02*
X10742150Y-8838950I14750J0D01*
G01*
X10771650Y-8838950D01*
G75*
G02*
X10786400Y-8853700I0J-14750D01*
G01*
X10786400Y-8888200D01*
G75*
G02*
X10771650Y-8902950I-14750J0D01*
G01*
X10742150Y-8902950D01*
G75*
G02*
X10727400Y-8888200I0J14750D01*
G01*
G37*
G04 #@! TD.AperFunction*
G04 #@! TA.AperFunction,SMDPad,CuDef*
G36*
G01*
X10403150Y-9751250D02*
X10437650Y-9751250D01*
G75*
G02*
X10452400Y-9766000I0J-14750D01*
G01*
X10452400Y-9795500D01*
G75*
G02*
X10437650Y-9810250I-14750J0D01*
G01*
X10403150Y-9810250D01*
G75*
G02*
X10388400Y-9795500I0J14750D01*
G01*
X10388400Y-9766000D01*
G75*
G02*
X10403150Y-9751250I14750J0D01*
G01*
G37*
G04 #@! TD.AperFunction*
G04 #@! TA.AperFunction,SMDPad,CuDef*
G36*
G01*
X10403150Y-9654250D02*
X10437650Y-9654250D01*
G75*
G02*
X10452400Y-9669000I0J-14750D01*
G01*
X10452400Y-9698500D01*
G75*
G02*
X10437650Y-9713250I-14750J0D01*
G01*
X10403150Y-9713250D01*
G75*
G02*
X10388400Y-9698500I0J14750D01*
G01*
X10388400Y-9669000D01*
G75*
G02*
X10403150Y-9654250I14750J0D01*
G01*
G37*
G04 #@! TD.AperFunction*
G04 #@! TA.AperFunction,SMDPad,CuDef*
G36*
G01*
X9125450Y-8881850D02*
X9125450Y-8847350D01*
G75*
G02*
X9140200Y-8832600I14750J0D01*
G01*
X9169700Y-8832600D01*
G75*
G02*
X9184450Y-8847350I0J-14750D01*
G01*
X9184450Y-8881850D01*
G75*
G02*
X9169700Y-8896600I-14750J0D01*
G01*
X9140200Y-8896600D01*
G75*
G02*
X9125450Y-8881850I0J14750D01*
G01*
G37*
G04 #@! TD.AperFunction*
G04 #@! TA.AperFunction,SMDPad,CuDef*
G36*
G01*
X9222450Y-8881850D02*
X9222450Y-8847350D01*
G75*
G02*
X9237200Y-8832600I14750J0D01*
G01*
X9266700Y-8832600D01*
G75*
G02*
X9281450Y-8847350I0J-14750D01*
G01*
X9281450Y-8881850D01*
G75*
G02*
X9266700Y-8896600I-14750J0D01*
G01*
X9237200Y-8896600D01*
G75*
G02*
X9222450Y-8881850I0J14750D01*
G01*
G37*
G04 #@! TD.AperFunction*
G04 #@! TA.AperFunction,SMDPad,CuDef*
G36*
G01*
X10040000Y-10388825D02*
X10040000Y-10337575D01*
G75*
G02*
X10061875Y-10315700I21875J0D01*
G01*
X10105625Y-10315700D01*
G75*
G02*
X10127500Y-10337575I0J-21875D01*
G01*
X10127500Y-10388825D01*
G75*
G02*
X10105625Y-10410700I-21875J0D01*
G01*
X10061875Y-10410700D01*
G75*
G02*
X10040000Y-10388825I0J21875D01*
G01*
G37*
G04 #@! TD.AperFunction*
G04 #@! TA.AperFunction,SMDPad,CuDef*
G36*
G01*
X9882500Y-10388825D02*
X9882500Y-10337575D01*
G75*
G02*
X9904375Y-10315700I21875J0D01*
G01*
X9948125Y-10315700D01*
G75*
G02*
X9970000Y-10337575I0J-21875D01*
G01*
X9970000Y-10388825D01*
G75*
G02*
X9948125Y-10410700I-21875J0D01*
G01*
X9904375Y-10410700D01*
G75*
G02*
X9882500Y-10388825I0J21875D01*
G01*
G37*
G04 #@! TD.AperFunction*
G04 #@! TA.AperFunction,SMDPad,CuDef*
G36*
G01*
X9877480Y-10020525D02*
X9877480Y-9969275D01*
G75*
G02*
X9899355Y-9947400I21875J0D01*
G01*
X9943105Y-9947400D01*
G75*
G02*
X9964980Y-9969275I0J-21875D01*
G01*
X9964980Y-10020525D01*
G75*
G02*
X9943105Y-10042400I-21875J0D01*
G01*
X9899355Y-10042400D01*
G75*
G02*
X9877480Y-10020525I0J21875D01*
G01*
G37*
G04 #@! TD.AperFunction*
G04 #@! TA.AperFunction,SMDPad,CuDef*
G36*
G01*
X10034980Y-10020525D02*
X10034980Y-9969275D01*
G75*
G02*
X10056855Y-9947400I21875J0D01*
G01*
X10100605Y-9947400D01*
G75*
G02*
X10122480Y-9969275I0J-21875D01*
G01*
X10122480Y-10020525D01*
G75*
G02*
X10100605Y-10042400I-21875J0D01*
G01*
X10056855Y-10042400D01*
G75*
G02*
X10034980Y-10020525I0J21875D01*
G01*
G37*
G04 #@! TD.AperFunction*
D13*
X10687000Y-10033000D03*
D14*
X10687000Y-10160000D03*
X10687000Y-10287000D03*
X10687000Y-10414000D03*
X10687000Y-10541000D03*
G04 #@! TA.AperFunction,SMDPad,CuDef*
G36*
G01*
X10640850Y-9556800D02*
X10606350Y-9556800D01*
G75*
G02*
X10591600Y-9542050I0J14750D01*
G01*
X10591600Y-9512550D01*
G75*
G02*
X10606350Y-9497800I14750J0D01*
G01*
X10640850Y-9497800D01*
G75*
G02*
X10655600Y-9512550I0J-14750D01*
G01*
X10655600Y-9542050D01*
G75*
G02*
X10640850Y-9556800I-14750J0D01*
G01*
G37*
G04 #@! TD.AperFunction*
G04 #@! TA.AperFunction,SMDPad,CuDef*
G36*
G01*
X10640850Y-9653800D02*
X10606350Y-9653800D01*
G75*
G02*
X10591600Y-9639050I0J14750D01*
G01*
X10591600Y-9609550D01*
G75*
G02*
X10606350Y-9594800I14750J0D01*
G01*
X10640850Y-9594800D01*
G75*
G02*
X10655600Y-9609550I0J-14750D01*
G01*
X10655600Y-9639050D01*
G75*
G02*
X10640850Y-9653800I-14750J0D01*
G01*
G37*
G04 #@! TD.AperFunction*
G04 #@! TA.AperFunction,SMDPad,CuDef*
G36*
G01*
X9491450Y-9725950D02*
X9456950Y-9725950D01*
G75*
G02*
X9442200Y-9711200I0J14750D01*
G01*
X9442200Y-9681700D01*
G75*
G02*
X9456950Y-9666950I14750J0D01*
G01*
X9491450Y-9666950D01*
G75*
G02*
X9506200Y-9681700I0J-14750D01*
G01*
X9506200Y-9711200D01*
G75*
G02*
X9491450Y-9725950I-14750J0D01*
G01*
G37*
G04 #@! TD.AperFunction*
G04 #@! TA.AperFunction,SMDPad,CuDef*
G36*
G01*
X9491450Y-9628950D02*
X9456950Y-9628950D01*
G75*
G02*
X9442200Y-9614200I0J14750D01*
G01*
X9442200Y-9584700D01*
G75*
G02*
X9456950Y-9569950I14750J0D01*
G01*
X9491450Y-9569950D01*
G75*
G02*
X9506200Y-9584700I0J-14750D01*
G01*
X9506200Y-9614200D01*
G75*
G02*
X9491450Y-9628950I-14750J0D01*
G01*
G37*
G04 #@! TD.AperFunction*
G04 #@! TA.AperFunction,SMDPad,CuDef*
G36*
G01*
X9471850Y-8881850D02*
X9471850Y-8847350D01*
G75*
G02*
X9486600Y-8832600I14750J0D01*
G01*
X9516100Y-8832600D01*
G75*
G02*
X9530850Y-8847350I0J-14750D01*
G01*
X9530850Y-8881850D01*
G75*
G02*
X9516100Y-8896600I-14750J0D01*
G01*
X9486600Y-8896600D01*
G75*
G02*
X9471850Y-8881850I0J14750D01*
G01*
G37*
G04 #@! TD.AperFunction*
G04 #@! TA.AperFunction,SMDPad,CuDef*
G36*
G01*
X9374850Y-8881850D02*
X9374850Y-8847350D01*
G75*
G02*
X9389600Y-8832600I14750J0D01*
G01*
X9419100Y-8832600D01*
G75*
G02*
X9433850Y-8847350I0J-14750D01*
G01*
X9433850Y-8881850D01*
G75*
G02*
X9419100Y-8896600I-14750J0D01*
G01*
X9389600Y-8896600D01*
G75*
G02*
X9374850Y-8881850I0J14750D01*
G01*
G37*
G04 #@! TD.AperFunction*
G04 #@! TA.AperFunction,SMDPad,CuDef*
G36*
G01*
X9634750Y-10125700D02*
X9669250Y-10125700D01*
G75*
G02*
X9684000Y-10140450I0J-14750D01*
G01*
X9684000Y-10169950D01*
G75*
G02*
X9669250Y-10184700I-14750J0D01*
G01*
X9634750Y-10184700D01*
G75*
G02*
X9620000Y-10169950I0J14750D01*
G01*
X9620000Y-10140450D01*
G75*
G02*
X9634750Y-10125700I14750J0D01*
G01*
G37*
G04 #@! TD.AperFunction*
G04 #@! TA.AperFunction,SMDPad,CuDef*
G36*
G01*
X9634750Y-10028700D02*
X9669250Y-10028700D01*
G75*
G02*
X9684000Y-10043450I0J-14750D01*
G01*
X9684000Y-10072950D01*
G75*
G02*
X9669250Y-10087700I-14750J0D01*
G01*
X9634750Y-10087700D01*
G75*
G02*
X9620000Y-10072950I0J14750D01*
G01*
X9620000Y-10043450D01*
G75*
G02*
X9634750Y-10028700I14750J0D01*
G01*
G37*
G04 #@! TD.AperFunction*
G04 #@! TA.AperFunction,SMDPad,CuDef*
G36*
G01*
X10399450Y-10422200D02*
X10364950Y-10422200D01*
G75*
G02*
X10350200Y-10407450I0J14750D01*
G01*
X10350200Y-10377950D01*
G75*
G02*
X10364950Y-10363200I14750J0D01*
G01*
X10399450Y-10363200D01*
G75*
G02*
X10414200Y-10377950I0J-14750D01*
G01*
X10414200Y-10407450D01*
G75*
G02*
X10399450Y-10422200I-14750J0D01*
G01*
G37*
G04 #@! TD.AperFunction*
G04 #@! TA.AperFunction,SMDPad,CuDef*
G36*
G01*
X10399450Y-10325200D02*
X10364950Y-10325200D01*
G75*
G02*
X10350200Y-10310450I0J14750D01*
G01*
X10350200Y-10280950D01*
G75*
G02*
X10364950Y-10266200I14750J0D01*
G01*
X10399450Y-10266200D01*
G75*
G02*
X10414200Y-10280950I0J-14750D01*
G01*
X10414200Y-10310450D01*
G75*
G02*
X10399450Y-10325200I-14750J0D01*
G01*
G37*
G04 #@! TD.AperFunction*
G04 #@! TA.AperFunction,SMDPad,CuDef*
G36*
G01*
X10437200Y-9996750D02*
X10437200Y-10031250D01*
G75*
G02*
X10422450Y-10046000I-14750J0D01*
G01*
X10392950Y-10046000D01*
G75*
G02*
X10378200Y-10031250I0J14750D01*
G01*
X10378200Y-9996750D01*
G75*
G02*
X10392950Y-9982000I14750J0D01*
G01*
X10422450Y-9982000D01*
G75*
G02*
X10437200Y-9996750I0J-14750D01*
G01*
G37*
G04 #@! TD.AperFunction*
G04 #@! TA.AperFunction,SMDPad,CuDef*
G36*
G01*
X10340200Y-9996750D02*
X10340200Y-10031250D01*
G75*
G02*
X10325450Y-10046000I-14750J0D01*
G01*
X10295950Y-10046000D01*
G75*
G02*
X10281200Y-10031250I0J14750D01*
G01*
X10281200Y-9996750D01*
G75*
G02*
X10295950Y-9982000I14750J0D01*
G01*
X10325450Y-9982000D01*
G75*
G02*
X10340200Y-9996750I0J-14750D01*
G01*
G37*
G04 #@! TD.AperFunction*
D15*
X10841500Y-9277100D03*
X10841500Y-9182100D03*
X10841500Y-9087100D03*
X10621500Y-9087100D03*
X10621500Y-9277100D03*
D16*
X9150350Y-9080500D03*
X9150350Y-9366250D03*
X9645650Y-10344150D03*
X9290050Y-10655300D03*
X9093200Y-11049000D03*
X9086850Y-10299700D03*
X9245600Y-9918700D03*
X9315450Y-9632950D03*
X9512300Y-9791700D03*
X9709150Y-9740900D03*
X9994900Y-9861550D03*
X9594850Y-9543250D03*
X10375900Y-10115550D03*
X10204450Y-10045700D03*
X10737850Y-9182100D03*
X10807700Y-8966200D03*
X10325100Y-8966200D03*
X10407650Y-9550400D03*
X9753600Y-8858250D03*
X9436100Y-9004300D03*
X10205080Y-9001170D03*
X10251370Y-9052830D03*
X10355670Y-9904990D03*
X10349000Y-9674510D03*
X10327000Y-9810920D03*
X9522630Y-8952480D03*
X9791370Y-9666970D03*
D17*
X9154950Y-9075900D02*
X9150350Y-9080500D01*
X9154950Y-8864600D02*
X9154950Y-9075900D01*
X9296400Y-9366250D02*
X9321800Y-9340850D01*
X9150350Y-9366250D02*
X9296400Y-9366250D01*
X9321800Y-9283700D02*
X9418315Y-9187185D01*
X9321800Y-9340850D02*
X9321800Y-9283700D01*
X9418315Y-9187185D02*
X9418315Y-9373865D01*
X9418315Y-9373865D02*
X9594850Y-9550400D01*
X9693376Y-9550400D02*
X9754597Y-9489180D01*
X9594850Y-9550400D02*
X9693376Y-9550400D01*
X9909276Y-9334500D02*
X10001200Y-9334500D01*
X9754597Y-9489180D02*
X9909276Y-9334500D01*
X10093124Y-9334500D02*
X10001200Y-9334500D01*
X10247804Y-9489180D02*
X10093124Y-9334500D01*
X10420400Y-9661776D02*
X10420400Y-9683750D01*
X10247804Y-9489180D02*
X10420400Y-9661776D01*
X9645650Y-10344150D02*
X9645650Y-10464800D01*
X9700026Y-10519176D02*
X9700026Y-10740000D01*
X9645650Y-10464800D02*
X9700026Y-10519176D01*
X9368101Y-10396801D02*
X9309100Y-10337800D01*
X9592999Y-10396801D02*
X9368101Y-10396801D01*
X9645650Y-10344150D02*
X9592999Y-10396801D01*
X9309100Y-10174450D02*
X9307350Y-10172700D01*
X9309100Y-10337800D02*
X9309100Y-10174450D01*
X9309100Y-10636250D02*
X9290050Y-10655300D01*
X9309100Y-10337800D02*
X9309100Y-10636250D01*
X9093200Y-10306050D02*
X9086850Y-10299700D01*
X9093200Y-11049000D02*
X9093200Y-10306050D01*
X9245600Y-9918700D02*
X9245600Y-9861550D01*
X9315450Y-9791700D02*
X9315450Y-9632950D01*
X9245600Y-9861550D02*
X9315450Y-9791700D01*
X9497850Y-9791700D02*
X9404350Y-9885200D01*
X9512300Y-9791700D02*
X9497850Y-9791700D01*
X9626840Y-9791700D02*
X9646920Y-9811780D01*
X9512300Y-9791700D02*
X9626840Y-9791700D01*
X9646920Y-9803130D02*
X9709150Y-9740900D01*
X9646920Y-9811780D02*
X9646920Y-9803130D01*
X10036055Y-9820395D02*
X10179605Y-9820395D01*
X9994900Y-9861550D02*
X10036055Y-9820395D01*
X9594850Y-9550400D02*
X9594850Y-9543250D01*
X10274300Y-10115550D02*
X10204450Y-10045700D01*
X10375900Y-10115550D02*
X10274300Y-10115550D01*
X10841500Y-9182100D02*
X10737850Y-9182100D01*
X10807700Y-8921750D02*
X10756900Y-8870950D01*
X10807700Y-8966200D02*
X10807700Y-8921750D01*
X10325100Y-8898150D02*
X10297900Y-8870950D01*
X10325100Y-8966200D02*
X10325100Y-8898150D01*
X10407650Y-9671000D02*
X10420400Y-9683750D01*
X10407650Y-9550400D02*
X10407650Y-9671000D01*
X9753600Y-8903052D02*
X9892482Y-9041935D01*
X9753600Y-8858250D02*
X9753600Y-8903052D01*
X9440920Y-8999480D02*
X9436100Y-9004300D01*
X9612370Y-8999480D02*
X9440920Y-8999480D01*
X9753600Y-8858250D02*
X9612370Y-8999480D01*
X10687000Y-10160000D02*
X10764030Y-10160000D01*
X10753740Y-9277100D02*
X10753740Y-9397160D01*
X10753740Y-9397160D02*
X10623600Y-9527300D01*
X10553840Y-10160140D02*
X10553840Y-10221060D01*
X10553840Y-10221060D02*
X10382200Y-10392700D01*
X10407700Y-10014000D02*
X10553840Y-10160140D01*
X10609970Y-10160000D02*
X10609830Y-10160140D01*
X10609830Y-10160140D02*
X10553840Y-10160140D01*
X10687000Y-10160000D02*
X10609970Y-10160000D01*
X10399730Y-9027890D02*
X10247800Y-9179820D01*
X10399730Y-9027890D02*
X10399730Y-8875780D01*
X10399730Y-8875780D02*
X10394900Y-8870950D01*
X9406100Y-10337800D02*
X9404350Y-10336050D01*
X9404350Y-10336050D02*
X9404350Y-10172700D01*
X9404350Y-10075660D02*
X9634540Y-10075660D01*
X9634540Y-10075660D02*
X9652000Y-10058200D01*
X9474200Y-9696450D02*
X9342050Y-9828600D01*
X9342050Y-9828600D02*
X9342050Y-10013360D01*
X9342050Y-10013360D02*
X9404350Y-10075660D01*
X9404350Y-10075660D02*
X9404350Y-10172700D01*
X10753740Y-9277100D02*
X10761470Y-9277100D01*
X10841500Y-9277100D02*
X10761470Y-9277100D01*
X10083750Y-10363200D02*
X10083750Y-10312700D01*
X10083750Y-10312700D02*
X9830420Y-10059370D01*
X9830420Y-10059370D02*
X9653160Y-10059370D01*
X9653160Y-10059370D02*
X9653160Y-10059360D01*
X9653160Y-10059360D02*
X9652000Y-10058200D01*
X10083750Y-10363200D02*
X10352700Y-10363200D01*
X10352700Y-10363200D02*
X10382200Y-10392700D01*
X10711325Y-9911225D02*
X10764030Y-9963930D01*
X10623600Y-9527300D02*
X10711325Y-9615025D01*
X10711325Y-9615025D02*
X10711325Y-9911225D01*
X10764030Y-9963930D02*
X10764030Y-10160000D01*
X10521210Y-9149370D02*
X10399730Y-9027890D01*
X10699200Y-9149370D02*
X10521210Y-9149370D01*
X10761470Y-9087100D02*
X10699200Y-9149370D01*
X10841500Y-9087100D02*
X10761470Y-9087100D01*
X10690850Y-9157720D02*
X10699200Y-9149370D01*
X10690850Y-9204660D02*
X10690850Y-9157720D01*
X10761470Y-9275280D02*
X10690850Y-9204660D01*
X10761470Y-9277100D02*
X10761470Y-9275280D01*
X10205080Y-9001170D02*
X10204340Y-9001910D01*
X10204340Y-9001910D02*
X10204340Y-9039440D01*
X10204340Y-9039440D02*
X10155880Y-9087900D01*
X10382200Y-10295700D02*
X10266110Y-10179610D01*
X10266110Y-10179610D02*
X10179610Y-10179610D01*
X10251370Y-9052830D02*
X10201840Y-9102360D01*
X10201840Y-9102360D02*
X10201840Y-9133860D01*
X9652000Y-10155200D02*
X9795980Y-10155200D01*
X9795980Y-10155200D02*
X9820390Y-10179610D01*
X9251950Y-8864600D02*
X9404350Y-8864600D01*
X9800560Y-9535140D02*
X9745450Y-9590250D01*
X9745450Y-9590250D02*
X9474200Y-9590250D01*
X9474200Y-9590250D02*
X9321800Y-9437850D01*
X9474200Y-9599450D02*
X9474200Y-9590250D01*
X9486900Y-9118600D02*
X9543520Y-9061980D01*
X9543520Y-9061980D02*
X9820600Y-9061980D01*
X9820600Y-9061980D02*
X9846520Y-9087900D01*
X10687000Y-9955970D02*
X10623600Y-9892570D01*
X10623600Y-9892570D02*
X10623600Y-9624300D01*
X10687000Y-10033000D02*
X10687000Y-9955970D01*
X9969790Y-9912640D02*
X10348020Y-9912640D01*
X9919830Y-9765170D02*
X9919830Y-9862680D01*
X9741320Y-9683440D02*
X9790060Y-9732180D01*
X9790060Y-9732180D02*
X9886840Y-9732180D01*
X9741320Y-9647000D02*
X9741320Y-9683440D01*
X9919830Y-9862680D02*
X9969790Y-9912640D01*
X9771690Y-9616630D02*
X9741320Y-9647000D01*
X10348020Y-9912640D02*
X10355670Y-9904990D01*
X9810990Y-9616630D02*
X9771690Y-9616630D01*
X9886840Y-9732180D02*
X9919830Y-9765170D01*
X9846520Y-9581100D02*
X9810990Y-9616630D01*
X10349000Y-9674510D02*
X10341210Y-9674510D01*
X10341210Y-9674510D02*
X10201840Y-9535140D01*
X10155880Y-9581100D02*
X10327000Y-9752220D01*
X10327000Y-9752220D02*
X10327000Y-9810920D01*
X9892480Y-9627070D02*
X9852580Y-9666970D01*
X9852580Y-9666970D02*
X9791370Y-9666970D01*
X9522630Y-8952480D02*
X9501350Y-8931200D01*
X9501350Y-8931200D02*
X9501350Y-8864600D01*
X9646920Y-9908780D02*
X9477770Y-9908780D01*
X9477770Y-9908780D02*
X9404350Y-9982200D01*
X9820390Y-9885790D02*
X9669910Y-9885790D01*
X9669910Y-9885790D02*
X9646920Y-9908780D01*
X9921230Y-9994900D02*
X9921230Y-9986630D01*
X9921230Y-9986630D02*
X9820390Y-9885790D01*
X9820390Y-9820390D02*
X9820390Y-9885790D01*
X10621500Y-9087100D02*
X10701530Y-9087100D01*
X10701530Y-9087100D02*
X10701530Y-8912580D01*
X10701530Y-8912580D02*
X10659900Y-8870950D01*
X10420400Y-9780750D02*
X10420400Y-9908490D01*
X10420400Y-9908490D02*
X10314890Y-10014000D01*
X10314890Y-10014000D02*
X10310700Y-10014000D01*
X10541470Y-9277100D02*
X10541470Y-9659680D01*
X10541470Y-9659680D02*
X10420400Y-9780750D01*
X10310700Y-10014000D02*
X10291600Y-9994900D01*
X10291600Y-9994900D02*
X10078730Y-9994900D01*
X10621500Y-9277100D02*
X10541470Y-9277100D01*
X10860480Y-10540070D02*
X10660550Y-10740000D01*
X10860480Y-9958554D02*
X10860480Y-10540070D01*
X10788650Y-9506063D02*
X10788650Y-9886724D01*
X10788650Y-9886724D02*
X10860480Y-9958554D01*
X10788763Y-9505950D02*
X10788650Y-9506063D01*
X10660550Y-10740000D02*
X10299970Y-10740000D01*
X10960590Y-8926950D02*
X10960590Y-9336593D01*
X10249430Y-8769560D02*
X10803200Y-8769560D01*
X10960590Y-9336593D02*
X10791233Y-9505950D01*
X10063960Y-8955030D02*
X10249430Y-8769560D01*
X10791233Y-9505950D02*
X10788763Y-9505950D01*
X10803200Y-8769560D02*
X10960590Y-8926950D01*
X10063960Y-8995970D02*
X10063960Y-8955030D01*
X10486400Y-10588000D02*
X10099820Y-10588000D01*
X10719290Y-10622120D02*
X10520520Y-10622120D01*
X10806950Y-10534460D02*
X10719290Y-10622120D01*
X10520520Y-10622120D02*
X10486400Y-10588000D01*
X10109920Y-9018830D02*
X10209260Y-8919490D01*
X10806950Y-9439320D02*
X10804480Y-9439320D01*
X10750550Y-9493250D02*
X10750550Y-9899537D01*
X10806950Y-9955937D02*
X10806950Y-10534460D01*
X10209260Y-8919490D02*
X10209260Y-8868050D01*
X10209260Y-8868050D02*
X10268590Y-8808720D01*
X10750550Y-9899537D02*
X10806950Y-9955937D01*
X10791390Y-8808720D02*
X10921540Y-8938870D01*
X10921540Y-8938870D02*
X10921540Y-9324730D01*
X10099820Y-10588000D02*
X10099820Y-10740000D01*
X10921540Y-9324730D02*
X10806950Y-9439320D01*
X10109920Y-9041930D02*
X10109920Y-9018830D01*
X10268590Y-8808720D02*
X10791390Y-8808720D01*
X10804480Y-9439320D02*
X10750550Y-9493250D01*
X9926250Y-10363200D02*
X9900180Y-10389270D01*
X9900180Y-10389270D02*
X9900180Y-10740000D01*
D18*
X10221527Y-8738774D02*
X10221526Y-8738774D01*
X10219943Y-8740073D01*
X10218644Y-8741656D01*
X10036056Y-8924244D01*
X10034473Y-8925543D01*
X10033174Y-8927126D01*
X10033174Y-8927127D01*
X10029287Y-8931862D01*
X10025434Y-8939072D01*
X10024131Y-8943367D01*
X10023061Y-8946895D01*
X10022460Y-8952991D01*
X10022460Y-8952992D01*
X10022259Y-8955030D01*
X10022460Y-8957068D01*
X10022460Y-8970071D01*
X10001200Y-8991331D01*
X9941207Y-8931338D01*
X9935122Y-8926344D01*
X9928179Y-8922633D01*
X9920646Y-8920348D01*
X9912812Y-8919576D01*
X9904977Y-8920348D01*
X9897444Y-8922633D01*
X9890502Y-8926344D01*
X9884416Y-8931338D01*
X9873810Y-8941945D01*
X9868816Y-8948030D01*
X9865105Y-8954973D01*
X9864286Y-8957672D01*
X9859994Y-8958036D01*
X9852897Y-8960086D01*
X9846336Y-8963480D01*
X9841659Y-8967246D01*
X9841659Y-8980505D01*
X9892482Y-9031328D01*
X9893897Y-9029914D01*
X9904503Y-9040520D01*
X9903089Y-9041935D01*
X9904503Y-9043349D01*
X9893897Y-9053956D01*
X9892482Y-9052541D01*
X9891068Y-9053956D01*
X9880462Y-9043349D01*
X9881876Y-9041935D01*
X9831052Y-8991111D01*
X9817794Y-8991111D01*
X9814028Y-8995789D01*
X9810633Y-9002350D01*
X9808584Y-9009446D01*
X9808219Y-9013738D01*
X9805520Y-9014557D01*
X9798578Y-9018268D01*
X9795882Y-9020480D01*
X9545558Y-9020480D01*
X9543520Y-9020279D01*
X9541482Y-9020480D01*
X9541481Y-9020480D01*
X9535385Y-9021081D01*
X9527562Y-9023454D01*
X9520352Y-9027307D01*
X9515617Y-9031194D01*
X9515616Y-9031194D01*
X9514033Y-9032493D01*
X9512734Y-9034076D01*
X9496651Y-9050159D01*
X9494386Y-9049472D01*
X9485137Y-9048561D01*
X9475888Y-9049472D01*
X9466995Y-9052169D01*
X9458799Y-9056550D01*
X9451615Y-9062446D01*
X9430755Y-9083306D01*
X9424860Y-9090490D01*
X9420479Y-9098686D01*
X9418206Y-9106180D01*
X9416548Y-9106016D01*
X9409196Y-9106740D01*
X9402127Y-9108885D01*
X9395613Y-9112367D01*
X9389903Y-9117053D01*
X9381104Y-9126108D01*
X9381104Y-9139367D01*
X9418315Y-9176578D01*
X9419730Y-9175164D01*
X9430336Y-9185771D01*
X9428922Y-9187185D01*
X9466133Y-9224396D01*
X9479392Y-9224396D01*
X9488447Y-9215597D01*
X9493133Y-9209887D01*
X9496615Y-9203373D01*
X9498760Y-9196304D01*
X9499484Y-9188953D01*
X9499321Y-9187295D01*
X9506815Y-9185021D01*
X9515011Y-9180640D01*
X9522195Y-9174745D01*
X9543054Y-9153885D01*
X9548950Y-9146701D01*
X9553331Y-9138505D01*
X9556028Y-9129612D01*
X9556939Y-9120363D01*
X9556028Y-9111114D01*
X9555341Y-9108849D01*
X9560710Y-9103480D01*
X9724630Y-9103480D01*
X9724593Y-9103855D01*
X9721130Y-9104196D01*
X9713596Y-9106481D01*
X9706654Y-9110192D01*
X9700569Y-9115186D01*
X9689962Y-9125792D01*
X9684968Y-9131878D01*
X9681257Y-9138820D01*
X9678972Y-9146354D01*
X9678631Y-9149816D01*
X9675168Y-9150158D01*
X9667635Y-9152443D01*
X9660692Y-9156154D01*
X9654607Y-9161148D01*
X9644000Y-9171754D01*
X9639006Y-9177840D01*
X9635295Y-9184782D01*
X9633010Y-9192315D01*
X9632669Y-9195778D01*
X9629206Y-9196120D01*
X9621673Y-9198405D01*
X9614730Y-9202116D01*
X9608645Y-9207110D01*
X9598038Y-9217716D01*
X9593044Y-9223802D01*
X9589333Y-9230744D01*
X9587048Y-9238277D01*
X9586276Y-9246112D01*
X9587048Y-9253946D01*
X9589333Y-9261479D01*
X9593044Y-9268422D01*
X9598038Y-9274507D01*
X9658031Y-9334500D01*
X9598038Y-9394493D01*
X9593044Y-9400578D01*
X9589333Y-9407521D01*
X9587048Y-9415054D01*
X9586276Y-9422888D01*
X9587048Y-9430723D01*
X9589333Y-9438256D01*
X9593044Y-9445198D01*
X9598038Y-9451284D01*
X9608645Y-9461890D01*
X9614730Y-9466884D01*
X9621673Y-9470595D01*
X9629206Y-9472881D01*
X9632669Y-9473222D01*
X9633010Y-9476685D01*
X9635295Y-9484218D01*
X9639006Y-9491160D01*
X9644000Y-9497246D01*
X9654607Y-9507852D01*
X9660692Y-9512846D01*
X9667635Y-9516557D01*
X9670333Y-9517376D01*
X9670698Y-9521668D01*
X9672748Y-9528765D01*
X9676142Y-9535326D01*
X9679908Y-9540003D01*
X9693166Y-9540003D01*
X9686537Y-9546632D01*
X9688655Y-9548750D01*
X9522013Y-9548750D01*
X9517788Y-9545282D01*
X9509592Y-9540902D01*
X9500699Y-9538204D01*
X9491450Y-9537293D01*
X9479933Y-9537293D01*
X9386457Y-9443817D01*
X9386457Y-9423100D01*
X9385546Y-9413851D01*
X9382849Y-9404958D01*
X9379157Y-9398052D01*
X9380445Y-9396995D01*
X9385131Y-9391285D01*
X9388613Y-9384770D01*
X9390757Y-9377701D01*
X9391481Y-9370350D01*
X9391300Y-9357725D01*
X9381925Y-9348350D01*
X9329300Y-9348350D01*
X9329300Y-9350350D01*
X9314300Y-9350350D01*
X9314300Y-9348350D01*
X9261675Y-9348350D01*
X9252300Y-9357725D01*
X9252119Y-9370350D01*
X9252843Y-9377701D01*
X9254987Y-9384770D01*
X9258469Y-9391285D01*
X9263155Y-9396995D01*
X9264443Y-9398052D01*
X9260752Y-9404958D01*
X9258054Y-9413851D01*
X9257143Y-9423100D01*
X9257143Y-9452600D01*
X9258054Y-9461849D01*
X9260752Y-9470742D01*
X9265132Y-9478938D01*
X9271028Y-9486122D01*
X9278212Y-9492018D01*
X9286408Y-9496399D01*
X9295301Y-9499096D01*
X9304550Y-9500007D01*
X9325267Y-9500007D01*
X9409580Y-9584320D01*
X9409543Y-9584700D01*
X9409543Y-9614200D01*
X9410454Y-9623449D01*
X9413152Y-9632342D01*
X9417532Y-9640538D01*
X9423428Y-9647722D01*
X9423706Y-9647950D01*
X9423428Y-9648178D01*
X9417532Y-9655362D01*
X9413152Y-9663558D01*
X9410454Y-9672451D01*
X9409543Y-9681700D01*
X9409543Y-9702417D01*
X9314147Y-9797813D01*
X9312563Y-9799113D01*
X9311264Y-9800697D01*
X9307377Y-9805432D01*
X9303731Y-9812255D01*
X9303524Y-9812642D01*
X9301151Y-9820465D01*
X9300550Y-9826561D01*
X9300550Y-9826562D01*
X9300349Y-9828600D01*
X9300550Y-9830638D01*
X9300550Y-10011321D01*
X9300349Y-10013360D01*
X9300550Y-10015399D01*
X9300774Y-10017669D01*
X9301151Y-10021495D01*
X9303524Y-10029318D01*
X9307377Y-10036528D01*
X9311264Y-10041263D01*
X9311264Y-10041264D01*
X9312563Y-10042847D01*
X9314146Y-10044146D01*
X9362850Y-10092850D01*
X9362850Y-10113526D01*
X9357785Y-10109369D01*
X9351270Y-10105887D01*
X9344201Y-10103743D01*
X9336850Y-10103019D01*
X9324225Y-10103200D01*
X9314850Y-10112575D01*
X9314850Y-10165200D01*
X9316850Y-10165200D01*
X9316850Y-10180200D01*
X9314850Y-10180200D01*
X9314850Y-10232825D01*
X9324225Y-10242200D01*
X9336850Y-10242381D01*
X9344201Y-10241657D01*
X9351270Y-10239513D01*
X9357785Y-10236031D01*
X9362850Y-10231874D01*
X9362850Y-10277190D01*
X9359535Y-10274469D01*
X9353020Y-10270987D01*
X9345951Y-10268843D01*
X9338600Y-10268119D01*
X9325975Y-10268300D01*
X9316600Y-10277675D01*
X9316600Y-10330300D01*
X9318600Y-10330300D01*
X9318600Y-10345300D01*
X9316600Y-10345300D01*
X9316600Y-10397925D01*
X9325975Y-10407300D01*
X9338600Y-10407481D01*
X9345951Y-10406757D01*
X9353020Y-10404613D01*
X9359535Y-10401131D01*
X9365245Y-10396445D01*
X9366302Y-10395157D01*
X9373208Y-10398849D01*
X9382101Y-10401546D01*
X9391350Y-10402457D01*
X9420850Y-10402457D01*
X9430099Y-10401546D01*
X9438992Y-10398849D01*
X9447188Y-10394468D01*
X9454372Y-10388572D01*
X9460268Y-10381388D01*
X9464649Y-10373192D01*
X9467346Y-10364299D01*
X9468257Y-10355050D01*
X9468257Y-10320550D01*
X9467346Y-10311301D01*
X9464649Y-10302408D01*
X9460268Y-10294212D01*
X9454372Y-10287028D01*
X9447188Y-10281132D01*
X9445850Y-10280417D01*
X9445850Y-10229030D01*
X9452622Y-10223472D01*
X9458518Y-10216288D01*
X9462899Y-10208092D01*
X9465596Y-10199199D01*
X9466507Y-10189950D01*
X9466507Y-10155450D01*
X9465596Y-10146201D01*
X9462899Y-10137308D01*
X9458518Y-10129112D01*
X9452622Y-10121928D01*
X9446812Y-10117160D01*
X9593703Y-10117160D01*
X9590952Y-10122308D01*
X9588254Y-10131201D01*
X9587343Y-10140450D01*
X9587343Y-10169950D01*
X9588254Y-10179199D01*
X9590952Y-10188092D01*
X9595332Y-10196288D01*
X9601228Y-10203472D01*
X9608412Y-10209368D01*
X9616608Y-10213749D01*
X9625501Y-10216446D01*
X9634750Y-10217357D01*
X9669250Y-10217357D01*
X9678499Y-10216446D01*
X9687392Y-10213749D01*
X9695588Y-10209368D01*
X9702772Y-10203472D01*
X9708330Y-10196700D01*
X9729483Y-10196700D01*
X9731450Y-10206586D01*
X9738422Y-10223420D01*
X9748545Y-10238570D01*
X9761430Y-10251455D01*
X9776580Y-10261578D01*
X9793414Y-10268550D01*
X9811284Y-10272105D01*
X9829505Y-10272105D01*
X9847376Y-10268550D01*
X9864210Y-10261578D01*
X9879360Y-10251455D01*
X9892244Y-10238570D01*
X9902367Y-10223420D01*
X9909340Y-10206586D01*
X9910934Y-10198574D01*
X10017933Y-10305573D01*
X10016533Y-10307279D01*
X10011494Y-10316706D01*
X10008391Y-10326936D01*
X10007343Y-10337575D01*
X10007343Y-10388825D01*
X10008391Y-10399464D01*
X10011494Y-10409694D01*
X10016533Y-10419122D01*
X10023315Y-10427385D01*
X10031579Y-10434167D01*
X10041006Y-10439206D01*
X10051236Y-10442309D01*
X10061875Y-10443357D01*
X10105625Y-10443357D01*
X10116264Y-10442309D01*
X10126494Y-10439206D01*
X10135922Y-10434167D01*
X10144185Y-10427385D01*
X10150967Y-10419122D01*
X10156006Y-10409694D01*
X10157521Y-10404700D01*
X10317543Y-10404700D01*
X10317543Y-10407450D01*
X10318454Y-10416699D01*
X10321152Y-10425592D01*
X10325532Y-10433788D01*
X10331428Y-10440972D01*
X10338612Y-10446868D01*
X10346808Y-10451249D01*
X10355701Y-10453946D01*
X10364950Y-10454857D01*
X10399450Y-10454857D01*
X10408699Y-10453946D01*
X10417592Y-10451249D01*
X10425788Y-10446868D01*
X10432972Y-10440972D01*
X10438868Y-10433788D01*
X10443249Y-10425592D01*
X10445946Y-10416699D01*
X10446857Y-10407450D01*
X10446857Y-10386733D01*
X10581743Y-10251847D01*
X10583327Y-10250547D01*
X10588513Y-10244228D01*
X10592367Y-10237018D01*
X10594740Y-10229195D01*
X10595340Y-10223099D01*
X10595340Y-10223098D01*
X10595541Y-10221060D01*
X10595340Y-10219022D01*
X10595340Y-10201640D01*
X10607792Y-10201640D01*
X10609830Y-10201841D01*
X10611868Y-10201640D01*
X10611869Y-10201640D01*
X10613290Y-10201500D01*
X10615508Y-10201500D01*
X10622918Y-10212591D01*
X10630774Y-10220447D01*
X10622316Y-10228074D01*
X10612063Y-10241825D01*
X10604690Y-10257313D01*
X10602069Y-10265955D01*
X10609236Y-10279500D01*
X10679500Y-10279500D01*
X10679500Y-10277500D01*
X10694500Y-10277500D01*
X10694500Y-10279500D01*
X10696500Y-10279500D01*
X10696500Y-10294500D01*
X10694500Y-10294500D01*
X10694500Y-10296500D01*
X10679500Y-10296500D01*
X10679500Y-10294500D01*
X10609236Y-10294500D01*
X10602069Y-10308045D01*
X10604690Y-10316687D01*
X10612063Y-10332175D01*
X10622316Y-10345926D01*
X10630774Y-10353553D01*
X10622918Y-10361409D01*
X10613889Y-10374922D01*
X10607670Y-10389936D01*
X10604500Y-10405875D01*
X10604500Y-10422126D01*
X10607670Y-10438064D01*
X10613889Y-10453078D01*
X10622918Y-10466591D01*
X10633827Y-10477500D01*
X10622918Y-10488409D01*
X10613889Y-10501922D01*
X10607670Y-10516936D01*
X10604500Y-10532875D01*
X10604500Y-10549126D01*
X10607670Y-10565064D01*
X10613889Y-10580078D01*
X10614251Y-10580620D01*
X10537710Y-10580620D01*
X10517187Y-10560097D01*
X10515887Y-10558513D01*
X10509568Y-10553327D01*
X10502358Y-10549474D01*
X10494535Y-10547101D01*
X10488439Y-10546500D01*
X10488438Y-10546500D01*
X10486400Y-10546299D01*
X10484362Y-10546500D01*
X10101859Y-10546500D01*
X10099820Y-10546299D01*
X10097781Y-10546500D01*
X10091685Y-10547101D01*
X10083862Y-10549474D01*
X10076652Y-10553327D01*
X10070333Y-10558513D01*
X10065147Y-10564832D01*
X10061294Y-10572042D01*
X10058921Y-10579865D01*
X10058673Y-10582375D01*
X10049911Y-10582375D01*
X10043540Y-10583002D01*
X10037414Y-10584861D01*
X10031768Y-10587879D01*
X10026819Y-10591940D01*
X10022758Y-10596889D01*
X10019740Y-10602535D01*
X10017881Y-10608661D01*
X10017254Y-10615032D01*
X10017254Y-10864968D01*
X10017881Y-10871339D01*
X10019740Y-10877465D01*
X10022758Y-10883111D01*
X10026819Y-10888060D01*
X10031768Y-10892122D01*
X10037414Y-10895139D01*
X10043540Y-10896998D01*
X10049911Y-10897625D01*
X10149733Y-10897625D01*
X10156104Y-10896998D01*
X10162230Y-10895139D01*
X10167876Y-10892122D01*
X10172825Y-10888060D01*
X10176887Y-10883111D01*
X10179904Y-10877465D01*
X10181763Y-10871339D01*
X10182390Y-10864968D01*
X10182390Y-10629500D01*
X10217406Y-10629500D01*
X10217406Y-10864968D01*
X10218033Y-10871339D01*
X10219892Y-10877465D01*
X10222910Y-10883111D01*
X10226971Y-10888060D01*
X10231920Y-10892122D01*
X10237566Y-10895139D01*
X10243692Y-10896998D01*
X10250063Y-10897625D01*
X10349885Y-10897625D01*
X10356256Y-10896998D01*
X10362382Y-10895139D01*
X10368028Y-10892122D01*
X10372977Y-10888060D01*
X10377039Y-10883111D01*
X10380056Y-10877465D01*
X10381915Y-10871339D01*
X10382542Y-10864968D01*
X10382542Y-10781500D01*
X10658512Y-10781500D01*
X10660550Y-10781701D01*
X10662588Y-10781500D01*
X10662589Y-10781500D01*
X10668685Y-10780900D01*
X10676508Y-10778527D01*
X10683718Y-10774673D01*
X10690037Y-10769487D01*
X10691337Y-10767903D01*
X10888383Y-10570857D01*
X10889967Y-10569557D01*
X10895153Y-10563238D01*
X10899007Y-10556028D01*
X10901380Y-10548205D01*
X10901980Y-10542109D01*
X10901980Y-10542108D01*
X10902181Y-10540070D01*
X10901980Y-10538032D01*
X10901980Y-9960593D01*
X10902181Y-9958554D01*
X10901722Y-9953895D01*
X10901380Y-9950419D01*
X10899007Y-9942596D01*
X10895153Y-9935386D01*
X10894454Y-9934535D01*
X10891267Y-9930651D01*
X10891266Y-9930650D01*
X10889967Y-9929067D01*
X10888384Y-9927768D01*
X10830150Y-9869534D01*
X10830150Y-9685965D01*
X10857500Y-9685965D01*
X10857500Y-9714035D01*
X10862976Y-9741566D01*
X10873718Y-9767499D01*
X10889313Y-9790839D01*
X10909162Y-9810687D01*
X10932501Y-9826282D01*
X10958434Y-9837024D01*
X10985965Y-9842500D01*
X11014035Y-9842500D01*
X11041566Y-9837024D01*
X11067499Y-9826282D01*
X11090839Y-9810687D01*
X11110687Y-9790839D01*
X11126282Y-9767499D01*
X11137024Y-9741566D01*
X11142500Y-9714035D01*
X11142500Y-9685965D01*
X11137024Y-9658434D01*
X11126282Y-9632501D01*
X11110687Y-9609162D01*
X11090839Y-9589313D01*
X11067499Y-9573718D01*
X11041566Y-9562976D01*
X11014035Y-9557500D01*
X10985965Y-9557500D01*
X10958434Y-9562976D01*
X10932501Y-9573718D01*
X10909162Y-9589313D01*
X10889313Y-9609162D01*
X10873718Y-9632501D01*
X10862976Y-9658434D01*
X10857500Y-9685965D01*
X10830150Y-9685965D01*
X10830150Y-9525723D01*
X10962500Y-9393373D01*
X10962500Y-9451842D01*
X10963043Y-9457351D01*
X10965187Y-9464420D01*
X10968669Y-9470935D01*
X10973355Y-9476645D01*
X10979065Y-9481331D01*
X10985580Y-9484813D01*
X10992649Y-9486957D01*
X11000000Y-9487681D01*
X11000008Y-9487681D01*
X11041240Y-9491723D01*
X11080909Y-9503700D01*
X11117496Y-9523154D01*
X11149608Y-9549344D01*
X11176021Y-9581272D01*
X11195730Y-9617723D01*
X11207983Y-9657307D01*
X11212315Y-9698518D01*
X11208559Y-9739785D01*
X11196860Y-9779537D01*
X11177662Y-9816259D01*
X11151697Y-9848552D01*
X11119954Y-9875188D01*
X11083642Y-9895151D01*
X11044144Y-9907680D01*
X11001488Y-9912465D01*
X11000000Y-9912319D01*
X10992649Y-9913043D01*
X10985580Y-9915187D01*
X10979065Y-9918669D01*
X10973355Y-9923355D01*
X10968669Y-9929065D01*
X10965187Y-9935580D01*
X10963043Y-9942649D01*
X10962500Y-9948158D01*
X10962500Y-11232500D01*
X9037500Y-11232500D01*
X9037500Y-10927198D01*
X9287512Y-10927198D01*
X9287512Y-11177134D01*
X9288139Y-11183505D01*
X9289998Y-11189631D01*
X9293016Y-11195277D01*
X9297077Y-11200226D01*
X9302026Y-11204287D01*
X9307672Y-11207305D01*
X9313798Y-11209164D01*
X9320169Y-11209791D01*
X9520067Y-11209791D01*
X9526438Y-11209164D01*
X9532564Y-11207305D01*
X9538210Y-11204287D01*
X9543159Y-11200226D01*
X9547221Y-11195277D01*
X9550238Y-11189631D01*
X9552097Y-11183505D01*
X9552724Y-11177134D01*
X9552724Y-10927198D01*
X10447276Y-10927198D01*
X10447276Y-11177134D01*
X10447903Y-11183505D01*
X10449762Y-11189631D01*
X10452780Y-11195277D01*
X10456841Y-11200226D01*
X10461790Y-11204287D01*
X10467436Y-11207305D01*
X10473562Y-11209164D01*
X10479933Y-11209791D01*
X10679831Y-11209791D01*
X10686202Y-11209164D01*
X10692328Y-11207305D01*
X10697974Y-11204287D01*
X10702923Y-11200226D01*
X10706985Y-11195277D01*
X10710002Y-11189631D01*
X10711861Y-11183505D01*
X10712488Y-11177134D01*
X10712488Y-10927198D01*
X10711861Y-10920827D01*
X10710002Y-10914701D01*
X10706985Y-10909055D01*
X10702923Y-10904106D01*
X10697974Y-10900045D01*
X10692328Y-10897027D01*
X10686202Y-10895168D01*
X10679831Y-10894541D01*
X10479933Y-10894541D01*
X10473562Y-10895168D01*
X10467436Y-10897027D01*
X10461790Y-10900045D01*
X10456841Y-10904106D01*
X10452780Y-10909055D01*
X10449762Y-10914701D01*
X10447903Y-10920827D01*
X10447276Y-10927198D01*
X9552724Y-10927198D01*
X9552097Y-10920827D01*
X9550238Y-10914701D01*
X9547221Y-10909055D01*
X9543159Y-10904106D01*
X9538210Y-10900045D01*
X9532564Y-10897027D01*
X9526438Y-10895168D01*
X9520067Y-10894541D01*
X9320169Y-10894541D01*
X9313798Y-10895168D01*
X9307672Y-10897027D01*
X9302026Y-10900045D01*
X9297077Y-10904106D01*
X9293016Y-10909055D01*
X9289998Y-10914701D01*
X9288139Y-10920827D01*
X9287512Y-10927198D01*
X9037500Y-10927198D01*
X9037500Y-10864968D01*
X9612434Y-10864968D01*
X9613158Y-10872319D01*
X9615302Y-10879388D01*
X9618784Y-10885903D01*
X9623470Y-10891613D01*
X9629180Y-10896299D01*
X9635695Y-10899781D01*
X9642764Y-10901925D01*
X9650115Y-10902649D01*
X9683151Y-10902468D01*
X9692526Y-10893093D01*
X9692526Y-10747500D01*
X9707526Y-10747500D01*
X9707526Y-10893093D01*
X9716901Y-10902468D01*
X9749937Y-10902649D01*
X9757288Y-10901925D01*
X9764357Y-10899781D01*
X9770872Y-10896299D01*
X9776582Y-10891613D01*
X9781268Y-10885903D01*
X9784750Y-10879388D01*
X9786894Y-10872319D01*
X9787618Y-10864968D01*
X9787437Y-10756875D01*
X9778062Y-10747500D01*
X9707526Y-10747500D01*
X9692526Y-10747500D01*
X9621990Y-10747500D01*
X9612615Y-10756875D01*
X9612434Y-10864968D01*
X9037500Y-10864968D01*
X9037500Y-10615032D01*
X9612434Y-10615032D01*
X9612615Y-10723125D01*
X9621990Y-10732500D01*
X9692526Y-10732500D01*
X9692526Y-10586907D01*
X9707526Y-10586907D01*
X9707526Y-10732500D01*
X9778062Y-10732500D01*
X9787437Y-10723125D01*
X9787618Y-10615032D01*
X9817610Y-10615032D01*
X9817610Y-10864968D01*
X9818237Y-10871339D01*
X9820096Y-10877465D01*
X9823114Y-10883111D01*
X9827175Y-10888060D01*
X9832124Y-10892122D01*
X9837770Y-10895139D01*
X9843896Y-10896998D01*
X9850267Y-10897625D01*
X9950089Y-10897625D01*
X9956460Y-10896998D01*
X9962586Y-10895139D01*
X9968232Y-10892122D01*
X9973181Y-10888060D01*
X9977243Y-10883111D01*
X9980260Y-10877465D01*
X9982119Y-10871339D01*
X9982746Y-10864968D01*
X9982746Y-10615032D01*
X9982119Y-10608661D01*
X9980260Y-10602535D01*
X9977243Y-10596889D01*
X9973181Y-10591940D01*
X9968232Y-10587879D01*
X9962586Y-10584861D01*
X9956460Y-10583002D01*
X9950089Y-10582375D01*
X9941680Y-10582375D01*
X9941680Y-10443357D01*
X9948125Y-10443357D01*
X9958764Y-10442309D01*
X9968994Y-10439206D01*
X9978422Y-10434167D01*
X9986685Y-10427385D01*
X9993467Y-10419122D01*
X9998506Y-10409694D01*
X10001609Y-10399464D01*
X10002657Y-10388825D01*
X10002657Y-10337575D01*
X10001609Y-10326936D01*
X9998506Y-10316706D01*
X9993467Y-10307279D01*
X9986685Y-10299015D01*
X9978422Y-10292233D01*
X9968994Y-10287194D01*
X9958764Y-10284091D01*
X9948125Y-10283043D01*
X9904375Y-10283043D01*
X9893736Y-10284091D01*
X9883506Y-10287194D01*
X9874079Y-10292233D01*
X9865815Y-10299015D01*
X9859033Y-10307279D01*
X9853994Y-10316706D01*
X9850891Y-10326936D01*
X9849843Y-10337575D01*
X9849843Y-10388825D01*
X9850891Y-10399464D01*
X9853994Y-10409694D01*
X9858680Y-10418461D01*
X9858680Y-10582375D01*
X9850267Y-10582375D01*
X9843896Y-10583002D01*
X9837770Y-10584861D01*
X9832124Y-10587879D01*
X9827175Y-10591940D01*
X9823114Y-10596889D01*
X9820096Y-10602535D01*
X9818237Y-10608661D01*
X9817610Y-10615032D01*
X9787618Y-10615032D01*
X9786894Y-10607681D01*
X9784750Y-10600612D01*
X9781268Y-10594097D01*
X9776582Y-10588387D01*
X9770872Y-10583701D01*
X9764357Y-10580219D01*
X9757288Y-10578075D01*
X9749937Y-10577351D01*
X9716901Y-10577532D01*
X9707526Y-10586907D01*
X9692526Y-10586907D01*
X9683151Y-10577532D01*
X9650115Y-10577351D01*
X9642764Y-10578075D01*
X9635695Y-10580219D01*
X9629180Y-10583701D01*
X9623470Y-10588387D01*
X9618784Y-10594097D01*
X9615302Y-10600612D01*
X9613158Y-10607681D01*
X9612434Y-10615032D01*
X9037500Y-10615032D01*
X9037500Y-10369800D01*
X9241919Y-10369800D01*
X9242643Y-10377151D01*
X9244787Y-10384220D01*
X9248269Y-10390735D01*
X9252955Y-10396445D01*
X9258665Y-10401131D01*
X9265180Y-10404613D01*
X9272249Y-10406757D01*
X9279600Y-10407481D01*
X9292225Y-10407300D01*
X9301600Y-10397925D01*
X9301600Y-10345300D01*
X9251475Y-10345300D01*
X9242100Y-10354675D01*
X9241919Y-10369800D01*
X9037500Y-10369800D01*
X9037500Y-10305800D01*
X9241919Y-10305800D01*
X9242100Y-10320925D01*
X9251475Y-10330300D01*
X9301600Y-10330300D01*
X9301600Y-10277675D01*
X9292225Y-10268300D01*
X9279600Y-10268119D01*
X9272249Y-10268843D01*
X9265180Y-10270987D01*
X9258665Y-10274469D01*
X9252955Y-10279155D01*
X9248269Y-10284865D01*
X9244787Y-10291380D01*
X9242643Y-10298449D01*
X9241919Y-10305800D01*
X9037500Y-10305800D01*
X9037500Y-10204700D01*
X9240169Y-10204700D01*
X9240893Y-10212051D01*
X9243037Y-10219120D01*
X9246519Y-10225635D01*
X9251205Y-10231345D01*
X9256915Y-10236031D01*
X9263430Y-10239513D01*
X9270499Y-10241657D01*
X9277850Y-10242381D01*
X9290475Y-10242200D01*
X9299850Y-10232825D01*
X9299850Y-10180200D01*
X9249725Y-10180200D01*
X9240350Y-10189575D01*
X9240169Y-10204700D01*
X9037500Y-10204700D01*
X9037500Y-10140700D01*
X9240169Y-10140700D01*
X9240350Y-10155825D01*
X9249725Y-10165200D01*
X9299850Y-10165200D01*
X9299850Y-10112575D01*
X9290475Y-10103200D01*
X9277850Y-10103019D01*
X9270499Y-10103743D01*
X9263430Y-10105887D01*
X9256915Y-10109369D01*
X9251205Y-10114055D01*
X9246519Y-10119765D01*
X9243037Y-10126280D01*
X9240893Y-10133349D01*
X9240169Y-10140700D01*
X9037500Y-10140700D01*
X9037500Y-9948158D01*
X9036957Y-9942649D01*
X9034813Y-9935580D01*
X9031331Y-9929065D01*
X9026645Y-9923355D01*
X9020935Y-9918669D01*
X9014420Y-9915187D01*
X9007351Y-9913043D01*
X9000000Y-9912319D01*
X8999992Y-9912319D01*
X8958760Y-9908277D01*
X8919091Y-9896300D01*
X8882504Y-9876846D01*
X8850392Y-9850656D01*
X8823978Y-9818728D01*
X8804270Y-9782277D01*
X8792017Y-9742693D01*
X8787685Y-9701482D01*
X8789097Y-9685965D01*
X8857500Y-9685965D01*
X8857500Y-9714035D01*
X8862976Y-9741566D01*
X8873718Y-9767499D01*
X8889313Y-9790839D01*
X8909162Y-9810687D01*
X8932501Y-9826282D01*
X8958434Y-9837024D01*
X8985965Y-9842500D01*
X9014035Y-9842500D01*
X9041566Y-9837024D01*
X9067499Y-9826282D01*
X9090839Y-9810687D01*
X9110687Y-9790839D01*
X9126282Y-9767499D01*
X9137024Y-9741566D01*
X9142500Y-9714035D01*
X9142500Y-9685965D01*
X9137024Y-9658434D01*
X9126282Y-9632501D01*
X9110687Y-9609162D01*
X9090839Y-9589313D01*
X9067499Y-9573718D01*
X9041566Y-9562976D01*
X9014035Y-9557500D01*
X8985965Y-9557500D01*
X8958434Y-9562976D01*
X8932501Y-9573718D01*
X8909162Y-9589313D01*
X8889313Y-9609162D01*
X8873718Y-9632501D01*
X8862976Y-9658434D01*
X8857500Y-9685965D01*
X8789097Y-9685965D01*
X8791441Y-9660215D01*
X8803140Y-9620463D01*
X8822338Y-9583741D01*
X8848303Y-9551447D01*
X8880046Y-9524812D01*
X8916358Y-9504849D01*
X8955856Y-9492320D01*
X8998513Y-9487535D01*
X9000000Y-9487681D01*
X9007351Y-9486957D01*
X9014420Y-9484813D01*
X9020935Y-9481331D01*
X9026645Y-9476645D01*
X9031331Y-9470935D01*
X9034813Y-9464420D01*
X9036957Y-9457351D01*
X9037500Y-9451842D01*
X9037500Y-9311350D01*
X9252119Y-9311350D01*
X9252300Y-9323975D01*
X9261675Y-9333350D01*
X9314300Y-9333350D01*
X9314300Y-9283225D01*
X9329300Y-9283225D01*
X9329300Y-9333350D01*
X9381925Y-9333350D01*
X9391300Y-9323975D01*
X9391481Y-9311350D01*
X9390757Y-9303999D01*
X9388613Y-9296930D01*
X9385131Y-9290415D01*
X9380445Y-9284705D01*
X9374735Y-9280019D01*
X9368220Y-9276537D01*
X9361151Y-9274393D01*
X9353800Y-9273669D01*
X9338675Y-9273850D01*
X9329300Y-9283225D01*
X9314300Y-9283225D01*
X9304925Y-9273850D01*
X9289800Y-9273669D01*
X9282449Y-9274393D01*
X9275380Y-9276537D01*
X9268865Y-9280019D01*
X9263155Y-9284705D01*
X9258469Y-9290415D01*
X9254987Y-9296930D01*
X9252843Y-9303999D01*
X9252119Y-9311350D01*
X9037500Y-9311350D01*
X9037500Y-9233235D01*
X9382872Y-9233235D01*
X9382872Y-9246493D01*
X9393438Y-9257317D01*
X9399148Y-9262003D01*
X9405663Y-9265485D01*
X9412732Y-9267629D01*
X9420083Y-9268353D01*
X9427434Y-9267629D01*
X9434503Y-9265485D01*
X9441018Y-9262003D01*
X9446728Y-9257317D01*
X9455527Y-9248261D01*
X9455527Y-9235003D01*
X9418315Y-9197791D01*
X9382872Y-9233235D01*
X9037500Y-9233235D01*
X9037500Y-9185417D01*
X9337147Y-9185417D01*
X9337871Y-9192768D01*
X9340015Y-9199837D01*
X9343497Y-9206352D01*
X9348184Y-9212062D01*
X9359007Y-9222628D01*
X9372265Y-9222628D01*
X9407709Y-9187185D01*
X9370497Y-9149973D01*
X9357239Y-9149973D01*
X9348184Y-9158772D01*
X9343497Y-9164482D01*
X9340015Y-9170997D01*
X9337871Y-9178066D01*
X9337147Y-9185417D01*
X9037500Y-9185417D01*
X9037500Y-8896600D01*
X9087769Y-8896600D01*
X9088493Y-8903951D01*
X9090637Y-8911020D01*
X9094119Y-8917535D01*
X9098805Y-8923245D01*
X9104515Y-8927931D01*
X9111030Y-8931413D01*
X9118099Y-8933557D01*
X9125450Y-8934281D01*
X9138075Y-8934100D01*
X9147450Y-8924725D01*
X9147450Y-8872100D01*
X9097325Y-8872100D01*
X9087950Y-8881475D01*
X9087769Y-8896600D01*
X9037500Y-8896600D01*
X9037500Y-8832600D01*
X9087769Y-8832600D01*
X9087950Y-8847725D01*
X9097325Y-8857100D01*
X9147450Y-8857100D01*
X9147450Y-8804475D01*
X9162450Y-8804475D01*
X9162450Y-8857100D01*
X9164450Y-8857100D01*
X9164450Y-8872100D01*
X9162450Y-8872100D01*
X9162450Y-8924725D01*
X9171825Y-8934100D01*
X9184450Y-8934281D01*
X9191801Y-8933557D01*
X9198870Y-8931413D01*
X9205385Y-8927931D01*
X9211095Y-8923245D01*
X9212152Y-8921957D01*
X9219058Y-8925649D01*
X9227951Y-8928346D01*
X9237200Y-8929257D01*
X9266700Y-8929257D01*
X9275949Y-8928346D01*
X9284842Y-8925649D01*
X9293038Y-8921268D01*
X9300222Y-8915372D01*
X9306118Y-8908188D01*
X9307234Y-8906100D01*
X9349066Y-8906100D01*
X9350182Y-8908188D01*
X9356078Y-8915372D01*
X9363262Y-8921268D01*
X9371458Y-8925649D01*
X9380351Y-8928346D01*
X9389600Y-8929257D01*
X9419100Y-8929257D01*
X9428349Y-8928346D01*
X9437242Y-8925649D01*
X9445438Y-8921268D01*
X9452622Y-8915372D01*
X9452850Y-8915094D01*
X9453078Y-8915372D01*
X9459850Y-8920930D01*
X9459850Y-8929162D01*
X9459649Y-8931200D01*
X9459850Y-8933238D01*
X9459850Y-8933239D01*
X9460451Y-8939335D01*
X9462744Y-8946895D01*
X9462824Y-8947158D01*
X9466677Y-8954368D01*
X9469372Y-8957651D01*
X9470373Y-8958871D01*
X9472148Y-8967794D01*
X9476105Y-8977348D01*
X9481851Y-8985947D01*
X9489163Y-8993259D01*
X9497762Y-8999005D01*
X9507316Y-9002962D01*
X9517459Y-9004980D01*
X9527801Y-9004980D01*
X9537944Y-9002962D01*
X9547498Y-8999005D01*
X9556097Y-8993259D01*
X9563409Y-8985947D01*
X9569155Y-8977348D01*
X9573112Y-8967794D01*
X9575130Y-8957651D01*
X9575130Y-8947309D01*
X9573112Y-8937166D01*
X9569155Y-8927612D01*
X9563409Y-8919013D01*
X9556097Y-8911701D01*
X9553861Y-8910207D01*
X9555518Y-8908188D01*
X9559899Y-8899992D01*
X9562596Y-8891099D01*
X9563507Y-8881850D01*
X9563507Y-8847350D01*
X9562596Y-8838101D01*
X9559899Y-8829208D01*
X9555518Y-8821012D01*
X9549622Y-8813828D01*
X9542438Y-8807932D01*
X9534242Y-8803552D01*
X9525349Y-8800854D01*
X9516100Y-8799943D01*
X9486600Y-8799943D01*
X9477351Y-8800854D01*
X9468458Y-8803552D01*
X9460262Y-8807932D01*
X9453078Y-8813828D01*
X9452850Y-8814106D01*
X9452622Y-8813828D01*
X9445438Y-8807932D01*
X9437242Y-8803552D01*
X9428349Y-8800854D01*
X9419100Y-8799943D01*
X9389600Y-8799943D01*
X9380351Y-8800854D01*
X9371458Y-8803552D01*
X9363262Y-8807932D01*
X9356078Y-8813828D01*
X9350182Y-8821012D01*
X9349066Y-8823100D01*
X9307234Y-8823100D01*
X9306118Y-8821012D01*
X9300222Y-8813828D01*
X9293038Y-8807932D01*
X9284842Y-8803552D01*
X9275949Y-8800854D01*
X9266700Y-8799943D01*
X9237200Y-8799943D01*
X9227951Y-8800854D01*
X9219058Y-8803552D01*
X9212152Y-8807243D01*
X9211095Y-8805955D01*
X9205385Y-8801269D01*
X9198870Y-8797787D01*
X9191801Y-8795643D01*
X9184450Y-8794919D01*
X9171825Y-8795100D01*
X9162450Y-8804475D01*
X9147450Y-8804475D01*
X9138075Y-8795100D01*
X9125450Y-8794919D01*
X9118099Y-8795643D01*
X9111030Y-8797787D01*
X9104515Y-8801269D01*
X9098805Y-8805955D01*
X9094119Y-8811665D01*
X9090637Y-8818180D01*
X9088493Y-8825249D01*
X9087769Y-8832600D01*
X9037500Y-8832600D01*
X9037500Y-8737500D01*
X10223078Y-8737500D01*
X10221527Y-8738774D01*
G04 #@! TA.AperFunction,Conductor*
D19*
G36*
X10221527Y-8738774D02*
G01*
X10221526Y-8738774D01*
X10219943Y-8740073D01*
X10218644Y-8741656D01*
X10036056Y-8924244D01*
X10034473Y-8925543D01*
X10033174Y-8927126D01*
X10033174Y-8927127D01*
X10029287Y-8931862D01*
X10025434Y-8939072D01*
X10024131Y-8943367D01*
X10023061Y-8946895D01*
X10022460Y-8952991D01*
X10022460Y-8952992D01*
X10022259Y-8955030D01*
X10022460Y-8957068D01*
X10022460Y-8970071D01*
X10001200Y-8991331D01*
X9941207Y-8931338D01*
X9935122Y-8926344D01*
X9928179Y-8922633D01*
X9920646Y-8920348D01*
X9912812Y-8919576D01*
X9904977Y-8920348D01*
X9897444Y-8922633D01*
X9890502Y-8926344D01*
X9884416Y-8931338D01*
X9873810Y-8941945D01*
X9868816Y-8948030D01*
X9865105Y-8954973D01*
X9864286Y-8957672D01*
X9859994Y-8958036D01*
X9852897Y-8960086D01*
X9846336Y-8963480D01*
X9841659Y-8967246D01*
X9841659Y-8980505D01*
X9892482Y-9031328D01*
X9893897Y-9029914D01*
X9904503Y-9040520D01*
X9903089Y-9041935D01*
X9904503Y-9043349D01*
X9893897Y-9053956D01*
X9892482Y-9052541D01*
X9891068Y-9053956D01*
X9880462Y-9043349D01*
X9881876Y-9041935D01*
X9831052Y-8991111D01*
X9817794Y-8991111D01*
X9814028Y-8995789D01*
X9810633Y-9002350D01*
X9808584Y-9009446D01*
X9808219Y-9013738D01*
X9805520Y-9014557D01*
X9798578Y-9018268D01*
X9795882Y-9020480D01*
X9545558Y-9020480D01*
X9543520Y-9020279D01*
X9541482Y-9020480D01*
X9541481Y-9020480D01*
X9535385Y-9021081D01*
X9527562Y-9023454D01*
X9520352Y-9027307D01*
X9515617Y-9031194D01*
X9515616Y-9031194D01*
X9514033Y-9032493D01*
X9512734Y-9034076D01*
X9496651Y-9050159D01*
X9494386Y-9049472D01*
X9485137Y-9048561D01*
X9475888Y-9049472D01*
X9466995Y-9052169D01*
X9458799Y-9056550D01*
X9451615Y-9062446D01*
X9430755Y-9083306D01*
X9424860Y-9090490D01*
X9420479Y-9098686D01*
X9418206Y-9106180D01*
X9416548Y-9106016D01*
X9409196Y-9106740D01*
X9402127Y-9108885D01*
X9395613Y-9112367D01*
X9389903Y-9117053D01*
X9381104Y-9126108D01*
X9381104Y-9139367D01*
X9418315Y-9176578D01*
X9419730Y-9175164D01*
X9430336Y-9185771D01*
X9428922Y-9187185D01*
X9466133Y-9224396D01*
X9479392Y-9224396D01*
X9488447Y-9215597D01*
X9493133Y-9209887D01*
X9496615Y-9203373D01*
X9498760Y-9196304D01*
X9499484Y-9188953D01*
X9499321Y-9187295D01*
X9506815Y-9185021D01*
X9515011Y-9180640D01*
X9522195Y-9174745D01*
X9543054Y-9153885D01*
X9548950Y-9146701D01*
X9553331Y-9138505D01*
X9556028Y-9129612D01*
X9556939Y-9120363D01*
X9556028Y-9111114D01*
X9555341Y-9108849D01*
X9560710Y-9103480D01*
X9724630Y-9103480D01*
X9724593Y-9103855D01*
X9721130Y-9104196D01*
X9713596Y-9106481D01*
X9706654Y-9110192D01*
X9700569Y-9115186D01*
X9689962Y-9125792D01*
X9684968Y-9131878D01*
X9681257Y-9138820D01*
X9678972Y-9146354D01*
X9678631Y-9149816D01*
X9675168Y-9150158D01*
X9667635Y-9152443D01*
X9660692Y-9156154D01*
X9654607Y-9161148D01*
X9644000Y-9171754D01*
X9639006Y-9177840D01*
X9635295Y-9184782D01*
X9633010Y-9192315D01*
X9632669Y-9195778D01*
X9629206Y-9196120D01*
X9621673Y-9198405D01*
X9614730Y-9202116D01*
X9608645Y-9207110D01*
X9598038Y-9217716D01*
X9593044Y-9223802D01*
X9589333Y-9230744D01*
X9587048Y-9238277D01*
X9586276Y-9246112D01*
X9587048Y-9253946D01*
X9589333Y-9261479D01*
X9593044Y-9268422D01*
X9598038Y-9274507D01*
X9658031Y-9334500D01*
X9598038Y-9394493D01*
X9593044Y-9400578D01*
X9589333Y-9407521D01*
X9587048Y-9415054D01*
X9586276Y-9422888D01*
X9587048Y-9430723D01*
X9589333Y-9438256D01*
X9593044Y-9445198D01*
X9598038Y-9451284D01*
X9608645Y-9461890D01*
X9614730Y-9466884D01*
X9621673Y-9470595D01*
X9629206Y-9472881D01*
X9632669Y-9473222D01*
X9633010Y-9476685D01*
X9635295Y-9484218D01*
X9639006Y-9491160D01*
X9644000Y-9497246D01*
X9654607Y-9507852D01*
X9660692Y-9512846D01*
X9667635Y-9516557D01*
X9670333Y-9517376D01*
X9670698Y-9521668D01*
X9672748Y-9528765D01*
X9676142Y-9535326D01*
X9679908Y-9540003D01*
X9693166Y-9540003D01*
X9686537Y-9546632D01*
X9688655Y-9548750D01*
X9522013Y-9548750D01*
X9517788Y-9545282D01*
X9509592Y-9540902D01*
X9500699Y-9538204D01*
X9491450Y-9537293D01*
X9479933Y-9537293D01*
X9386457Y-9443817D01*
X9386457Y-9423100D01*
X9385546Y-9413851D01*
X9382849Y-9404958D01*
X9379157Y-9398052D01*
X9380445Y-9396995D01*
X9385131Y-9391285D01*
X9388613Y-9384770D01*
X9390757Y-9377701D01*
X9391481Y-9370350D01*
X9391300Y-9357725D01*
X9381925Y-9348350D01*
X9329300Y-9348350D01*
X9329300Y-9350350D01*
X9314300Y-9350350D01*
X9314300Y-9348350D01*
X9261675Y-9348350D01*
X9252300Y-9357725D01*
X9252119Y-9370350D01*
X9252843Y-9377701D01*
X9254987Y-9384770D01*
X9258469Y-9391285D01*
X9263155Y-9396995D01*
X9264443Y-9398052D01*
X9260752Y-9404958D01*
X9258054Y-9413851D01*
X9257143Y-9423100D01*
X9257143Y-9452600D01*
X9258054Y-9461849D01*
X9260752Y-9470742D01*
X9265132Y-9478938D01*
X9271028Y-9486122D01*
X9278212Y-9492018D01*
X9286408Y-9496399D01*
X9295301Y-9499096D01*
X9304550Y-9500007D01*
X9325267Y-9500007D01*
X9409580Y-9584320D01*
X9409543Y-9584700D01*
X9409543Y-9614200D01*
X9410454Y-9623449D01*
X9413152Y-9632342D01*
X9417532Y-9640538D01*
X9423428Y-9647722D01*
X9423706Y-9647950D01*
X9423428Y-9648178D01*
X9417532Y-9655362D01*
X9413152Y-9663558D01*
X9410454Y-9672451D01*
X9409543Y-9681700D01*
X9409543Y-9702417D01*
X9314147Y-9797813D01*
X9312563Y-9799113D01*
X9311264Y-9800697D01*
X9307377Y-9805432D01*
X9303731Y-9812255D01*
X9303524Y-9812642D01*
X9301151Y-9820465D01*
X9300550Y-9826561D01*
X9300550Y-9826562D01*
X9300349Y-9828600D01*
X9300550Y-9830638D01*
X9300550Y-10011321D01*
X9300349Y-10013360D01*
X9300550Y-10015399D01*
X9300774Y-10017669D01*
X9301151Y-10021495D01*
X9303524Y-10029318D01*
X9307377Y-10036528D01*
X9311264Y-10041263D01*
X9311264Y-10041264D01*
X9312563Y-10042847D01*
X9314146Y-10044146D01*
X9362850Y-10092850D01*
X9362850Y-10113526D01*
X9357785Y-10109369D01*
X9351270Y-10105887D01*
X9344201Y-10103743D01*
X9336850Y-10103019D01*
X9324225Y-10103200D01*
X9314850Y-10112575D01*
X9314850Y-10165200D01*
X9316850Y-10165200D01*
X9316850Y-10180200D01*
X9314850Y-10180200D01*
X9314850Y-10232825D01*
X9324225Y-10242200D01*
X9336850Y-10242381D01*
X9344201Y-10241657D01*
X9351270Y-10239513D01*
X9357785Y-10236031D01*
X9362850Y-10231874D01*
X9362850Y-10277190D01*
X9359535Y-10274469D01*
X9353020Y-10270987D01*
X9345951Y-10268843D01*
X9338600Y-10268119D01*
X9325975Y-10268300D01*
X9316600Y-10277675D01*
X9316600Y-10330300D01*
X9318600Y-10330300D01*
X9318600Y-10345300D01*
X9316600Y-10345300D01*
X9316600Y-10397925D01*
X9325975Y-10407300D01*
X9338600Y-10407481D01*
X9345951Y-10406757D01*
X9353020Y-10404613D01*
X9359535Y-10401131D01*
X9365245Y-10396445D01*
X9366302Y-10395157D01*
X9373208Y-10398849D01*
X9382101Y-10401546D01*
X9391350Y-10402457D01*
X9420850Y-10402457D01*
X9430099Y-10401546D01*
X9438992Y-10398849D01*
X9447188Y-10394468D01*
X9454372Y-10388572D01*
X9460268Y-10381388D01*
X9464649Y-10373192D01*
X9467346Y-10364299D01*
X9468257Y-10355050D01*
X9468257Y-10320550D01*
X9467346Y-10311301D01*
X9464649Y-10302408D01*
X9460268Y-10294212D01*
X9454372Y-10287028D01*
X9447188Y-10281132D01*
X9445850Y-10280417D01*
X9445850Y-10229030D01*
X9452622Y-10223472D01*
X9458518Y-10216288D01*
X9462899Y-10208092D01*
X9465596Y-10199199D01*
X9466507Y-10189950D01*
X9466507Y-10155450D01*
X9465596Y-10146201D01*
X9462899Y-10137308D01*
X9458518Y-10129112D01*
X9452622Y-10121928D01*
X9446812Y-10117160D01*
X9593703Y-10117160D01*
X9590952Y-10122308D01*
X9588254Y-10131201D01*
X9587343Y-10140450D01*
X9587343Y-10169950D01*
X9588254Y-10179199D01*
X9590952Y-10188092D01*
X9595332Y-10196288D01*
X9601228Y-10203472D01*
X9608412Y-10209368D01*
X9616608Y-10213749D01*
X9625501Y-10216446D01*
X9634750Y-10217357D01*
X9669250Y-10217357D01*
X9678499Y-10216446D01*
X9687392Y-10213749D01*
X9695588Y-10209368D01*
X9702772Y-10203472D01*
X9708330Y-10196700D01*
X9729483Y-10196700D01*
X9731450Y-10206586D01*
X9738422Y-10223420D01*
X9748545Y-10238570D01*
X9761430Y-10251455D01*
X9776580Y-10261578D01*
X9793414Y-10268550D01*
X9811284Y-10272105D01*
X9829505Y-10272105D01*
X9847376Y-10268550D01*
X9864210Y-10261578D01*
X9879360Y-10251455D01*
X9892244Y-10238570D01*
X9902367Y-10223420D01*
X9909340Y-10206586D01*
X9910934Y-10198574D01*
X10017933Y-10305573D01*
X10016533Y-10307279D01*
X10011494Y-10316706D01*
X10008391Y-10326936D01*
X10007343Y-10337575D01*
X10007343Y-10388825D01*
X10008391Y-10399464D01*
X10011494Y-10409694D01*
X10016533Y-10419122D01*
X10023315Y-10427385D01*
X10031579Y-10434167D01*
X10041006Y-10439206D01*
X10051236Y-10442309D01*
X10061875Y-10443357D01*
X10105625Y-10443357D01*
X10116264Y-10442309D01*
X10126494Y-10439206D01*
X10135922Y-10434167D01*
X10144185Y-10427385D01*
X10150967Y-10419122D01*
X10156006Y-10409694D01*
X10157521Y-10404700D01*
X10317543Y-10404700D01*
X10317543Y-10407450D01*
X10318454Y-10416699D01*
X10321152Y-10425592D01*
X10325532Y-10433788D01*
X10331428Y-10440972D01*
X10338612Y-10446868D01*
X10346808Y-10451249D01*
X10355701Y-10453946D01*
X10364950Y-10454857D01*
X10399450Y-10454857D01*
X10408699Y-10453946D01*
X10417592Y-10451249D01*
X10425788Y-10446868D01*
X10432972Y-10440972D01*
X10438868Y-10433788D01*
X10443249Y-10425592D01*
X10445946Y-10416699D01*
X10446857Y-10407450D01*
X10446857Y-10386733D01*
X10581743Y-10251847D01*
X10583327Y-10250547D01*
X10588513Y-10244228D01*
X10592367Y-10237018D01*
X10594740Y-10229195D01*
X10595340Y-10223099D01*
X10595340Y-10223098D01*
X10595541Y-10221060D01*
X10595340Y-10219022D01*
X10595340Y-10201640D01*
X10607792Y-10201640D01*
X10609830Y-10201841D01*
X10611868Y-10201640D01*
X10611869Y-10201640D01*
X10613290Y-10201500D01*
X10615508Y-10201500D01*
X10622918Y-10212591D01*
X10630774Y-10220447D01*
X10622316Y-10228074D01*
X10612063Y-10241825D01*
X10604690Y-10257313D01*
X10602069Y-10265955D01*
X10609236Y-10279500D01*
X10679500Y-10279500D01*
X10679500Y-10277500D01*
X10694500Y-10277500D01*
X10694500Y-10279500D01*
X10696500Y-10279500D01*
X10696500Y-10294500D01*
X10694500Y-10294500D01*
X10694500Y-10296500D01*
X10679500Y-10296500D01*
X10679500Y-10294500D01*
X10609236Y-10294500D01*
X10602069Y-10308045D01*
X10604690Y-10316687D01*
X10612063Y-10332175D01*
X10622316Y-10345926D01*
X10630774Y-10353553D01*
X10622918Y-10361409D01*
X10613889Y-10374922D01*
X10607670Y-10389936D01*
X10604500Y-10405875D01*
X10604500Y-10422126D01*
X10607670Y-10438064D01*
X10613889Y-10453078D01*
X10622918Y-10466591D01*
X10633827Y-10477500D01*
X10622918Y-10488409D01*
X10613889Y-10501922D01*
X10607670Y-10516936D01*
X10604500Y-10532875D01*
X10604500Y-10549126D01*
X10607670Y-10565064D01*
X10613889Y-10580078D01*
X10614251Y-10580620D01*
X10537710Y-10580620D01*
X10517187Y-10560097D01*
X10515887Y-10558513D01*
X10509568Y-10553327D01*
X10502358Y-10549474D01*
X10494535Y-10547101D01*
X10488439Y-10546500D01*
X10488438Y-10546500D01*
X10486400Y-10546299D01*
X10484362Y-10546500D01*
X10101859Y-10546500D01*
X10099820Y-10546299D01*
X10097781Y-10546500D01*
X10091685Y-10547101D01*
X10083862Y-10549474D01*
X10076652Y-10553327D01*
X10070333Y-10558513D01*
X10065147Y-10564832D01*
X10061294Y-10572042D01*
X10058921Y-10579865D01*
X10058673Y-10582375D01*
X10049911Y-10582375D01*
X10043540Y-10583002D01*
X10037414Y-10584861D01*
X10031768Y-10587879D01*
X10026819Y-10591940D01*
X10022758Y-10596889D01*
X10019740Y-10602535D01*
X10017881Y-10608661D01*
X10017254Y-10615032D01*
X10017254Y-10864968D01*
X10017881Y-10871339D01*
X10019740Y-10877465D01*
X10022758Y-10883111D01*
X10026819Y-10888060D01*
X10031768Y-10892122D01*
X10037414Y-10895139D01*
X10043540Y-10896998D01*
X10049911Y-10897625D01*
X10149733Y-10897625D01*
X10156104Y-10896998D01*
X10162230Y-10895139D01*
X10167876Y-10892122D01*
X10172825Y-10888060D01*
X10176887Y-10883111D01*
X10179904Y-10877465D01*
X10181763Y-10871339D01*
X10182390Y-10864968D01*
X10182390Y-10629500D01*
X10217406Y-10629500D01*
X10217406Y-10864968D01*
X10218033Y-10871339D01*
X10219892Y-10877465D01*
X10222910Y-10883111D01*
X10226971Y-10888060D01*
X10231920Y-10892122D01*
X10237566Y-10895139D01*
X10243692Y-10896998D01*
X10250063Y-10897625D01*
X10349885Y-10897625D01*
X10356256Y-10896998D01*
X10362382Y-10895139D01*
X10368028Y-10892122D01*
X10372977Y-10888060D01*
X10377039Y-10883111D01*
X10380056Y-10877465D01*
X10381915Y-10871339D01*
X10382542Y-10864968D01*
X10382542Y-10781500D01*
X10658512Y-10781500D01*
X10660550Y-10781701D01*
X10662588Y-10781500D01*
X10662589Y-10781500D01*
X10668685Y-10780900D01*
X10676508Y-10778527D01*
X10683718Y-10774673D01*
X10690037Y-10769487D01*
X10691337Y-10767903D01*
X10888383Y-10570857D01*
X10889967Y-10569557D01*
X10895153Y-10563238D01*
X10899007Y-10556028D01*
X10901380Y-10548205D01*
X10901980Y-10542109D01*
X10901980Y-10542108D01*
X10902181Y-10540070D01*
X10901980Y-10538032D01*
X10901980Y-9960593D01*
X10902181Y-9958554D01*
X10901722Y-9953895D01*
X10901380Y-9950419D01*
X10899007Y-9942596D01*
X10895153Y-9935386D01*
X10894454Y-9934535D01*
X10891267Y-9930651D01*
X10891266Y-9930650D01*
X10889967Y-9929067D01*
X10888384Y-9927768D01*
X10830150Y-9869534D01*
X10830150Y-9685965D01*
X10857500Y-9685965D01*
X10857500Y-9714035D01*
X10862976Y-9741566D01*
X10873718Y-9767499D01*
X10889313Y-9790839D01*
X10909162Y-9810687D01*
X10932501Y-9826282D01*
X10958434Y-9837024D01*
X10985965Y-9842500D01*
X11014035Y-9842500D01*
X11041566Y-9837024D01*
X11067499Y-9826282D01*
X11090839Y-9810687D01*
X11110687Y-9790839D01*
X11126282Y-9767499D01*
X11137024Y-9741566D01*
X11142500Y-9714035D01*
X11142500Y-9685965D01*
X11137024Y-9658434D01*
X11126282Y-9632501D01*
X11110687Y-9609162D01*
X11090839Y-9589313D01*
X11067499Y-9573718D01*
X11041566Y-9562976D01*
X11014035Y-9557500D01*
X10985965Y-9557500D01*
X10958434Y-9562976D01*
X10932501Y-9573718D01*
X10909162Y-9589313D01*
X10889313Y-9609162D01*
X10873718Y-9632501D01*
X10862976Y-9658434D01*
X10857500Y-9685965D01*
X10830150Y-9685965D01*
X10830150Y-9525723D01*
X10962500Y-9393373D01*
X10962500Y-9451842D01*
X10963043Y-9457351D01*
X10965187Y-9464420D01*
X10968669Y-9470935D01*
X10973355Y-9476645D01*
X10979065Y-9481331D01*
X10985580Y-9484813D01*
X10992649Y-9486957D01*
X11000000Y-9487681D01*
X11000008Y-9487681D01*
X11041240Y-9491723D01*
X11080909Y-9503700D01*
X11117496Y-9523154D01*
X11149608Y-9549344D01*
X11176021Y-9581272D01*
X11195730Y-9617723D01*
X11207983Y-9657307D01*
X11212315Y-9698518D01*
X11208559Y-9739785D01*
X11196860Y-9779537D01*
X11177662Y-9816259D01*
X11151697Y-9848552D01*
X11119954Y-9875188D01*
X11083642Y-9895151D01*
X11044144Y-9907680D01*
X11001488Y-9912465D01*
X11000000Y-9912319D01*
X10992649Y-9913043D01*
X10985580Y-9915187D01*
X10979065Y-9918669D01*
X10973355Y-9923355D01*
X10968669Y-9929065D01*
X10965187Y-9935580D01*
X10963043Y-9942649D01*
X10962500Y-9948158D01*
X10962500Y-11232500D01*
X9037500Y-11232500D01*
X9037500Y-10927198D01*
X9287512Y-10927198D01*
X9287512Y-11177134D01*
X9288139Y-11183505D01*
X9289998Y-11189631D01*
X9293016Y-11195277D01*
X9297077Y-11200226D01*
X9302026Y-11204287D01*
X9307672Y-11207305D01*
X9313798Y-11209164D01*
X9320169Y-11209791D01*
X9520067Y-11209791D01*
X9526438Y-11209164D01*
X9532564Y-11207305D01*
X9538210Y-11204287D01*
X9543159Y-11200226D01*
X9547221Y-11195277D01*
X9550238Y-11189631D01*
X9552097Y-11183505D01*
X9552724Y-11177134D01*
X9552724Y-10927198D01*
X10447276Y-10927198D01*
X10447276Y-11177134D01*
X10447903Y-11183505D01*
X10449762Y-11189631D01*
X10452780Y-11195277D01*
X10456841Y-11200226D01*
X10461790Y-11204287D01*
X10467436Y-11207305D01*
X10473562Y-11209164D01*
X10479933Y-11209791D01*
X10679831Y-11209791D01*
X10686202Y-11209164D01*
X10692328Y-11207305D01*
X10697974Y-11204287D01*
X10702923Y-11200226D01*
X10706985Y-11195277D01*
X10710002Y-11189631D01*
X10711861Y-11183505D01*
X10712488Y-11177134D01*
X10712488Y-10927198D01*
X10711861Y-10920827D01*
X10710002Y-10914701D01*
X10706985Y-10909055D01*
X10702923Y-10904106D01*
X10697974Y-10900045D01*
X10692328Y-10897027D01*
X10686202Y-10895168D01*
X10679831Y-10894541D01*
X10479933Y-10894541D01*
X10473562Y-10895168D01*
X10467436Y-10897027D01*
X10461790Y-10900045D01*
X10456841Y-10904106D01*
X10452780Y-10909055D01*
X10449762Y-10914701D01*
X10447903Y-10920827D01*
X10447276Y-10927198D01*
X9552724Y-10927198D01*
X9552097Y-10920827D01*
X9550238Y-10914701D01*
X9547221Y-10909055D01*
X9543159Y-10904106D01*
X9538210Y-10900045D01*
X9532564Y-10897027D01*
X9526438Y-10895168D01*
X9520067Y-10894541D01*
X9320169Y-10894541D01*
X9313798Y-10895168D01*
X9307672Y-10897027D01*
X9302026Y-10900045D01*
X9297077Y-10904106D01*
X9293016Y-10909055D01*
X9289998Y-10914701D01*
X9288139Y-10920827D01*
X9287512Y-10927198D01*
X9037500Y-10927198D01*
X9037500Y-10864968D01*
X9612434Y-10864968D01*
X9613158Y-10872319D01*
X9615302Y-10879388D01*
X9618784Y-10885903D01*
X9623470Y-10891613D01*
X9629180Y-10896299D01*
X9635695Y-10899781D01*
X9642764Y-10901925D01*
X9650115Y-10902649D01*
X9683151Y-10902468D01*
X9692526Y-10893093D01*
X9692526Y-10747500D01*
X9707526Y-10747500D01*
X9707526Y-10893093D01*
X9716901Y-10902468D01*
X9749937Y-10902649D01*
X9757288Y-10901925D01*
X9764357Y-10899781D01*
X9770872Y-10896299D01*
X9776582Y-10891613D01*
X9781268Y-10885903D01*
X9784750Y-10879388D01*
X9786894Y-10872319D01*
X9787618Y-10864968D01*
X9787437Y-10756875D01*
X9778062Y-10747500D01*
X9707526Y-10747500D01*
X9692526Y-10747500D01*
X9621990Y-10747500D01*
X9612615Y-10756875D01*
X9612434Y-10864968D01*
X9037500Y-10864968D01*
X9037500Y-10615032D01*
X9612434Y-10615032D01*
X9612615Y-10723125D01*
X9621990Y-10732500D01*
X9692526Y-10732500D01*
X9692526Y-10586907D01*
X9707526Y-10586907D01*
X9707526Y-10732500D01*
X9778062Y-10732500D01*
X9787437Y-10723125D01*
X9787618Y-10615032D01*
X9817610Y-10615032D01*
X9817610Y-10864968D01*
X9818237Y-10871339D01*
X9820096Y-10877465D01*
X9823114Y-10883111D01*
X9827175Y-10888060D01*
X9832124Y-10892122D01*
X9837770Y-10895139D01*
X9843896Y-10896998D01*
X9850267Y-10897625D01*
X9950089Y-10897625D01*
X9956460Y-10896998D01*
X9962586Y-10895139D01*
X9968232Y-10892122D01*
X9973181Y-10888060D01*
X9977243Y-10883111D01*
X9980260Y-10877465D01*
X9982119Y-10871339D01*
X9982746Y-10864968D01*
X9982746Y-10615032D01*
X9982119Y-10608661D01*
X9980260Y-10602535D01*
X9977243Y-10596889D01*
X9973181Y-10591940D01*
X9968232Y-10587879D01*
X9962586Y-10584861D01*
X9956460Y-10583002D01*
X9950089Y-10582375D01*
X9941680Y-10582375D01*
X9941680Y-10443357D01*
X9948125Y-10443357D01*
X9958764Y-10442309D01*
X9968994Y-10439206D01*
X9978422Y-10434167D01*
X9986685Y-10427385D01*
X9993467Y-10419122D01*
X9998506Y-10409694D01*
X10001609Y-10399464D01*
X10002657Y-10388825D01*
X10002657Y-10337575D01*
X10001609Y-10326936D01*
X9998506Y-10316706D01*
X9993467Y-10307279D01*
X9986685Y-10299015D01*
X9978422Y-10292233D01*
X9968994Y-10287194D01*
X9958764Y-10284091D01*
X9948125Y-10283043D01*
X9904375Y-10283043D01*
X9893736Y-10284091D01*
X9883506Y-10287194D01*
X9874079Y-10292233D01*
X9865815Y-10299015D01*
X9859033Y-10307279D01*
X9853994Y-10316706D01*
X9850891Y-10326936D01*
X9849843Y-10337575D01*
X9849843Y-10388825D01*
X9850891Y-10399464D01*
X9853994Y-10409694D01*
X9858680Y-10418461D01*
X9858680Y-10582375D01*
X9850267Y-10582375D01*
X9843896Y-10583002D01*
X9837770Y-10584861D01*
X9832124Y-10587879D01*
X9827175Y-10591940D01*
X9823114Y-10596889D01*
X9820096Y-10602535D01*
X9818237Y-10608661D01*
X9817610Y-10615032D01*
X9787618Y-10615032D01*
X9786894Y-10607681D01*
X9784750Y-10600612D01*
X9781268Y-10594097D01*
X9776582Y-10588387D01*
X9770872Y-10583701D01*
X9764357Y-10580219D01*
X9757288Y-10578075D01*
X9749937Y-10577351D01*
X9716901Y-10577532D01*
X9707526Y-10586907D01*
X9692526Y-10586907D01*
X9683151Y-10577532D01*
X9650115Y-10577351D01*
X9642764Y-10578075D01*
X9635695Y-10580219D01*
X9629180Y-10583701D01*
X9623470Y-10588387D01*
X9618784Y-10594097D01*
X9615302Y-10600612D01*
X9613158Y-10607681D01*
X9612434Y-10615032D01*
X9037500Y-10615032D01*
X9037500Y-10369800D01*
X9241919Y-10369800D01*
X9242643Y-10377151D01*
X9244787Y-10384220D01*
X9248269Y-10390735D01*
X9252955Y-10396445D01*
X9258665Y-10401131D01*
X9265180Y-10404613D01*
X9272249Y-10406757D01*
X9279600Y-10407481D01*
X9292225Y-10407300D01*
X9301600Y-10397925D01*
X9301600Y-10345300D01*
X9251475Y-10345300D01*
X9242100Y-10354675D01*
X9241919Y-10369800D01*
X9037500Y-10369800D01*
X9037500Y-10305800D01*
X9241919Y-10305800D01*
X9242100Y-10320925D01*
X9251475Y-10330300D01*
X9301600Y-10330300D01*
X9301600Y-10277675D01*
X9292225Y-10268300D01*
X9279600Y-10268119D01*
X9272249Y-10268843D01*
X9265180Y-10270987D01*
X9258665Y-10274469D01*
X9252955Y-10279155D01*
X9248269Y-10284865D01*
X9244787Y-10291380D01*
X9242643Y-10298449D01*
X9241919Y-10305800D01*
X9037500Y-10305800D01*
X9037500Y-10204700D01*
X9240169Y-10204700D01*
X9240893Y-10212051D01*
X9243037Y-10219120D01*
X9246519Y-10225635D01*
X9251205Y-10231345D01*
X9256915Y-10236031D01*
X9263430Y-10239513D01*
X9270499Y-10241657D01*
X9277850Y-10242381D01*
X9290475Y-10242200D01*
X9299850Y-10232825D01*
X9299850Y-10180200D01*
X9249725Y-10180200D01*
X9240350Y-10189575D01*
X9240169Y-10204700D01*
X9037500Y-10204700D01*
X9037500Y-10140700D01*
X9240169Y-10140700D01*
X9240350Y-10155825D01*
X9249725Y-10165200D01*
X9299850Y-10165200D01*
X9299850Y-10112575D01*
X9290475Y-10103200D01*
X9277850Y-10103019D01*
X9270499Y-10103743D01*
X9263430Y-10105887D01*
X9256915Y-10109369D01*
X9251205Y-10114055D01*
X9246519Y-10119765D01*
X9243037Y-10126280D01*
X9240893Y-10133349D01*
X9240169Y-10140700D01*
X9037500Y-10140700D01*
X9037500Y-9948158D01*
X9036957Y-9942649D01*
X9034813Y-9935580D01*
X9031331Y-9929065D01*
X9026645Y-9923355D01*
X9020935Y-9918669D01*
X9014420Y-9915187D01*
X9007351Y-9913043D01*
X9000000Y-9912319D01*
X8999992Y-9912319D01*
X8958760Y-9908277D01*
X8919091Y-9896300D01*
X8882504Y-9876846D01*
X8850392Y-9850656D01*
X8823978Y-9818728D01*
X8804270Y-9782277D01*
X8792017Y-9742693D01*
X8787685Y-9701482D01*
X8789097Y-9685965D01*
X8857500Y-9685965D01*
X8857500Y-9714035D01*
X8862976Y-9741566D01*
X8873718Y-9767499D01*
X8889313Y-9790839D01*
X8909162Y-9810687D01*
X8932501Y-9826282D01*
X8958434Y-9837024D01*
X8985965Y-9842500D01*
X9014035Y-9842500D01*
X9041566Y-9837024D01*
X9067499Y-9826282D01*
X9090839Y-9810687D01*
X9110687Y-9790839D01*
X9126282Y-9767499D01*
X9137024Y-9741566D01*
X9142500Y-9714035D01*
X9142500Y-9685965D01*
X9137024Y-9658434D01*
X9126282Y-9632501D01*
X9110687Y-9609162D01*
X9090839Y-9589313D01*
X9067499Y-9573718D01*
X9041566Y-9562976D01*
X9014035Y-9557500D01*
X8985965Y-9557500D01*
X8958434Y-9562976D01*
X8932501Y-9573718D01*
X8909162Y-9589313D01*
X8889313Y-9609162D01*
X8873718Y-9632501D01*
X8862976Y-9658434D01*
X8857500Y-9685965D01*
X8789097Y-9685965D01*
X8791441Y-9660215D01*
X8803140Y-9620463D01*
X8822338Y-9583741D01*
X8848303Y-9551447D01*
X8880046Y-9524812D01*
X8916358Y-9504849D01*
X8955856Y-9492320D01*
X8998513Y-9487535D01*
X9000000Y-9487681D01*
X9007351Y-9486957D01*
X9014420Y-9484813D01*
X9020935Y-9481331D01*
X9026645Y-9476645D01*
X9031331Y-9470935D01*
X9034813Y-9464420D01*
X9036957Y-9457351D01*
X9037500Y-9451842D01*
X9037500Y-9311350D01*
X9252119Y-9311350D01*
X9252300Y-9323975D01*
X9261675Y-9333350D01*
X9314300Y-9333350D01*
X9314300Y-9283225D01*
X9329300Y-9283225D01*
X9329300Y-9333350D01*
X9381925Y-9333350D01*
X9391300Y-9323975D01*
X9391481Y-9311350D01*
X9390757Y-9303999D01*
X9388613Y-9296930D01*
X9385131Y-9290415D01*
X9380445Y-9284705D01*
X9374735Y-9280019D01*
X9368220Y-9276537D01*
X9361151Y-9274393D01*
X9353800Y-9273669D01*
X9338675Y-9273850D01*
X9329300Y-9283225D01*
X9314300Y-9283225D01*
X9304925Y-9273850D01*
X9289800Y-9273669D01*
X9282449Y-9274393D01*
X9275380Y-9276537D01*
X9268865Y-9280019D01*
X9263155Y-9284705D01*
X9258469Y-9290415D01*
X9254987Y-9296930D01*
X9252843Y-9303999D01*
X9252119Y-9311350D01*
X9037500Y-9311350D01*
X9037500Y-9233235D01*
X9382872Y-9233235D01*
X9382872Y-9246493D01*
X9393438Y-9257317D01*
X9399148Y-9262003D01*
X9405663Y-9265485D01*
X9412732Y-9267629D01*
X9420083Y-9268353D01*
X9427434Y-9267629D01*
X9434503Y-9265485D01*
X9441018Y-9262003D01*
X9446728Y-9257317D01*
X9455527Y-9248261D01*
X9455527Y-9235003D01*
X9418315Y-9197791D01*
X9382872Y-9233235D01*
X9037500Y-9233235D01*
X9037500Y-9185417D01*
X9337147Y-9185417D01*
X9337871Y-9192768D01*
X9340015Y-9199837D01*
X9343497Y-9206352D01*
X9348184Y-9212062D01*
X9359007Y-9222628D01*
X9372265Y-9222628D01*
X9407709Y-9187185D01*
X9370497Y-9149973D01*
X9357239Y-9149973D01*
X9348184Y-9158772D01*
X9343497Y-9164482D01*
X9340015Y-9170997D01*
X9337871Y-9178066D01*
X9337147Y-9185417D01*
X9037500Y-9185417D01*
X9037500Y-8896600D01*
X9087769Y-8896600D01*
X9088493Y-8903951D01*
X9090637Y-8911020D01*
X9094119Y-8917535D01*
X9098805Y-8923245D01*
X9104515Y-8927931D01*
X9111030Y-8931413D01*
X9118099Y-8933557D01*
X9125450Y-8934281D01*
X9138075Y-8934100D01*
X9147450Y-8924725D01*
X9147450Y-8872100D01*
X9097325Y-8872100D01*
X9087950Y-8881475D01*
X9087769Y-8896600D01*
X9037500Y-8896600D01*
X9037500Y-8832600D01*
X9087769Y-8832600D01*
X9087950Y-8847725D01*
X9097325Y-8857100D01*
X9147450Y-8857100D01*
X9147450Y-8804475D01*
X9162450Y-8804475D01*
X9162450Y-8857100D01*
X9164450Y-8857100D01*
X9164450Y-8872100D01*
X9162450Y-8872100D01*
X9162450Y-8924725D01*
X9171825Y-8934100D01*
X9184450Y-8934281D01*
X9191801Y-8933557D01*
X9198870Y-8931413D01*
X9205385Y-8927931D01*
X9211095Y-8923245D01*
X9212152Y-8921957D01*
X9219058Y-8925649D01*
X9227951Y-8928346D01*
X9237200Y-8929257D01*
X9266700Y-8929257D01*
X9275949Y-8928346D01*
X9284842Y-8925649D01*
X9293038Y-8921268D01*
X9300222Y-8915372D01*
X9306118Y-8908188D01*
X9307234Y-8906100D01*
X9349066Y-8906100D01*
X9350182Y-8908188D01*
X9356078Y-8915372D01*
X9363262Y-8921268D01*
X9371458Y-8925649D01*
X9380351Y-8928346D01*
X9389600Y-8929257D01*
X9419100Y-8929257D01*
X9428349Y-8928346D01*
X9437242Y-8925649D01*
X9445438Y-8921268D01*
X9452622Y-8915372D01*
X9452850Y-8915094D01*
X9453078Y-8915372D01*
X9459850Y-8920930D01*
X9459850Y-8929162D01*
X9459649Y-8931200D01*
X9459850Y-8933238D01*
X9459850Y-8933239D01*
X9460451Y-8939335D01*
X9462744Y-8946895D01*
X9462824Y-8947158D01*
X9466677Y-8954368D01*
X9469372Y-8957651D01*
X9470373Y-8958871D01*
X9472148Y-8967794D01*
X9476105Y-8977348D01*
X9481851Y-8985947D01*
X9489163Y-8993259D01*
X9497762Y-8999005D01*
X9507316Y-9002962D01*
X9517459Y-9004980D01*
X9527801Y-9004980D01*
X9537944Y-9002962D01*
X9547498Y-8999005D01*
X9556097Y-8993259D01*
X9563409Y-8985947D01*
X9569155Y-8977348D01*
X9573112Y-8967794D01*
X9575130Y-8957651D01*
X9575130Y-8947309D01*
X9573112Y-8937166D01*
X9569155Y-8927612D01*
X9563409Y-8919013D01*
X9556097Y-8911701D01*
X9553861Y-8910207D01*
X9555518Y-8908188D01*
X9559899Y-8899992D01*
X9562596Y-8891099D01*
X9563507Y-8881850D01*
X9563507Y-8847350D01*
X9562596Y-8838101D01*
X9559899Y-8829208D01*
X9555518Y-8821012D01*
X9549622Y-8813828D01*
X9542438Y-8807932D01*
X9534242Y-8803552D01*
X9525349Y-8800854D01*
X9516100Y-8799943D01*
X9486600Y-8799943D01*
X9477351Y-8800854D01*
X9468458Y-8803552D01*
X9460262Y-8807932D01*
X9453078Y-8813828D01*
X9452850Y-8814106D01*
X9452622Y-8813828D01*
X9445438Y-8807932D01*
X9437242Y-8803552D01*
X9428349Y-8800854D01*
X9419100Y-8799943D01*
X9389600Y-8799943D01*
X9380351Y-8800854D01*
X9371458Y-8803552D01*
X9363262Y-8807932D01*
X9356078Y-8813828D01*
X9350182Y-8821012D01*
X9349066Y-8823100D01*
X9307234Y-8823100D01*
X9306118Y-8821012D01*
X9300222Y-8813828D01*
X9293038Y-8807932D01*
X9284842Y-8803552D01*
X9275949Y-8800854D01*
X9266700Y-8799943D01*
X9237200Y-8799943D01*
X9227951Y-8800854D01*
X9219058Y-8803552D01*
X9212152Y-8807243D01*
X9211095Y-8805955D01*
X9205385Y-8801269D01*
X9198870Y-8797787D01*
X9191801Y-8795643D01*
X9184450Y-8794919D01*
X9171825Y-8795100D01*
X9162450Y-8804475D01*
X9147450Y-8804475D01*
X9138075Y-8795100D01*
X9125450Y-8794919D01*
X9118099Y-8795643D01*
X9111030Y-8797787D01*
X9104515Y-8801269D01*
X9098805Y-8805955D01*
X9094119Y-8811665D01*
X9090637Y-8818180D01*
X9088493Y-8825249D01*
X9087769Y-8832600D01*
X9037500Y-8832600D01*
X9037500Y-8737500D01*
X10223078Y-8737500D01*
X10221527Y-8738774D01*
G37*
G04 #@! TD.AperFunction*
D18*
X10003371Y-9958636D02*
X10002323Y-9969275D01*
X10002323Y-10020525D01*
X10003371Y-10031164D01*
X10006474Y-10041394D01*
X10011513Y-10050822D01*
X10018295Y-10059085D01*
X10026559Y-10065867D01*
X10035986Y-10070906D01*
X10046216Y-10074009D01*
X10056855Y-10075057D01*
X10100605Y-10075057D01*
X10111244Y-10074009D01*
X10121474Y-10070906D01*
X10130902Y-10065867D01*
X10139165Y-10059085D01*
X10145947Y-10050822D01*
X10150986Y-10041394D01*
X10152501Y-10036400D01*
X10249050Y-10036400D01*
X10249454Y-10040499D01*
X10252152Y-10049392D01*
X10256532Y-10057588D01*
X10262428Y-10064772D01*
X10269612Y-10070668D01*
X10277808Y-10075049D01*
X10286701Y-10077746D01*
X10295950Y-10078657D01*
X10325450Y-10078657D01*
X10334699Y-10077746D01*
X10343592Y-10075049D01*
X10351788Y-10070668D01*
X10358972Y-10064772D01*
X10359200Y-10064494D01*
X10359428Y-10064772D01*
X10366612Y-10070668D01*
X10374808Y-10075049D01*
X10383701Y-10077746D01*
X10392950Y-10078657D01*
X10413667Y-10078657D01*
X10512340Y-10177330D01*
X10512340Y-10203870D01*
X10445612Y-10270599D01*
X10443249Y-10262808D01*
X10438868Y-10254612D01*
X10432972Y-10247428D01*
X10425788Y-10241532D01*
X10417592Y-10237152D01*
X10408699Y-10234454D01*
X10399450Y-10233543D01*
X10378733Y-10233543D01*
X10296897Y-10151707D01*
X10295597Y-10150123D01*
X10289278Y-10144937D01*
X10282068Y-10141084D01*
X10274245Y-10138711D01*
X10268149Y-10138110D01*
X10268148Y-10138110D01*
X10266110Y-10137909D01*
X10264072Y-10138110D01*
X10262539Y-10138110D01*
X10261578Y-10135790D01*
X10251455Y-10120640D01*
X10238570Y-10107756D01*
X10223420Y-10097633D01*
X10206586Y-10090660D01*
X10188716Y-10087105D01*
X10170495Y-10087105D01*
X10152624Y-10090660D01*
X10135790Y-10097633D01*
X10120640Y-10107756D01*
X10107756Y-10120640D01*
X10097633Y-10135790D01*
X10090660Y-10152624D01*
X10087105Y-10170495D01*
X10087105Y-10188716D01*
X10090660Y-10206586D01*
X10097633Y-10223420D01*
X10107756Y-10238570D01*
X10120640Y-10251455D01*
X10135790Y-10261578D01*
X10152624Y-10268550D01*
X10170495Y-10272105D01*
X10188716Y-10272105D01*
X10206586Y-10268550D01*
X10223420Y-10261578D01*
X10238570Y-10251455D01*
X10251455Y-10238570D01*
X10257433Y-10229623D01*
X10317543Y-10289733D01*
X10317543Y-10310450D01*
X10318454Y-10319699D01*
X10319061Y-10321700D01*
X10157521Y-10321700D01*
X10156006Y-10316706D01*
X10150967Y-10307279D01*
X10144185Y-10299015D01*
X10135922Y-10292233D01*
X10126494Y-10287194D01*
X10116264Y-10284091D01*
X10113754Y-10283843D01*
X10113237Y-10283213D01*
X10111653Y-10281913D01*
X9904797Y-10075057D01*
X9943105Y-10075057D01*
X9953744Y-10074009D01*
X9963974Y-10070906D01*
X9973402Y-10065867D01*
X9981665Y-10059085D01*
X9988447Y-10050822D01*
X9993486Y-10041394D01*
X9996589Y-10031164D01*
X9997637Y-10020525D01*
X9997637Y-9969275D01*
X9996589Y-9958636D01*
X9995226Y-9954140D01*
X10004735Y-9954140D01*
X10003371Y-9958636D01*
G04 #@! TA.AperFunction,Conductor*
D19*
G36*
X10003371Y-9958636D02*
G01*
X10002323Y-9969275D01*
X10002323Y-10020525D01*
X10003371Y-10031164D01*
X10006474Y-10041394D01*
X10011513Y-10050822D01*
X10018295Y-10059085D01*
X10026559Y-10065867D01*
X10035986Y-10070906D01*
X10046216Y-10074009D01*
X10056855Y-10075057D01*
X10100605Y-10075057D01*
X10111244Y-10074009D01*
X10121474Y-10070906D01*
X10130902Y-10065867D01*
X10139165Y-10059085D01*
X10145947Y-10050822D01*
X10150986Y-10041394D01*
X10152501Y-10036400D01*
X10249050Y-10036400D01*
X10249454Y-10040499D01*
X10252152Y-10049392D01*
X10256532Y-10057588D01*
X10262428Y-10064772D01*
X10269612Y-10070668D01*
X10277808Y-10075049D01*
X10286701Y-10077746D01*
X10295950Y-10078657D01*
X10325450Y-10078657D01*
X10334699Y-10077746D01*
X10343592Y-10075049D01*
X10351788Y-10070668D01*
X10358972Y-10064772D01*
X10359200Y-10064494D01*
X10359428Y-10064772D01*
X10366612Y-10070668D01*
X10374808Y-10075049D01*
X10383701Y-10077746D01*
X10392950Y-10078657D01*
X10413667Y-10078657D01*
X10512340Y-10177330D01*
X10512340Y-10203870D01*
X10445612Y-10270599D01*
X10443249Y-10262808D01*
X10438868Y-10254612D01*
X10432972Y-10247428D01*
X10425788Y-10241532D01*
X10417592Y-10237152D01*
X10408699Y-10234454D01*
X10399450Y-10233543D01*
X10378733Y-10233543D01*
X10296897Y-10151707D01*
X10295597Y-10150123D01*
X10289278Y-10144937D01*
X10282068Y-10141084D01*
X10274245Y-10138711D01*
X10268149Y-10138110D01*
X10268148Y-10138110D01*
X10266110Y-10137909D01*
X10264072Y-10138110D01*
X10262539Y-10138110D01*
X10261578Y-10135790D01*
X10251455Y-10120640D01*
X10238570Y-10107756D01*
X10223420Y-10097633D01*
X10206586Y-10090660D01*
X10188716Y-10087105D01*
X10170495Y-10087105D01*
X10152624Y-10090660D01*
X10135790Y-10097633D01*
X10120640Y-10107756D01*
X10107756Y-10120640D01*
X10097633Y-10135790D01*
X10090660Y-10152624D01*
X10087105Y-10170495D01*
X10087105Y-10188716D01*
X10090660Y-10206586D01*
X10097633Y-10223420D01*
X10107756Y-10238570D01*
X10120640Y-10251455D01*
X10135790Y-10261578D01*
X10152624Y-10268550D01*
X10170495Y-10272105D01*
X10188716Y-10272105D01*
X10206586Y-10268550D01*
X10223420Y-10261578D01*
X10238570Y-10251455D01*
X10251455Y-10238570D01*
X10257433Y-10229623D01*
X10317543Y-10289733D01*
X10317543Y-10310450D01*
X10318454Y-10319699D01*
X10319061Y-10321700D01*
X10157521Y-10321700D01*
X10156006Y-10316706D01*
X10150967Y-10307279D01*
X10144185Y-10299015D01*
X10135922Y-10292233D01*
X10126494Y-10287194D01*
X10116264Y-10284091D01*
X10113754Y-10283843D01*
X10113237Y-10283213D01*
X10111653Y-10281913D01*
X9904797Y-10075057D01*
X9943105Y-10075057D01*
X9953744Y-10074009D01*
X9963974Y-10070906D01*
X9973402Y-10065867D01*
X9981665Y-10059085D01*
X9988447Y-10050822D01*
X9993486Y-10041394D01*
X9996589Y-10031164D01*
X9997637Y-10020525D01*
X9997637Y-9969275D01*
X9996589Y-9958636D01*
X9995226Y-9954140D01*
X10004735Y-9954140D01*
X10003371Y-9958636D01*
G37*
G04 #@! TD.AperFunction*
D18*
X9411850Y-9877700D02*
X9413850Y-9877700D01*
X9413850Y-9892700D01*
X9411850Y-9892700D01*
X9411850Y-9894700D01*
X9396850Y-9894700D01*
X9396850Y-9892700D01*
X9394850Y-9892700D01*
X9394850Y-9877700D01*
X9396850Y-9877700D01*
X9396850Y-9875700D01*
X9411850Y-9875700D01*
X9411850Y-9877700D01*
G04 #@! TA.AperFunction,Conductor*
D19*
G36*
X9411850Y-9877700D02*
G01*
X9413850Y-9877700D01*
X9413850Y-9892700D01*
X9411850Y-9892700D01*
X9411850Y-9894700D01*
X9396850Y-9894700D01*
X9396850Y-9892700D01*
X9394850Y-9892700D01*
X9394850Y-9877700D01*
X9396850Y-9877700D01*
X9396850Y-9875700D01*
X9411850Y-9875700D01*
X9411850Y-9877700D01*
G37*
G04 #@! TD.AperFunction*
D18*
X10285500Y-9769410D02*
X10285500Y-9778532D01*
X10280475Y-9786052D01*
X10276518Y-9795606D01*
X10274500Y-9805749D01*
X10274500Y-9816091D01*
X10276518Y-9826234D01*
X10280475Y-9835788D01*
X10286221Y-9844387D01*
X10293533Y-9851699D01*
X10302132Y-9857445D01*
X10311686Y-9861402D01*
X10321829Y-9863420D01*
X10323386Y-9863420D01*
X10322203Y-9864211D01*
X10315274Y-9871140D01*
X10263337Y-9871140D01*
X10271456Y-9854480D01*
X10274914Y-9843084D01*
X10267884Y-9827895D01*
X10197712Y-9827895D01*
X10191626Y-9821809D01*
X10181019Y-9832416D01*
X10187105Y-9838502D01*
X10187105Y-9871140D01*
X10172105Y-9871140D01*
X10172105Y-9838502D01*
X10178191Y-9832416D01*
X10167584Y-9821809D01*
X10161498Y-9827895D01*
X10091326Y-9827895D01*
X10084297Y-9843084D01*
X10090554Y-9861242D01*
X10096331Y-9871140D01*
X9986980Y-9871140D01*
X9961330Y-9845490D01*
X9961330Y-9797706D01*
X10084297Y-9797706D01*
X10091326Y-9812895D01*
X10172105Y-9812895D01*
X10172105Y-9732116D01*
X10187105Y-9732116D01*
X10187105Y-9812895D01*
X10267884Y-9812895D01*
X10274914Y-9797706D01*
X10268656Y-9779548D01*
X10258976Y-9762960D01*
X10246246Y-9748579D01*
X10230955Y-9736958D01*
X10213690Y-9728544D01*
X10202294Y-9725087D01*
X10187105Y-9732116D01*
X10172105Y-9732116D01*
X10156916Y-9725087D01*
X10138758Y-9731344D01*
X10122170Y-9741024D01*
X10107789Y-9753754D01*
X10096168Y-9769045D01*
X10087754Y-9786310D01*
X10084297Y-9797706D01*
X9961330Y-9797706D01*
X9961330Y-9767208D01*
X9961531Y-9765170D01*
X9961330Y-9763132D01*
X9961330Y-9763131D01*
X9960730Y-9757035D01*
X9958357Y-9749212D01*
X9954852Y-9742656D01*
X9954503Y-9742002D01*
X9950617Y-9737267D01*
X9950616Y-9737266D01*
X9949317Y-9735683D01*
X9947734Y-9734384D01*
X9946110Y-9732760D01*
X10001200Y-9677669D01*
X10061193Y-9737662D01*
X10067278Y-9742656D01*
X10074221Y-9746367D01*
X10081754Y-9748652D01*
X10089588Y-9749424D01*
X10097423Y-9748652D01*
X10104956Y-9746367D01*
X10111898Y-9742656D01*
X10117984Y-9737662D01*
X10128590Y-9727055D01*
X10133584Y-9720970D01*
X10137295Y-9714028D01*
X10139581Y-9706494D01*
X10139922Y-9703031D01*
X10143385Y-9702690D01*
X10150918Y-9700405D01*
X10157860Y-9696694D01*
X10163946Y-9691700D01*
X10174552Y-9681093D01*
X10179546Y-9675008D01*
X10183257Y-9668066D01*
X10183466Y-9667376D01*
X10285500Y-9769410D01*
G04 #@! TA.AperFunction,Conductor*
D19*
G36*
X10285500Y-9769410D02*
G01*
X10285500Y-9778532D01*
X10280475Y-9786052D01*
X10276518Y-9795606D01*
X10274500Y-9805749D01*
X10274500Y-9816091D01*
X10276518Y-9826234D01*
X10280475Y-9835788D01*
X10286221Y-9844387D01*
X10293533Y-9851699D01*
X10302132Y-9857445D01*
X10311686Y-9861402D01*
X10321829Y-9863420D01*
X10323386Y-9863420D01*
X10322203Y-9864211D01*
X10315274Y-9871140D01*
X10263337Y-9871140D01*
X10271456Y-9854480D01*
X10274914Y-9843084D01*
X10267884Y-9827895D01*
X10197712Y-9827895D01*
X10191626Y-9821809D01*
X10181019Y-9832416D01*
X10187105Y-9838502D01*
X10187105Y-9871140D01*
X10172105Y-9871140D01*
X10172105Y-9838502D01*
X10178191Y-9832416D01*
X10167584Y-9821809D01*
X10161498Y-9827895D01*
X10091326Y-9827895D01*
X10084297Y-9843084D01*
X10090554Y-9861242D01*
X10096331Y-9871140D01*
X9986980Y-9871140D01*
X9961330Y-9845490D01*
X9961330Y-9797706D01*
X10084297Y-9797706D01*
X10091326Y-9812895D01*
X10172105Y-9812895D01*
X10172105Y-9732116D01*
X10187105Y-9732116D01*
X10187105Y-9812895D01*
X10267884Y-9812895D01*
X10274914Y-9797706D01*
X10268656Y-9779548D01*
X10258976Y-9762960D01*
X10246246Y-9748579D01*
X10230955Y-9736958D01*
X10213690Y-9728544D01*
X10202294Y-9725087D01*
X10187105Y-9732116D01*
X10172105Y-9732116D01*
X10156916Y-9725087D01*
X10138758Y-9731344D01*
X10122170Y-9741024D01*
X10107789Y-9753754D01*
X10096168Y-9769045D01*
X10087754Y-9786310D01*
X10084297Y-9797706D01*
X9961330Y-9797706D01*
X9961330Y-9767208D01*
X9961531Y-9765170D01*
X9961330Y-9763132D01*
X9961330Y-9763131D01*
X9960730Y-9757035D01*
X9958357Y-9749212D01*
X9954852Y-9742656D01*
X9954503Y-9742002D01*
X9950617Y-9737267D01*
X9950616Y-9737266D01*
X9949317Y-9735683D01*
X9947734Y-9734384D01*
X9946110Y-9732760D01*
X10001200Y-9677669D01*
X10061193Y-9737662D01*
X10067278Y-9742656D01*
X10074221Y-9746367D01*
X10081754Y-9748652D01*
X10089588Y-9749424D01*
X10097423Y-9748652D01*
X10104956Y-9746367D01*
X10111898Y-9742656D01*
X10117984Y-9737662D01*
X10128590Y-9727055D01*
X10133584Y-9720970D01*
X10137295Y-9714028D01*
X10139581Y-9706494D01*
X10139922Y-9703031D01*
X10143385Y-9702690D01*
X10150918Y-9700405D01*
X10157860Y-9696694D01*
X10163946Y-9691700D01*
X10174552Y-9681093D01*
X10179546Y-9675008D01*
X10183257Y-9668066D01*
X10183466Y-9667376D01*
X10285500Y-9769410D01*
G37*
G04 #@! TD.AperFunction*
D18*
X9700421Y-9638865D02*
X9699820Y-9644961D01*
X9699820Y-9644962D01*
X9699619Y-9647000D01*
X9699820Y-9649038D01*
X9699820Y-9681402D01*
X9699619Y-9683440D01*
X9699820Y-9685478D01*
X9699820Y-9685479D01*
X9700421Y-9691575D01*
X9701263Y-9694353D01*
X9702794Y-9699398D01*
X9706647Y-9706608D01*
X9710534Y-9711343D01*
X9710534Y-9711344D01*
X9711833Y-9712927D01*
X9713416Y-9714226D01*
X9754583Y-9755392D01*
X9748545Y-9761430D01*
X9738422Y-9776580D01*
X9731450Y-9793414D01*
X9727895Y-9811284D01*
X9727895Y-9829505D01*
X9730836Y-9844290D01*
X9716305Y-9844290D01*
X9716601Y-9841280D01*
X9716420Y-9828655D01*
X9707045Y-9819280D01*
X9654420Y-9819280D01*
X9654420Y-9821280D01*
X9639420Y-9821280D01*
X9639420Y-9819280D01*
X9586795Y-9819280D01*
X9577420Y-9828655D01*
X9577239Y-9841280D01*
X9577963Y-9848631D01*
X9580107Y-9855700D01*
X9583589Y-9862215D01*
X9587746Y-9867280D01*
X9479809Y-9867280D01*
X9477770Y-9867079D01*
X9473862Y-9867464D01*
X9474031Y-9855700D01*
X9473307Y-9848349D01*
X9471163Y-9841280D01*
X9467681Y-9834765D01*
X9462995Y-9829055D01*
X9457285Y-9824369D01*
X9450770Y-9820887D01*
X9443701Y-9818743D01*
X9436350Y-9818019D01*
X9421225Y-9818200D01*
X9411850Y-9827575D01*
X9411850Y-9818200D01*
X9411140Y-9818200D01*
X9447060Y-9782280D01*
X9577239Y-9782280D01*
X9577420Y-9794905D01*
X9586795Y-9804280D01*
X9639420Y-9804280D01*
X9639420Y-9754155D01*
X9654420Y-9754155D01*
X9654420Y-9804280D01*
X9707045Y-9804280D01*
X9716420Y-9794905D01*
X9716601Y-9782280D01*
X9715877Y-9774929D01*
X9713733Y-9767860D01*
X9710251Y-9761345D01*
X9705565Y-9755635D01*
X9699855Y-9750949D01*
X9693340Y-9747467D01*
X9686271Y-9745323D01*
X9678920Y-9744599D01*
X9663795Y-9744780D01*
X9654420Y-9754155D01*
X9639420Y-9754155D01*
X9630045Y-9744780D01*
X9614920Y-9744599D01*
X9607569Y-9745323D01*
X9600500Y-9747467D01*
X9593985Y-9750949D01*
X9588275Y-9755635D01*
X9583589Y-9761345D01*
X9580107Y-9767860D01*
X9577963Y-9774929D01*
X9577239Y-9782280D01*
X9447060Y-9782280D01*
X9470733Y-9758607D01*
X9491450Y-9758607D01*
X9500699Y-9757696D01*
X9509592Y-9754999D01*
X9517788Y-9750618D01*
X9524972Y-9744722D01*
X9530868Y-9737538D01*
X9535249Y-9729342D01*
X9537946Y-9720449D01*
X9538857Y-9711200D01*
X9538857Y-9681700D01*
X9537946Y-9672451D01*
X9535249Y-9663558D01*
X9530868Y-9655362D01*
X9524972Y-9648178D01*
X9524694Y-9647950D01*
X9524972Y-9647722D01*
X9530868Y-9640538D01*
X9535249Y-9632342D01*
X9535428Y-9631750D01*
X9702579Y-9631750D01*
X9700421Y-9638865D01*
G04 #@! TA.AperFunction,Conductor*
D19*
G36*
X9700421Y-9638865D02*
G01*
X9699820Y-9644961D01*
X9699820Y-9644962D01*
X9699619Y-9647000D01*
X9699820Y-9649038D01*
X9699820Y-9681402D01*
X9699619Y-9683440D01*
X9699820Y-9685478D01*
X9699820Y-9685479D01*
X9700421Y-9691575D01*
X9701263Y-9694353D01*
X9702794Y-9699398D01*
X9706647Y-9706608D01*
X9710534Y-9711343D01*
X9710534Y-9711344D01*
X9711833Y-9712927D01*
X9713416Y-9714226D01*
X9754583Y-9755392D01*
X9748545Y-9761430D01*
X9738422Y-9776580D01*
X9731450Y-9793414D01*
X9727895Y-9811284D01*
X9727895Y-9829505D01*
X9730836Y-9844290D01*
X9716305Y-9844290D01*
X9716601Y-9841280D01*
X9716420Y-9828655D01*
X9707045Y-9819280D01*
X9654420Y-9819280D01*
X9654420Y-9821280D01*
X9639420Y-9821280D01*
X9639420Y-9819280D01*
X9586795Y-9819280D01*
X9577420Y-9828655D01*
X9577239Y-9841280D01*
X9577963Y-9848631D01*
X9580107Y-9855700D01*
X9583589Y-9862215D01*
X9587746Y-9867280D01*
X9479809Y-9867280D01*
X9477770Y-9867079D01*
X9473862Y-9867464D01*
X9474031Y-9855700D01*
X9473307Y-9848349D01*
X9471163Y-9841280D01*
X9467681Y-9834765D01*
X9462995Y-9829055D01*
X9457285Y-9824369D01*
X9450770Y-9820887D01*
X9443701Y-9818743D01*
X9436350Y-9818019D01*
X9421225Y-9818200D01*
X9411850Y-9827575D01*
X9411850Y-9818200D01*
X9411140Y-9818200D01*
X9447060Y-9782280D01*
X9577239Y-9782280D01*
X9577420Y-9794905D01*
X9586795Y-9804280D01*
X9639420Y-9804280D01*
X9639420Y-9754155D01*
X9654420Y-9754155D01*
X9654420Y-9804280D01*
X9707045Y-9804280D01*
X9716420Y-9794905D01*
X9716601Y-9782280D01*
X9715877Y-9774929D01*
X9713733Y-9767860D01*
X9710251Y-9761345D01*
X9705565Y-9755635D01*
X9699855Y-9750949D01*
X9693340Y-9747467D01*
X9686271Y-9745323D01*
X9678920Y-9744599D01*
X9663795Y-9744780D01*
X9654420Y-9754155D01*
X9639420Y-9754155D01*
X9630045Y-9744780D01*
X9614920Y-9744599D01*
X9607569Y-9745323D01*
X9600500Y-9747467D01*
X9593985Y-9750949D01*
X9588275Y-9755635D01*
X9583589Y-9761345D01*
X9580107Y-9767860D01*
X9577963Y-9774929D01*
X9577239Y-9782280D01*
X9447060Y-9782280D01*
X9470733Y-9758607D01*
X9491450Y-9758607D01*
X9500699Y-9757696D01*
X9509592Y-9754999D01*
X9517788Y-9750618D01*
X9524972Y-9744722D01*
X9530868Y-9737538D01*
X9535249Y-9729342D01*
X9537946Y-9720449D01*
X9538857Y-9711200D01*
X9538857Y-9681700D01*
X9537946Y-9672451D01*
X9535249Y-9663558D01*
X9530868Y-9655362D01*
X9524972Y-9648178D01*
X9524694Y-9647950D01*
X9524972Y-9647722D01*
X9530868Y-9640538D01*
X9535249Y-9632342D01*
X9535428Y-9631750D01*
X9702579Y-9631750D01*
X9700421Y-9638865D01*
G37*
G04 #@! TD.AperFunction*
D18*
X10490424Y-9177274D02*
X10491723Y-9178857D01*
X10493306Y-9180156D01*
X10493307Y-9180157D01*
X10496264Y-9182583D01*
X10498042Y-9184043D01*
X10505252Y-9187897D01*
X10513075Y-9190270D01*
X10519171Y-9190870D01*
X10519172Y-9190870D01*
X10521210Y-9191071D01*
X10523248Y-9190870D01*
X10649350Y-9190870D01*
X10649350Y-9202622D01*
X10649149Y-9204660D01*
X10649350Y-9206698D01*
X10649350Y-9206699D01*
X10649866Y-9211943D01*
X10568500Y-9211943D01*
X10562129Y-9212570D01*
X10556003Y-9214429D01*
X10550357Y-9217447D01*
X10545408Y-9221508D01*
X10541347Y-9226457D01*
X10538329Y-9232103D01*
X10537201Y-9235820D01*
X10533335Y-9236201D01*
X10525512Y-9238574D01*
X10518302Y-9242427D01*
X10511983Y-9247613D01*
X10506797Y-9253932D01*
X10502944Y-9261142D01*
X10500571Y-9268965D01*
X10499769Y-9277100D01*
X10499970Y-9279139D01*
X10499970Y-9642490D01*
X10489914Y-9652547D01*
X10489357Y-9646899D01*
X10487213Y-9639830D01*
X10483731Y-9633315D01*
X10479045Y-9627605D01*
X10473335Y-9622919D01*
X10466820Y-9619437D01*
X10459751Y-9617293D01*
X10452400Y-9616569D01*
X10437275Y-9616750D01*
X10427900Y-9626125D01*
X10427900Y-9676250D01*
X10429900Y-9676250D01*
X10429900Y-9691250D01*
X10427900Y-9691250D01*
X10427900Y-9693250D01*
X10412900Y-9693250D01*
X10412900Y-9691250D01*
X10410900Y-9691250D01*
X10410900Y-9676250D01*
X10412900Y-9676250D01*
X10412900Y-9626125D01*
X10403525Y-9616750D01*
X10388400Y-9616569D01*
X10381049Y-9617293D01*
X10373980Y-9619437D01*
X10367465Y-9622919D01*
X10365511Y-9624523D01*
X10364314Y-9624028D01*
X10354171Y-9622010D01*
X10347400Y-9622010D01*
X10293339Y-9567950D01*
X10293949Y-9567634D01*
X10298627Y-9563868D01*
X10298627Y-9550610D01*
X10247804Y-9499786D01*
X10246389Y-9501201D01*
X10235783Y-9490594D01*
X10237197Y-9489180D01*
X10235783Y-9487765D01*
X10246389Y-9477159D01*
X10247804Y-9478573D01*
X10249218Y-9477159D01*
X10259824Y-9487765D01*
X10258410Y-9489180D01*
X10309233Y-9540003D01*
X10322492Y-9540003D01*
X10326258Y-9535326D01*
X10329652Y-9528765D01*
X10331702Y-9521668D01*
X10332067Y-9517376D01*
X10334766Y-9516557D01*
X10341708Y-9512846D01*
X10347793Y-9507852D01*
X10358400Y-9497246D01*
X10363394Y-9491160D01*
X10367105Y-9484218D01*
X10369390Y-9476685D01*
X10369731Y-9473222D01*
X10373194Y-9472881D01*
X10380728Y-9470595D01*
X10387670Y-9466884D01*
X10393755Y-9461890D01*
X10404362Y-9451284D01*
X10409356Y-9445198D01*
X10413067Y-9438256D01*
X10415352Y-9430723D01*
X10416124Y-9422888D01*
X10415352Y-9415054D01*
X10413067Y-9407521D01*
X10409356Y-9400578D01*
X10404362Y-9394493D01*
X10344369Y-9334500D01*
X10404362Y-9274507D01*
X10409356Y-9268422D01*
X10413067Y-9261479D01*
X10415352Y-9253946D01*
X10416124Y-9246112D01*
X10415352Y-9238277D01*
X10413067Y-9230744D01*
X10409356Y-9223802D01*
X10404362Y-9217716D01*
X10393755Y-9207110D01*
X10387670Y-9202116D01*
X10380728Y-9198405D01*
X10373194Y-9196120D01*
X10369731Y-9195778D01*
X10369390Y-9192315D01*
X10367105Y-9184782D01*
X10363394Y-9177840D01*
X10358400Y-9171754D01*
X10347793Y-9161148D01*
X10341708Y-9156154D01*
X10334766Y-9152443D01*
X10334076Y-9152234D01*
X10399730Y-9086580D01*
X10490424Y-9177274D01*
G04 #@! TA.AperFunction,Conductor*
D19*
G36*
X10490424Y-9177274D02*
G01*
X10491723Y-9178857D01*
X10493306Y-9180156D01*
X10493307Y-9180157D01*
X10496264Y-9182583D01*
X10498042Y-9184043D01*
X10505252Y-9187897D01*
X10513075Y-9190270D01*
X10519171Y-9190870D01*
X10519172Y-9190870D01*
X10521210Y-9191071D01*
X10523248Y-9190870D01*
X10649350Y-9190870D01*
X10649350Y-9202622D01*
X10649149Y-9204660D01*
X10649350Y-9206698D01*
X10649350Y-9206699D01*
X10649866Y-9211943D01*
X10568500Y-9211943D01*
X10562129Y-9212570D01*
X10556003Y-9214429D01*
X10550357Y-9217447D01*
X10545408Y-9221508D01*
X10541347Y-9226457D01*
X10538329Y-9232103D01*
X10537201Y-9235820D01*
X10533335Y-9236201D01*
X10525512Y-9238574D01*
X10518302Y-9242427D01*
X10511983Y-9247613D01*
X10506797Y-9253932D01*
X10502944Y-9261142D01*
X10500571Y-9268965D01*
X10499769Y-9277100D01*
X10499970Y-9279139D01*
X10499970Y-9642490D01*
X10489914Y-9652547D01*
X10489357Y-9646899D01*
X10487213Y-9639830D01*
X10483731Y-9633315D01*
X10479045Y-9627605D01*
X10473335Y-9622919D01*
X10466820Y-9619437D01*
X10459751Y-9617293D01*
X10452400Y-9616569D01*
X10437275Y-9616750D01*
X10427900Y-9626125D01*
X10427900Y-9676250D01*
X10429900Y-9676250D01*
X10429900Y-9691250D01*
X10427900Y-9691250D01*
X10427900Y-9693250D01*
X10412900Y-9693250D01*
X10412900Y-9691250D01*
X10410900Y-9691250D01*
X10410900Y-9676250D01*
X10412900Y-9676250D01*
X10412900Y-9626125D01*
X10403525Y-9616750D01*
X10388400Y-9616569D01*
X10381049Y-9617293D01*
X10373980Y-9619437D01*
X10367465Y-9622919D01*
X10365511Y-9624523D01*
X10364314Y-9624028D01*
X10354171Y-9622010D01*
X10347400Y-9622010D01*
X10293339Y-9567950D01*
X10293949Y-9567634D01*
X10298627Y-9563868D01*
X10298627Y-9550610D01*
X10247804Y-9499786D01*
X10246389Y-9501201D01*
X10235783Y-9490594D01*
X10237197Y-9489180D01*
X10235783Y-9487765D01*
X10246389Y-9477159D01*
X10247804Y-9478573D01*
X10249218Y-9477159D01*
X10259824Y-9487765D01*
X10258410Y-9489180D01*
X10309233Y-9540003D01*
X10322492Y-9540003D01*
X10326258Y-9535326D01*
X10329652Y-9528765D01*
X10331702Y-9521668D01*
X10332067Y-9517376D01*
X10334766Y-9516557D01*
X10341708Y-9512846D01*
X10347793Y-9507852D01*
X10358400Y-9497246D01*
X10363394Y-9491160D01*
X10367105Y-9484218D01*
X10369390Y-9476685D01*
X10369731Y-9473222D01*
X10373194Y-9472881D01*
X10380728Y-9470595D01*
X10387670Y-9466884D01*
X10393755Y-9461890D01*
X10404362Y-9451284D01*
X10409356Y-9445198D01*
X10413067Y-9438256D01*
X10415352Y-9430723D01*
X10416124Y-9422888D01*
X10415352Y-9415054D01*
X10413067Y-9407521D01*
X10409356Y-9400578D01*
X10404362Y-9394493D01*
X10344369Y-9334500D01*
X10404362Y-9274507D01*
X10409356Y-9268422D01*
X10413067Y-9261479D01*
X10415352Y-9253946D01*
X10416124Y-9246112D01*
X10415352Y-9238277D01*
X10413067Y-9230744D01*
X10409356Y-9223802D01*
X10404362Y-9217716D01*
X10393755Y-9207110D01*
X10387670Y-9202116D01*
X10380728Y-9198405D01*
X10373194Y-9196120D01*
X10369731Y-9195778D01*
X10369390Y-9192315D01*
X10367105Y-9184782D01*
X10363394Y-9177840D01*
X10358400Y-9171754D01*
X10347793Y-9161148D01*
X10341708Y-9156154D01*
X10334766Y-9152443D01*
X10334076Y-9152234D01*
X10399730Y-9086580D01*
X10490424Y-9177274D01*
G37*
G04 #@! TD.AperFunction*
D18*
X9766617Y-9487765D02*
X9765203Y-9489180D01*
X9766617Y-9490594D01*
X9756011Y-9501201D01*
X9754597Y-9499786D01*
X9753182Y-9501201D01*
X9742576Y-9490594D01*
X9743990Y-9489180D01*
X9742576Y-9487765D01*
X9753182Y-9477159D01*
X9754597Y-9478573D01*
X9756011Y-9477159D01*
X9766617Y-9487765D01*
G04 #@! TA.AperFunction,Conductor*
D19*
G36*
X9766617Y-9487765D02*
G01*
X9765203Y-9489180D01*
X9766617Y-9490594D01*
X9756011Y-9501201D01*
X9754597Y-9499786D01*
X9753182Y-9501201D01*
X9742576Y-9490594D01*
X9743990Y-9489180D01*
X9742576Y-9487765D01*
X9753182Y-9477159D01*
X9754597Y-9478573D01*
X9756011Y-9477159D01*
X9766617Y-9487765D01*
G37*
G04 #@! TD.AperFunction*
D18*
X10013221Y-9333086D02*
X10011807Y-9334500D01*
X10013221Y-9335914D01*
X10002614Y-9346521D01*
X10001200Y-9345107D01*
X9999786Y-9346521D01*
X9989179Y-9335914D01*
X9990593Y-9334500D01*
X9989179Y-9333086D01*
X9999786Y-9322479D01*
X10001200Y-9323893D01*
X10002614Y-9322479D01*
X10013221Y-9333086D01*
G04 #@! TA.AperFunction,Conductor*
D19*
G36*
X10013221Y-9333086D02*
G01*
X10011807Y-9334500D01*
X10013221Y-9335914D01*
X10002614Y-9346521D01*
X10001200Y-9345107D01*
X9999786Y-9346521D01*
X9989179Y-9335914D01*
X9990593Y-9334500D01*
X9989179Y-9333086D01*
X9999786Y-9322479D01*
X10001200Y-9323893D01*
X10002614Y-9322479D01*
X10013221Y-9333086D01*
G37*
G04 #@! TD.AperFunction*
D18*
X10751000Y-9165225D02*
X10760375Y-9174600D01*
X10834000Y-9174600D01*
X10834000Y-9172600D01*
X10849000Y-9172600D01*
X10849000Y-9174600D01*
X10851000Y-9174600D01*
X10851000Y-9189600D01*
X10849000Y-9189600D01*
X10849000Y-9191600D01*
X10834000Y-9191600D01*
X10834000Y-9189600D01*
X10760375Y-9189600D01*
X10751000Y-9198975D01*
X10750918Y-9206038D01*
X10732350Y-9187470D01*
X10732350Y-9174910D01*
X10750897Y-9156363D01*
X10751000Y-9165225D01*
G04 #@! TA.AperFunction,Conductor*
D19*
G36*
X10751000Y-9165225D02*
G01*
X10760375Y-9174600D01*
X10834000Y-9174600D01*
X10834000Y-9172600D01*
X10849000Y-9172600D01*
X10849000Y-9174600D01*
X10851000Y-9174600D01*
X10851000Y-9189600D01*
X10849000Y-9189600D01*
X10849000Y-9191600D01*
X10834000Y-9191600D01*
X10834000Y-9189600D01*
X10760375Y-9189600D01*
X10751000Y-9198975D01*
X10750918Y-9206038D01*
X10732350Y-9187470D01*
X10732350Y-9174910D01*
X10750897Y-9156363D01*
X10751000Y-9165225D01*
G37*
G04 #@! TD.AperFunction*
D18*
X10305400Y-8863450D02*
X10307400Y-8863450D01*
X10307400Y-8878450D01*
X10305400Y-8878450D01*
X10305400Y-8931075D01*
X10314775Y-8940450D01*
X10327400Y-8940631D01*
X10334751Y-8939907D01*
X10341820Y-8937763D01*
X10348335Y-8934281D01*
X10354045Y-8929595D01*
X10355102Y-8928307D01*
X10358230Y-8929979D01*
X10358230Y-9010700D01*
X10302117Y-9066813D01*
X10303870Y-9058001D01*
X10303870Y-9047659D01*
X10301852Y-9037516D01*
X10297895Y-9027962D01*
X10292149Y-9019363D01*
X10284837Y-9012051D01*
X10276238Y-9006305D01*
X10266684Y-9002348D01*
X10257580Y-9000537D01*
X10257580Y-8995999D01*
X10255562Y-8985856D01*
X10251605Y-8976302D01*
X10245859Y-8967703D01*
X10238547Y-8960391D01*
X10231655Y-8955785D01*
X10237164Y-8950276D01*
X10238747Y-8948977D01*
X10240046Y-8947394D01*
X10240047Y-8947393D01*
X10243933Y-8942658D01*
X10247787Y-8935448D01*
X10247787Y-8935448D01*
X10248046Y-8934592D01*
X10253980Y-8937763D01*
X10261049Y-8939907D01*
X10268400Y-8940631D01*
X10281025Y-8940450D01*
X10290400Y-8931075D01*
X10290400Y-8878450D01*
X10288400Y-8878450D01*
X10288400Y-8863450D01*
X10290400Y-8863450D01*
X10290400Y-8861450D01*
X10305400Y-8861450D01*
X10305400Y-8863450D01*
G04 #@! TA.AperFunction,Conductor*
D19*
G36*
X10305400Y-8863450D02*
G01*
X10307400Y-8863450D01*
X10307400Y-8878450D01*
X10305400Y-8878450D01*
X10305400Y-8931075D01*
X10314775Y-8940450D01*
X10327400Y-8940631D01*
X10334751Y-8939907D01*
X10341820Y-8937763D01*
X10348335Y-8934281D01*
X10354045Y-8929595D01*
X10355102Y-8928307D01*
X10358230Y-8929979D01*
X10358230Y-9010700D01*
X10302117Y-9066813D01*
X10303870Y-9058001D01*
X10303870Y-9047659D01*
X10301852Y-9037516D01*
X10297895Y-9027962D01*
X10292149Y-9019363D01*
X10284837Y-9012051D01*
X10276238Y-9006305D01*
X10266684Y-9002348D01*
X10257580Y-9000537D01*
X10257580Y-8995999D01*
X10255562Y-8985856D01*
X10251605Y-8976302D01*
X10245859Y-8967703D01*
X10238547Y-8960391D01*
X10231655Y-8955785D01*
X10237164Y-8950276D01*
X10238747Y-8948977D01*
X10240046Y-8947394D01*
X10240047Y-8947393D01*
X10243933Y-8942658D01*
X10247787Y-8935448D01*
X10247787Y-8935448D01*
X10248046Y-8934592D01*
X10253980Y-8937763D01*
X10261049Y-8939907D01*
X10268400Y-8940631D01*
X10281025Y-8940450D01*
X10290400Y-8931075D01*
X10290400Y-8878450D01*
X10288400Y-8878450D01*
X10288400Y-8863450D01*
X10290400Y-8863450D01*
X10290400Y-8861450D01*
X10305400Y-8861450D01*
X10305400Y-8863450D01*
G37*
G04 #@! TD.AperFunction*
D18*
X10764400Y-8863450D02*
X10766400Y-8863450D01*
X10766400Y-8878450D01*
X10764400Y-8878450D01*
X10764400Y-8931075D01*
X10773775Y-8940450D01*
X10786400Y-8940631D01*
X10793751Y-8939907D01*
X10800820Y-8937763D01*
X10807335Y-8934281D01*
X10813045Y-8929595D01*
X10817731Y-8923885D01*
X10821213Y-8917370D01*
X10823357Y-8910301D01*
X10824081Y-8902950D01*
X10824047Y-8900067D01*
X10880040Y-8956060D01*
X10880040Y-9021943D01*
X10788500Y-9021943D01*
X10782129Y-9022570D01*
X10776003Y-9024429D01*
X10770357Y-9027447D01*
X10765408Y-9031508D01*
X10761347Y-9036457D01*
X10758329Y-9042103D01*
X10757201Y-9045820D01*
X10753335Y-9046201D01*
X10746358Y-9048317D01*
X10745512Y-9048574D01*
X10743030Y-9049900D01*
X10743030Y-8937445D01*
X10749400Y-8931075D01*
X10749400Y-8878450D01*
X10747400Y-8878450D01*
X10747400Y-8863450D01*
X10749400Y-8863450D01*
X10749400Y-8861450D01*
X10764400Y-8861450D01*
X10764400Y-8863450D01*
G04 #@! TA.AperFunction,Conductor*
D19*
G36*
X10764400Y-8863450D02*
G01*
X10766400Y-8863450D01*
X10766400Y-8878450D01*
X10764400Y-8878450D01*
X10764400Y-8931075D01*
X10773775Y-8940450D01*
X10786400Y-8940631D01*
X10793751Y-8939907D01*
X10800820Y-8937763D01*
X10807335Y-8934281D01*
X10813045Y-8929595D01*
X10817731Y-8923885D01*
X10821213Y-8917370D01*
X10823357Y-8910301D01*
X10824081Y-8902950D01*
X10824047Y-8900067D01*
X10880040Y-8956060D01*
X10880040Y-9021943D01*
X10788500Y-9021943D01*
X10782129Y-9022570D01*
X10776003Y-9024429D01*
X10770357Y-9027447D01*
X10765408Y-9031508D01*
X10761347Y-9036457D01*
X10758329Y-9042103D01*
X10757201Y-9045820D01*
X10753335Y-9046201D01*
X10746358Y-9048317D01*
X10745512Y-9048574D01*
X10743030Y-9049900D01*
X10743030Y-8937445D01*
X10749400Y-8931075D01*
X10749400Y-8878450D01*
X10747400Y-8878450D01*
X10747400Y-8863450D01*
X10749400Y-8863450D01*
X10749400Y-8861450D01*
X10764400Y-8861450D01*
X10764400Y-8863450D01*
G37*
G04 #@! TD.AperFunction*
M02*
