G04 #@! TF.GenerationSoftware,KiCad,Pcbnew,5.1.9*
G04 #@! TF.CreationDate,2021-04-01T11:10:47+02:00*
G04 #@! TF.ProjectId,Y11025HL,59313130-3235-4484-9c2e-6b696361645f,rev?*
G04 #@! TF.SameCoordinates,Original*
G04 #@! TF.FileFunction,Other,Fab,Top*
%FSLAX45Y45*%
G04 Gerber Fmt 4.5, Leading zero omitted, Abs format (unit mm)*
G04 Created by KiCad (PCBNEW 5.1.9) date 2021-04-01 11:10:47*
%MOMM*%
%LPD*%
G01*
G04 APERTURE LIST*
%ADD10C,0.100000*%
%ADD11C,0.070000*%
%ADD12C,0.150000*%
G04 APERTURE END LIST*
D10*
X10071911Y-9688053D02*
X9930489Y-9688053D01*
X10425464Y-9334500D02*
X10071911Y-9688053D01*
X10001200Y-8910236D02*
X10425464Y-9334500D01*
X9576936Y-9334500D02*
X10001200Y-8910236D01*
X9930489Y-9688053D02*
X9576936Y-9334500D01*
X9346800Y-9439350D02*
X9296800Y-9439350D01*
X9296800Y-9439350D02*
X9296800Y-9339350D01*
X9296800Y-9339350D02*
X9346800Y-9339350D01*
X9346800Y-9339350D02*
X9346800Y-9439350D01*
X9505643Y-9135212D02*
X9434932Y-9205923D01*
X9470288Y-9099857D02*
X9505643Y-9135212D01*
X9399577Y-9170568D02*
X9470288Y-9099857D01*
X9434932Y-9205923D02*
X9399577Y-9170568D01*
X9307600Y-10312800D02*
X9407600Y-10312800D01*
X9307600Y-10362800D02*
X9307600Y-10312800D01*
X9407600Y-10362800D02*
X9307600Y-10362800D01*
X9407600Y-10312800D02*
X9407600Y-10362800D01*
X9671920Y-9910280D02*
X9621920Y-9910280D01*
X9621920Y-9910280D02*
X9621920Y-9810280D01*
X9621920Y-9810280D02*
X9671920Y-9810280D01*
X9671920Y-9810280D02*
X9671920Y-9910280D01*
X9405850Y-10147700D02*
X9405850Y-10197700D01*
X9405850Y-10197700D02*
X9305850Y-10197700D01*
X9305850Y-10197700D02*
X9305850Y-10147700D01*
X9305850Y-10147700D02*
X9405850Y-10147700D01*
X9429350Y-9883700D02*
X9429350Y-9983700D01*
X9379350Y-9883700D02*
X9429350Y-9883700D01*
X9379350Y-9983700D02*
X9379350Y-9883700D01*
X9429350Y-9983700D02*
X9379350Y-9983700D01*
X10396400Y-8895950D02*
X10296400Y-8895950D01*
X10396400Y-8845950D02*
X10396400Y-8895950D01*
X10296400Y-8845950D02*
X10396400Y-8845950D01*
X10296400Y-8895950D02*
X10296400Y-8845950D01*
X10758400Y-8895950D02*
X10658400Y-8895950D01*
X10758400Y-8845950D02*
X10758400Y-8895950D01*
X10658400Y-8845950D02*
X10758400Y-8845950D01*
X10658400Y-8895950D02*
X10658400Y-8845950D01*
X10395400Y-9682250D02*
X10445400Y-9682250D01*
X10445400Y-9682250D02*
X10445400Y-9782250D01*
X10445400Y-9782250D02*
X10395400Y-9782250D01*
X10395400Y-9782250D02*
X10395400Y-9682250D01*
X9173450Y-8889600D02*
X9173450Y-8839600D01*
X9163450Y-8889600D02*
X9163450Y-8839600D01*
X9253450Y-8889600D02*
X9153450Y-8889600D01*
X9253450Y-8839600D02*
X9253450Y-8889600D01*
X9153450Y-8839600D02*
X9253450Y-8839600D01*
X9153450Y-8889600D02*
X9153450Y-8839600D01*
X9925000Y-10403200D02*
X9925000Y-10323200D01*
X9925000Y-10323200D02*
X10085000Y-10323200D01*
X10085000Y-10323200D02*
X10085000Y-10403200D01*
X10085000Y-10403200D02*
X9925000Y-10403200D01*
X10079980Y-10034900D02*
X9919980Y-10034900D01*
X10079980Y-9954900D02*
X10079980Y-10034900D01*
X9919980Y-9954900D02*
X10079980Y-9954900D01*
X9919980Y-10034900D02*
X9919980Y-9954900D01*
X10582000Y-10022000D02*
X10634500Y-9969500D01*
X10582000Y-10604500D02*
X10582000Y-10022000D01*
X10792000Y-10604500D02*
X10582000Y-10604500D01*
X10792000Y-9969500D02*
X10792000Y-10604500D01*
X10634500Y-9969500D02*
X10792000Y-9969500D01*
X10648600Y-9625800D02*
X10598600Y-9625800D01*
X10598600Y-9625800D02*
X10598600Y-9525800D01*
X10598600Y-9525800D02*
X10648600Y-9525800D01*
X10648600Y-9525800D02*
X10648600Y-9625800D01*
X9499200Y-9597950D02*
X9499200Y-9697950D01*
X9449200Y-9597950D02*
X9499200Y-9597950D01*
X9449200Y-9697950D02*
X9449200Y-9597950D01*
X9499200Y-9697950D02*
X9449200Y-9697950D01*
X9402850Y-8889600D02*
X9402850Y-8839600D01*
X9402850Y-8839600D02*
X9502850Y-8839600D01*
X9502850Y-8839600D02*
X9502850Y-8889600D01*
X9502850Y-8889600D02*
X9402850Y-8889600D01*
X9627000Y-10056700D02*
X9677000Y-10056700D01*
X9677000Y-10056700D02*
X9677000Y-10156700D01*
X9677000Y-10156700D02*
X9627000Y-10156700D01*
X9627000Y-10156700D02*
X9627000Y-10056700D01*
X10407200Y-10294200D02*
X10407200Y-10394200D01*
X10357200Y-10294200D02*
X10407200Y-10294200D01*
X10357200Y-10394200D02*
X10357200Y-10294200D01*
X10407200Y-10394200D02*
X10357200Y-10394200D01*
X10309200Y-9989000D02*
X10409200Y-9989000D01*
X10309200Y-10039000D02*
X10309200Y-9989000D01*
X10409200Y-10039000D02*
X10309200Y-10039000D01*
X10409200Y-9989000D02*
X10409200Y-10039000D01*
X10641500Y-9337100D02*
X10641500Y-9027100D01*
X10641500Y-9027100D02*
X10821500Y-9027100D01*
X10821500Y-9272100D02*
X10821500Y-9027100D01*
X10641500Y-9337100D02*
X10756500Y-9337100D01*
X10821500Y-9272100D02*
X10756500Y-9337100D01*
D11*
X9971064Y-8728240D02*
X10006419Y-8692885D01*
X9972747Y-8726557D02*
X9967697Y-8724873D01*
X9960962Y-8718139D01*
X9959279Y-8713088D01*
X9959279Y-8709721D01*
X9960962Y-8704670D01*
X9971064Y-8694568D01*
X9976115Y-8692885D01*
X9979482Y-8692885D01*
X9984532Y-8694568D01*
X9991267Y-8701303D01*
X9992950Y-8706353D01*
X9987900Y-8741709D02*
X9989583Y-8746760D01*
X9996318Y-8753494D01*
X10001368Y-8755178D01*
X10006419Y-8753494D01*
X10008103Y-8751810D01*
X10009786Y-8746760D01*
X10008103Y-8741709D01*
X10003052Y-8736658D01*
X10001368Y-8731607D01*
X10003052Y-8726557D01*
X10004736Y-8724873D01*
X10009786Y-8723189D01*
X10014837Y-8724873D01*
X10019888Y-8729924D01*
X10021571Y-8734974D01*
X10040091Y-8750127D02*
X10004736Y-8785482D01*
X10038407Y-8751810D02*
X10043458Y-8753494D01*
X10050192Y-8760228D01*
X10051876Y-8765279D01*
X10051876Y-8768646D01*
X10050192Y-8773697D01*
X10040091Y-8783799D01*
X10035040Y-8785482D01*
X10031673Y-8785482D01*
X10026622Y-8783799D01*
X10019888Y-8777064D01*
X10018204Y-8772013D01*
X10048509Y-8805685D02*
X10072079Y-8782115D01*
X10083864Y-8770330D02*
X10080497Y-8770330D01*
X10080497Y-8773697D01*
X10083864Y-8773697D01*
X10083864Y-8770330D01*
X10080497Y-8773697D01*
X10082181Y-8835990D02*
X10077130Y-8834306D01*
X10070395Y-8827572D01*
X10068712Y-8822521D01*
X10068712Y-8819154D01*
X10070395Y-8814103D01*
X10080497Y-8804002D01*
X10085548Y-8802318D01*
X10088915Y-8802318D01*
X10093966Y-8804002D01*
X10100700Y-8810736D01*
X10102384Y-8815787D01*
X10127637Y-8814103D02*
X10149524Y-8835990D01*
X10124270Y-8837673D01*
X10129321Y-8842724D01*
X10131005Y-8847775D01*
X10131005Y-8851142D01*
X10129321Y-8856193D01*
X10120903Y-8864611D01*
X10115852Y-8866294D01*
X10112485Y-8866294D01*
X10107434Y-8864611D01*
X10097333Y-8854509D01*
X10095649Y-8849458D01*
X10095649Y-8846091D01*
X10161309Y-8847775D02*
X10183196Y-8869661D01*
X10157942Y-8871345D01*
X10162993Y-8876396D01*
X10164676Y-8881447D01*
X10164676Y-8884814D01*
X10162993Y-8889865D01*
X10154575Y-8898282D01*
X10149524Y-8899966D01*
X10146157Y-8899966D01*
X10141106Y-8898282D01*
X10131005Y-8888181D01*
X10129321Y-8883130D01*
X10129321Y-8879763D01*
X10178145Y-8931954D02*
X10173094Y-8930271D01*
X10166360Y-8923536D01*
X10164676Y-8918486D01*
X10166360Y-8913435D01*
X10179829Y-8899966D01*
X10184879Y-8898282D01*
X10189930Y-8899966D01*
X10196665Y-8906700D01*
X10198348Y-8911751D01*
X10196665Y-8916802D01*
X10193297Y-8920169D01*
X10173094Y-8906700D01*
X10216868Y-8926903D02*
X10181512Y-8962259D01*
X10215184Y-8928587D02*
X10220235Y-8930271D01*
X10226969Y-8937005D01*
X10228653Y-8942056D01*
X10228653Y-8945423D01*
X10226969Y-8950474D01*
X10216868Y-8960575D01*
X10211817Y-8962259D01*
X10208450Y-8962259D01*
X10203399Y-8960575D01*
X10196665Y-8953841D01*
X10194981Y-8948790D01*
X10255590Y-8948790D02*
X10258957Y-8948790D01*
X10264008Y-8950474D01*
X10272426Y-8958892D01*
X10274110Y-8963942D01*
X10274110Y-8967310D01*
X10272426Y-8972360D01*
X10269059Y-8975728D01*
X10262324Y-8979095D01*
X10221918Y-8979095D01*
X10243805Y-9000981D01*
X10311148Y-8997614D02*
X10294313Y-8980778D01*
X10275793Y-8995931D01*
X10279160Y-8995931D01*
X10284211Y-8997614D01*
X10292629Y-9006032D01*
X10294313Y-9011083D01*
X10294313Y-9014450D01*
X10292629Y-9019501D01*
X10284211Y-9027919D01*
X10279160Y-9029602D01*
X10275793Y-9029602D01*
X10270742Y-9027919D01*
X10262324Y-9019501D01*
X10260641Y-9014450D01*
X10260641Y-9011083D01*
X10343137Y-9029602D02*
X10336402Y-9022868D01*
X10331352Y-9021184D01*
X10327984Y-9021184D01*
X10319566Y-9022868D01*
X10311148Y-9027919D01*
X10297680Y-9041387D01*
X10295996Y-9046438D01*
X10295996Y-9049805D01*
X10297680Y-9054856D01*
X10304414Y-9061590D01*
X10309465Y-9063274D01*
X10312832Y-9063274D01*
X10317883Y-9061590D01*
X10326301Y-9053173D01*
X10327984Y-9048122D01*
X10327984Y-9044755D01*
X10326301Y-9039704D01*
X10319566Y-9032969D01*
X10314516Y-9031286D01*
X10311148Y-9031286D01*
X10306098Y-9032969D01*
X10365023Y-9075059D02*
X10336402Y-9103680D01*
X10331352Y-9105364D01*
X10327984Y-9105364D01*
X10322934Y-9103680D01*
X10317883Y-9098629D01*
X10316199Y-9093579D01*
X10343137Y-9096946D02*
X10338086Y-9095262D01*
X10331352Y-9088528D01*
X10329668Y-9083477D01*
X10329668Y-9080110D01*
X10331352Y-9075059D01*
X10341453Y-9064958D01*
X10346504Y-9063274D01*
X10349871Y-9063274D01*
X10354922Y-9064958D01*
X10361656Y-9071692D01*
X10363340Y-9076743D01*
X10381859Y-9091895D02*
X10346504Y-9127250D01*
X10380176Y-9093579D02*
X10385226Y-9095262D01*
X10391961Y-9101997D01*
X10393644Y-9107047D01*
X10393644Y-9110415D01*
X10391961Y-9115465D01*
X10381859Y-9125567D01*
X10376808Y-9127250D01*
X10373441Y-9127250D01*
X10368390Y-9125567D01*
X10361656Y-9118832D01*
X10359972Y-9113782D01*
X10442468Y-9128934D02*
X10425632Y-9112098D01*
X10407113Y-9127250D01*
X10410480Y-9127250D01*
X10415531Y-9128934D01*
X10423949Y-9137352D01*
X10425632Y-9142403D01*
X10425632Y-9145770D01*
X10423949Y-9150821D01*
X10415531Y-9159239D01*
X10410480Y-9160922D01*
X10407113Y-9160922D01*
X10402062Y-9159239D01*
X10393644Y-9150821D01*
X10391961Y-9145770D01*
X10391961Y-9142403D01*
X10466039Y-9152504D02*
X10469406Y-9155871D01*
X10471089Y-9160922D01*
X10471089Y-9164289D01*
X10469406Y-9169340D01*
X10464355Y-9177758D01*
X10455937Y-9186176D01*
X10447519Y-9191227D01*
X10442468Y-9192910D01*
X10439101Y-9192910D01*
X10434050Y-9191227D01*
X10430683Y-9187860D01*
X10429000Y-9182809D01*
X10429000Y-9179442D01*
X10430683Y-9174391D01*
X10435734Y-9165973D01*
X10444152Y-9157555D01*
X10452570Y-9152504D01*
X10457621Y-9150821D01*
X10460988Y-9150821D01*
X10466039Y-9152504D01*
X10487925Y-9181125D02*
X10491292Y-9181125D01*
X10496343Y-9182809D01*
X10504761Y-9191227D01*
X10506445Y-9196277D01*
X10506445Y-9199645D01*
X10504761Y-9204695D01*
X10501394Y-9208063D01*
X10494660Y-9211430D01*
X10454253Y-9211430D01*
X10476140Y-9233316D01*
X10504761Y-9235000D02*
X10531698Y-9261937D01*
X10555269Y-9319179D02*
X10553585Y-9314129D01*
X10553585Y-9307394D01*
X10553585Y-9297293D01*
X10551901Y-9292242D01*
X10548534Y-9288875D01*
X10541800Y-9298976D02*
X10540116Y-9293926D01*
X10540116Y-9287191D01*
X10545167Y-9278773D01*
X10556952Y-9266988D01*
X10565370Y-9261937D01*
X10572105Y-9261937D01*
X10577155Y-9263621D01*
X10583890Y-9270355D01*
X10585573Y-9275406D01*
X10585573Y-9282140D01*
X10580522Y-9290558D01*
X10568737Y-9302343D01*
X10560319Y-9307394D01*
X10553585Y-9307394D01*
X10548534Y-9305711D01*
X10541800Y-9298976D01*
X10602409Y-9322547D02*
X10590624Y-9310761D01*
X10572105Y-9329281D02*
X10607460Y-9293926D01*
X10624296Y-9310761D01*
X10602409Y-9359585D02*
X10637764Y-9324230D01*
X10622612Y-9379789D01*
X10657967Y-9344433D01*
X9993624Y-9288201D02*
X9965003Y-9316822D01*
X9963319Y-9321873D01*
X9963319Y-9325240D01*
X9965003Y-9330291D01*
X9971737Y-9337025D01*
X9976788Y-9338709D01*
X9980155Y-9338709D01*
X9985206Y-9337025D01*
X10013827Y-9308404D01*
X10013827Y-9379115D02*
X9993624Y-9358912D01*
X10003725Y-9369014D02*
X10039081Y-9333658D01*
X10030663Y-9335342D01*
X10023928Y-9335342D01*
X10018878Y-9333658D01*
X9461419Y-9466731D02*
X9461419Y-9495302D01*
X9461419Y-9481017D02*
X9411419Y-9481017D01*
X9418562Y-9485779D01*
X9423324Y-9490540D01*
X9425705Y-9495302D01*
X9411419Y-9435779D02*
X9411419Y-9431017D01*
X9413800Y-9426255D01*
X9416181Y-9423874D01*
X9420943Y-9421493D01*
X9430467Y-9419112D01*
X9442371Y-9419112D01*
X9451895Y-9421493D01*
X9456657Y-9423874D01*
X9459038Y-9426255D01*
X9461419Y-9431017D01*
X9461419Y-9435779D01*
X9459038Y-9440540D01*
X9456657Y-9442921D01*
X9451895Y-9445302D01*
X9442371Y-9447683D01*
X9430467Y-9447683D01*
X9420943Y-9445302D01*
X9416181Y-9442921D01*
X9413800Y-9440540D01*
X9411419Y-9435779D01*
X9411419Y-9388160D02*
X9411419Y-9383398D01*
X9413800Y-9378636D01*
X9416181Y-9376255D01*
X9420943Y-9373874D01*
X9430467Y-9371493D01*
X9442371Y-9371493D01*
X9451895Y-9373874D01*
X9456657Y-9376255D01*
X9459038Y-9378636D01*
X9461419Y-9383398D01*
X9461419Y-9388160D01*
X9459038Y-9392921D01*
X9456657Y-9395302D01*
X9451895Y-9397683D01*
X9442371Y-9400064D01*
X9430467Y-9400064D01*
X9420943Y-9397683D01*
X9416181Y-9395302D01*
X9413800Y-9392921D01*
X9411419Y-9388160D01*
X9428086Y-9350064D02*
X9461419Y-9350064D01*
X9432848Y-9350064D02*
X9430467Y-9347683D01*
X9428086Y-9342921D01*
X9428086Y-9335779D01*
X9430467Y-9331017D01*
X9435229Y-9328636D01*
X9461419Y-9328636D01*
X9435229Y-9288160D02*
X9435229Y-9304826D01*
X9461419Y-9304826D02*
X9411419Y-9304826D01*
X9411419Y-9281017D01*
X9339657Y-9397683D02*
X9342038Y-9400064D01*
X9344419Y-9407207D01*
X9344419Y-9411969D01*
X9342038Y-9419112D01*
X9337276Y-9423874D01*
X9332514Y-9426255D01*
X9322990Y-9428636D01*
X9315848Y-9428636D01*
X9306324Y-9426255D01*
X9301562Y-9423874D01*
X9296800Y-9419112D01*
X9294419Y-9411969D01*
X9294419Y-9407207D01*
X9296800Y-9400064D01*
X9299181Y-9397683D01*
X9344419Y-9350064D02*
X9344419Y-9378636D01*
X9344419Y-9364350D02*
X9294419Y-9364350D01*
X9301562Y-9369112D01*
X9306324Y-9373874D01*
X9308705Y-9378636D01*
X9513455Y-9289496D02*
X9493252Y-9309699D01*
X9503353Y-9299598D02*
X9467998Y-9264242D01*
X9469682Y-9272660D01*
X9469682Y-9279395D01*
X9467998Y-9284446D01*
X9499986Y-9232254D02*
X9503353Y-9228887D01*
X9508404Y-9227204D01*
X9511771Y-9227204D01*
X9516822Y-9228887D01*
X9525240Y-9233938D01*
X9533658Y-9242356D01*
X9538709Y-9250774D01*
X9540392Y-9255825D01*
X9540392Y-9259192D01*
X9538709Y-9264242D01*
X9535342Y-9267610D01*
X9530291Y-9269293D01*
X9526924Y-9269293D01*
X9521873Y-9267610D01*
X9513455Y-9262559D01*
X9505037Y-9254141D01*
X9499986Y-9245723D01*
X9498303Y-9240672D01*
X9498303Y-9237305D01*
X9499986Y-9232254D01*
X9553861Y-9201950D02*
X9577431Y-9225520D01*
X9538709Y-9217102D02*
X9557228Y-9235622D01*
X9562279Y-9237305D01*
X9567330Y-9235622D01*
X9572380Y-9230571D01*
X9574064Y-9225520D01*
X9574064Y-9222153D01*
X9587533Y-9178380D02*
X9575748Y-9190165D01*
X9594267Y-9208684D02*
X9558912Y-9173329D01*
X9575748Y-9156493D01*
X9459344Y-9171409D02*
X9459344Y-9174777D01*
X9455977Y-9181511D01*
X9452610Y-9184878D01*
X9445876Y-9188245D01*
X9439141Y-9188245D01*
X9434091Y-9186562D01*
X9425673Y-9181511D01*
X9420622Y-9176460D01*
X9415571Y-9168042D01*
X9413887Y-9162992D01*
X9413887Y-9156257D01*
X9417255Y-9149523D01*
X9420622Y-9146156D01*
X9427356Y-9142788D01*
X9430723Y-9142788D01*
X9444192Y-9129320D02*
X9444192Y-9125953D01*
X9445876Y-9120902D01*
X9454294Y-9112484D01*
X9459344Y-9110800D01*
X9462712Y-9110800D01*
X9467762Y-9112484D01*
X9471129Y-9115851D01*
X9474497Y-9122585D01*
X9474497Y-9162992D01*
X9496383Y-9141105D01*
X9304029Y-10243419D02*
X9275457Y-10243419D01*
X9289743Y-10243419D02*
X9289743Y-10193419D01*
X9284981Y-10200562D01*
X9280219Y-10205324D01*
X9275457Y-10207705D01*
X9334981Y-10193419D02*
X9339743Y-10193419D01*
X9344505Y-10195800D01*
X9346886Y-10198181D01*
X9349267Y-10202943D01*
X9351648Y-10212467D01*
X9351648Y-10224371D01*
X9349267Y-10233895D01*
X9346886Y-10238657D01*
X9344505Y-10241038D01*
X9339743Y-10243419D01*
X9334981Y-10243419D01*
X9330219Y-10241038D01*
X9327838Y-10238657D01*
X9325457Y-10233895D01*
X9323076Y-10224371D01*
X9323076Y-10212467D01*
X9325457Y-10202943D01*
X9327838Y-10198181D01*
X9330219Y-10195800D01*
X9334981Y-10193419D01*
X9394505Y-10210086D02*
X9394505Y-10243419D01*
X9373076Y-10210086D02*
X9373076Y-10236276D01*
X9375457Y-10241038D01*
X9380219Y-10243419D01*
X9387362Y-10243419D01*
X9392124Y-10241038D01*
X9394505Y-10238657D01*
X9434981Y-10217229D02*
X9418314Y-10217229D01*
X9418314Y-10243419D02*
X9418314Y-10193419D01*
X9442124Y-10193419D01*
X9349267Y-10355657D02*
X9346886Y-10358038D01*
X9339743Y-10360419D01*
X9334981Y-10360419D01*
X9327838Y-10358038D01*
X9323076Y-10353276D01*
X9320695Y-10348514D01*
X9318314Y-10338990D01*
X9318314Y-10331848D01*
X9320695Y-10322324D01*
X9323076Y-10317562D01*
X9327838Y-10312800D01*
X9334981Y-10310419D01*
X9339743Y-10310419D01*
X9346886Y-10312800D01*
X9349267Y-10315181D01*
X9365933Y-10310419D02*
X9396886Y-10310419D01*
X9380219Y-10329467D01*
X9387362Y-10329467D01*
X9392124Y-10331848D01*
X9394505Y-10334229D01*
X9396886Y-10338990D01*
X9396886Y-10350895D01*
X9394505Y-10355657D01*
X9392124Y-10358038D01*
X9387362Y-10360419D01*
X9373076Y-10360419D01*
X9368314Y-10358038D01*
X9365933Y-10355657D01*
X9786539Y-9937661D02*
X9786539Y-9966232D01*
X9786539Y-9951947D02*
X9736539Y-9951947D01*
X9743682Y-9956709D01*
X9748444Y-9961470D01*
X9750825Y-9966232D01*
X9736539Y-9906709D02*
X9736539Y-9901947D01*
X9738920Y-9897185D01*
X9741301Y-9894804D01*
X9746063Y-9892423D01*
X9755587Y-9890042D01*
X9767491Y-9890042D01*
X9777015Y-9892423D01*
X9781777Y-9894804D01*
X9784158Y-9897185D01*
X9786539Y-9901947D01*
X9786539Y-9906709D01*
X9784158Y-9911470D01*
X9781777Y-9913851D01*
X9777015Y-9916232D01*
X9767491Y-9918613D01*
X9755587Y-9918613D01*
X9746063Y-9916232D01*
X9741301Y-9913851D01*
X9738920Y-9911470D01*
X9736539Y-9906709D01*
X9736539Y-9859090D02*
X9736539Y-9854328D01*
X9738920Y-9849566D01*
X9741301Y-9847185D01*
X9746063Y-9844804D01*
X9755587Y-9842423D01*
X9767491Y-9842423D01*
X9777015Y-9844804D01*
X9781777Y-9847185D01*
X9784158Y-9849566D01*
X9786539Y-9854328D01*
X9786539Y-9859090D01*
X9784158Y-9863851D01*
X9781777Y-9866232D01*
X9777015Y-9868613D01*
X9767491Y-9870994D01*
X9755587Y-9870994D01*
X9746063Y-9868613D01*
X9741301Y-9866232D01*
X9738920Y-9863851D01*
X9736539Y-9859090D01*
X9753206Y-9820994D02*
X9786539Y-9820994D01*
X9757968Y-9820994D02*
X9755587Y-9818613D01*
X9753206Y-9813851D01*
X9753206Y-9806709D01*
X9755587Y-9801947D01*
X9760349Y-9799566D01*
X9786539Y-9799566D01*
X9760349Y-9759090D02*
X9760349Y-9775756D01*
X9786539Y-9775756D02*
X9736539Y-9775756D01*
X9736539Y-9751947D01*
X9664777Y-9868613D02*
X9667158Y-9870994D01*
X9669539Y-9878137D01*
X9669539Y-9882899D01*
X9667158Y-9890042D01*
X9662396Y-9894804D01*
X9657634Y-9897185D01*
X9648110Y-9899566D01*
X9640968Y-9899566D01*
X9631444Y-9897185D01*
X9626682Y-9894804D01*
X9621920Y-9890042D01*
X9619539Y-9882899D01*
X9619539Y-9878137D01*
X9621920Y-9870994D01*
X9624301Y-9868613D01*
X9636206Y-9825756D02*
X9669539Y-9825756D01*
X9617158Y-9837661D02*
X9652872Y-9849566D01*
X9652872Y-9818613D01*
X9278469Y-10078319D02*
X9249898Y-10078319D01*
X9264183Y-10078319D02*
X9264183Y-10028319D01*
X9259421Y-10035462D01*
X9254660Y-10040224D01*
X9249898Y-10042605D01*
X9309421Y-10028319D02*
X9314183Y-10028319D01*
X9318945Y-10030700D01*
X9321326Y-10033081D01*
X9323707Y-10037843D01*
X9326088Y-10047367D01*
X9326088Y-10059271D01*
X9323707Y-10068795D01*
X9321326Y-10073557D01*
X9318945Y-10075938D01*
X9314183Y-10078319D01*
X9309421Y-10078319D01*
X9304660Y-10075938D01*
X9302279Y-10073557D01*
X9299898Y-10068795D01*
X9297517Y-10059271D01*
X9297517Y-10047367D01*
X9299898Y-10037843D01*
X9302279Y-10033081D01*
X9304660Y-10030700D01*
X9309421Y-10028319D01*
X9357040Y-10028319D02*
X9361802Y-10028319D01*
X9366564Y-10030700D01*
X9368945Y-10033081D01*
X9371326Y-10037843D01*
X9373707Y-10047367D01*
X9373707Y-10059271D01*
X9371326Y-10068795D01*
X9368945Y-10073557D01*
X9366564Y-10075938D01*
X9361802Y-10078319D01*
X9357040Y-10078319D01*
X9352279Y-10075938D01*
X9349898Y-10073557D01*
X9347517Y-10068795D01*
X9345136Y-10059271D01*
X9345136Y-10047367D01*
X9347517Y-10037843D01*
X9349898Y-10033081D01*
X9352279Y-10030700D01*
X9357040Y-10028319D01*
X9395136Y-10044986D02*
X9395136Y-10078319D01*
X9395136Y-10049748D02*
X9397517Y-10047367D01*
X9402279Y-10044986D01*
X9409421Y-10044986D01*
X9414183Y-10047367D01*
X9416564Y-10052129D01*
X9416564Y-10078319D01*
X9457040Y-10052129D02*
X9440374Y-10052129D01*
X9440374Y-10078319D02*
X9440374Y-10028319D01*
X9464183Y-10028319D01*
X9347517Y-10190557D02*
X9345136Y-10192938D01*
X9337993Y-10195319D01*
X9333231Y-10195319D01*
X9326088Y-10192938D01*
X9321326Y-10188176D01*
X9318945Y-10183414D01*
X9316564Y-10173890D01*
X9316564Y-10166748D01*
X9318945Y-10157224D01*
X9321326Y-10152462D01*
X9326088Y-10147700D01*
X9333231Y-10145319D01*
X9337993Y-10145319D01*
X9345136Y-10147700D01*
X9347517Y-10150081D01*
X9392755Y-10145319D02*
X9368945Y-10145319D01*
X9366564Y-10169129D01*
X9368945Y-10166748D01*
X9373707Y-10164367D01*
X9385612Y-10164367D01*
X9390374Y-10166748D01*
X9392755Y-10169129D01*
X9395136Y-10173890D01*
X9395136Y-10185795D01*
X9392755Y-10190557D01*
X9390374Y-10192938D01*
X9385612Y-10195319D01*
X9373707Y-10195319D01*
X9368945Y-10192938D01*
X9366564Y-10190557D01*
X9543969Y-9987271D02*
X9543969Y-10015843D01*
X9543969Y-10001557D02*
X9493969Y-10001557D01*
X9501112Y-10006319D01*
X9505874Y-10011081D01*
X9508255Y-10015843D01*
X9493969Y-9956319D02*
X9493969Y-9951557D01*
X9496350Y-9946795D01*
X9498731Y-9944414D01*
X9503493Y-9942033D01*
X9513017Y-9939652D01*
X9524921Y-9939652D01*
X9534445Y-9942033D01*
X9539207Y-9944414D01*
X9541588Y-9946795D01*
X9543969Y-9951557D01*
X9543969Y-9956319D01*
X9541588Y-9961081D01*
X9539207Y-9963462D01*
X9534445Y-9965843D01*
X9524921Y-9968224D01*
X9513017Y-9968224D01*
X9503493Y-9965843D01*
X9498731Y-9963462D01*
X9496350Y-9961081D01*
X9493969Y-9956319D01*
X9510636Y-9896795D02*
X9543969Y-9896795D01*
X9510636Y-9918224D02*
X9536826Y-9918224D01*
X9541588Y-9915843D01*
X9543969Y-9911081D01*
X9543969Y-9903938D01*
X9541588Y-9899176D01*
X9539207Y-9896795D01*
X9517779Y-9856319D02*
X9517779Y-9872986D01*
X9543969Y-9872986D02*
X9493969Y-9872986D01*
X9493969Y-9849176D01*
X9422207Y-9942033D02*
X9424588Y-9944414D01*
X9426969Y-9951557D01*
X9426969Y-9956319D01*
X9424588Y-9963462D01*
X9419826Y-9968224D01*
X9415064Y-9970605D01*
X9405540Y-9972986D01*
X9398398Y-9972986D01*
X9388874Y-9970605D01*
X9384112Y-9968224D01*
X9379350Y-9963462D01*
X9376969Y-9956319D01*
X9376969Y-9951557D01*
X9379350Y-9944414D01*
X9381731Y-9942033D01*
X9376969Y-9899176D02*
X9376969Y-9908700D01*
X9379350Y-9913462D01*
X9381731Y-9915843D01*
X9388874Y-9920605D01*
X9398398Y-9922986D01*
X9417445Y-9922986D01*
X9422207Y-9920605D01*
X9424588Y-9918224D01*
X9426969Y-9913462D01*
X9426969Y-9903938D01*
X9424588Y-9899176D01*
X9422207Y-9896795D01*
X9417445Y-9894414D01*
X9405540Y-9894414D01*
X9400779Y-9896795D01*
X9398398Y-9899176D01*
X9396017Y-9903938D01*
X9396017Y-9913462D01*
X9398398Y-9918224D01*
X9400779Y-9920605D01*
X9405540Y-9922986D01*
X10316638Y-9010569D02*
X10288067Y-9010569D01*
X10302352Y-9010569D02*
X10302352Y-8960569D01*
X10297590Y-8967712D01*
X10292829Y-8972474D01*
X10288067Y-8974855D01*
X10359495Y-8977236D02*
X10359495Y-9010569D01*
X10338067Y-8977236D02*
X10338067Y-9003426D01*
X10340448Y-9008188D01*
X10345210Y-9010569D01*
X10352352Y-9010569D01*
X10357114Y-9008188D01*
X10359495Y-9005807D01*
X10399971Y-8984379D02*
X10383305Y-8984379D01*
X10383305Y-9010569D02*
X10383305Y-8960569D01*
X10407114Y-8960569D01*
X10338067Y-8888807D02*
X10335686Y-8891188D01*
X10328543Y-8893569D01*
X10323781Y-8893569D01*
X10316638Y-8891188D01*
X10311876Y-8886426D01*
X10309495Y-8881664D01*
X10307114Y-8872140D01*
X10307114Y-8864998D01*
X10309495Y-8855474D01*
X10311876Y-8850712D01*
X10316638Y-8845950D01*
X10323781Y-8843569D01*
X10328543Y-8843569D01*
X10335686Y-8845950D01*
X10338067Y-8848331D01*
X10354733Y-8843569D02*
X10388067Y-8843569D01*
X10366638Y-8893569D01*
X10626257Y-8977236D02*
X10626257Y-9010569D01*
X10614352Y-8958188D02*
X10602448Y-8993902D01*
X10633400Y-8993902D01*
X10647686Y-8960569D02*
X10681019Y-8960569D01*
X10659590Y-9010569D01*
X10709590Y-8960569D02*
X10714352Y-8960569D01*
X10719114Y-8962950D01*
X10721495Y-8965331D01*
X10723876Y-8970093D01*
X10726257Y-8979617D01*
X10726257Y-8991521D01*
X10723876Y-9001045D01*
X10721495Y-9005807D01*
X10719114Y-9008188D01*
X10714352Y-9010569D01*
X10709590Y-9010569D01*
X10704829Y-9008188D01*
X10702448Y-9005807D01*
X10700067Y-9001045D01*
X10697686Y-8991521D01*
X10697686Y-8979617D01*
X10700067Y-8970093D01*
X10702448Y-8965331D01*
X10704829Y-8962950D01*
X10709590Y-8960569D01*
X10747686Y-8977236D02*
X10747686Y-9027236D01*
X10747686Y-8979617D02*
X10752448Y-8977236D01*
X10761971Y-8977236D01*
X10766733Y-8979617D01*
X10769114Y-8981998D01*
X10771495Y-8986760D01*
X10771495Y-9001045D01*
X10769114Y-9005807D01*
X10766733Y-9008188D01*
X10761971Y-9010569D01*
X10752448Y-9010569D01*
X10747686Y-9008188D01*
X10809590Y-8984379D02*
X10792924Y-8984379D01*
X10792924Y-9010569D02*
X10792924Y-8960569D01*
X10816733Y-8960569D01*
X10700067Y-8888807D02*
X10697686Y-8891188D01*
X10690543Y-8893569D01*
X10685781Y-8893569D01*
X10678638Y-8891188D01*
X10673876Y-8886426D01*
X10671495Y-8881664D01*
X10669114Y-8872140D01*
X10669114Y-8864998D01*
X10671495Y-8855474D01*
X10673876Y-8850712D01*
X10678638Y-8845950D01*
X10685781Y-8843569D01*
X10690543Y-8843569D01*
X10697686Y-8845950D01*
X10700067Y-8848331D01*
X10728638Y-8864998D02*
X10723876Y-8862617D01*
X10721495Y-8860236D01*
X10719114Y-8855474D01*
X10719114Y-8853093D01*
X10721495Y-8848331D01*
X10723876Y-8845950D01*
X10728638Y-8843569D01*
X10738162Y-8843569D01*
X10742924Y-8845950D01*
X10745305Y-8848331D01*
X10747686Y-8853093D01*
X10747686Y-8855474D01*
X10745305Y-8860236D01*
X10742924Y-8862617D01*
X10738162Y-8864998D01*
X10728638Y-8864998D01*
X10723876Y-8867379D01*
X10721495Y-8869760D01*
X10719114Y-8874521D01*
X10719114Y-8884045D01*
X10721495Y-8888807D01*
X10723876Y-8891188D01*
X10728638Y-8893569D01*
X10738162Y-8893569D01*
X10742924Y-8891188D01*
X10745305Y-8888807D01*
X10747686Y-8884045D01*
X10747686Y-8874521D01*
X10745305Y-8869760D01*
X10742924Y-8867379D01*
X10738162Y-8864998D01*
X10326019Y-9762012D02*
X10326019Y-9790583D01*
X10326019Y-9776298D02*
X10276019Y-9776298D01*
X10283162Y-9781060D01*
X10287924Y-9785821D01*
X10290305Y-9790583D01*
X10292686Y-9719155D02*
X10326019Y-9719155D01*
X10292686Y-9740583D02*
X10318876Y-9740583D01*
X10323638Y-9738202D01*
X10326019Y-9733440D01*
X10326019Y-9726298D01*
X10323638Y-9721536D01*
X10321257Y-9719155D01*
X10299829Y-9678679D02*
X10299829Y-9695345D01*
X10326019Y-9695345D02*
X10276019Y-9695345D01*
X10276019Y-9671536D01*
X10438257Y-9740583D02*
X10440638Y-9742964D01*
X10443019Y-9750107D01*
X10443019Y-9754869D01*
X10440638Y-9762012D01*
X10435876Y-9766774D01*
X10431114Y-9769155D01*
X10421590Y-9771536D01*
X10414448Y-9771536D01*
X10404924Y-9769155D01*
X10400162Y-9766774D01*
X10395400Y-9762012D01*
X10393019Y-9754869D01*
X10393019Y-9750107D01*
X10395400Y-9742964D01*
X10397781Y-9740583D01*
X10443019Y-9716774D02*
X10443019Y-9707250D01*
X10440638Y-9702488D01*
X10438257Y-9700107D01*
X10431114Y-9695345D01*
X10421590Y-9692964D01*
X10402543Y-9692964D01*
X10397781Y-9695345D01*
X10395400Y-9697726D01*
X10393019Y-9702488D01*
X10393019Y-9712012D01*
X10395400Y-9716774D01*
X10397781Y-9719155D01*
X10402543Y-9721536D01*
X10414448Y-9721536D01*
X10419210Y-9719155D01*
X10421590Y-9716774D01*
X10423971Y-9712012D01*
X10423971Y-9702488D01*
X10421590Y-9697726D01*
X10419210Y-9695345D01*
X10414448Y-9692964D01*
X9171307Y-9004219D02*
X9147498Y-9004219D01*
X9147498Y-8954219D01*
X9187974Y-8978029D02*
X9204640Y-8978029D01*
X9211783Y-9004219D02*
X9187974Y-9004219D01*
X9187974Y-8954219D01*
X9211783Y-8954219D01*
X9233212Y-9004219D02*
X9233212Y-8954219D01*
X9245117Y-8954219D01*
X9252260Y-8956600D01*
X9257021Y-8961362D01*
X9259402Y-8966124D01*
X9261783Y-8975648D01*
X9261783Y-8982790D01*
X9259402Y-8992314D01*
X9257021Y-8997076D01*
X9252260Y-9001838D01*
X9245117Y-9004219D01*
X9233212Y-9004219D01*
X9166545Y-8887219D02*
X9166545Y-8837219D01*
X9178450Y-8837219D01*
X9185593Y-8839600D01*
X9190355Y-8844362D01*
X9192736Y-8849124D01*
X9195117Y-8858648D01*
X9195117Y-8865790D01*
X9192736Y-8875314D01*
X9190355Y-8880076D01*
X9185593Y-8884838D01*
X9178450Y-8887219D01*
X9166545Y-8887219D01*
X9242736Y-8887219D02*
X9214164Y-8887219D01*
X9228450Y-8887219D02*
X9228450Y-8837219D01*
X9223688Y-8844362D01*
X9218926Y-8849124D01*
X9214164Y-8851505D01*
X9946667Y-10528819D02*
X9918095Y-10528819D01*
X9932381Y-10528819D02*
X9932381Y-10478819D01*
X9927619Y-10485962D01*
X9922857Y-10490724D01*
X9918095Y-10493105D01*
X9977619Y-10478819D02*
X9982381Y-10478819D01*
X9987143Y-10481200D01*
X9989524Y-10483581D01*
X9991905Y-10488343D01*
X9994286Y-10497867D01*
X9994286Y-10509771D01*
X9991905Y-10519295D01*
X9989524Y-10524057D01*
X9987143Y-10526438D01*
X9982381Y-10528819D01*
X9977619Y-10528819D01*
X9972857Y-10526438D01*
X9970476Y-10524057D01*
X9968095Y-10519295D01*
X9965714Y-10509771D01*
X9965714Y-10497867D01*
X9968095Y-10488343D01*
X9970476Y-10483581D01*
X9972857Y-10481200D01*
X9977619Y-10478819D01*
X10037143Y-10495486D02*
X10037143Y-10528819D01*
X10015714Y-10495486D02*
X10015714Y-10521676D01*
X10018095Y-10526438D01*
X10022857Y-10528819D01*
X10030000Y-10528819D01*
X10034762Y-10526438D01*
X10037143Y-10524057D01*
X10060952Y-10528819D02*
X10060952Y-10478819D01*
X10060952Y-10502629D02*
X10089524Y-10502629D01*
X10089524Y-10528819D02*
X10089524Y-10478819D01*
X9996667Y-10385819D02*
X9972857Y-10385819D01*
X9972857Y-10335819D01*
X10039524Y-10385819D02*
X10010952Y-10385819D01*
X10025238Y-10385819D02*
X10025238Y-10335819D01*
X10020476Y-10342962D01*
X10015714Y-10347724D01*
X10010952Y-10350105D01*
X9941647Y-10160519D02*
X9913075Y-10160519D01*
X9927361Y-10160519D02*
X9927361Y-10110519D01*
X9922599Y-10117662D01*
X9917837Y-10122424D01*
X9913075Y-10124805D01*
X9972599Y-10110519D02*
X9977361Y-10110519D01*
X9982123Y-10112900D01*
X9984504Y-10115281D01*
X9986885Y-10120043D01*
X9989266Y-10129567D01*
X9989266Y-10141471D01*
X9986885Y-10150995D01*
X9984504Y-10155757D01*
X9982123Y-10158138D01*
X9977361Y-10160519D01*
X9972599Y-10160519D01*
X9967837Y-10158138D01*
X9965456Y-10155757D01*
X9963075Y-10150995D01*
X9960694Y-10141471D01*
X9960694Y-10129567D01*
X9963075Y-10120043D01*
X9965456Y-10115281D01*
X9967837Y-10112900D01*
X9972599Y-10110519D01*
X10032123Y-10127186D02*
X10032123Y-10160519D01*
X10010694Y-10127186D02*
X10010694Y-10153376D01*
X10013075Y-10158138D01*
X10017837Y-10160519D01*
X10024980Y-10160519D01*
X10029742Y-10158138D01*
X10032123Y-10155757D01*
X10055932Y-10160519D02*
X10055932Y-10110519D01*
X10055932Y-10134329D02*
X10084504Y-10134329D01*
X10084504Y-10160519D02*
X10084504Y-10110519D01*
X9991647Y-10017519D02*
X9967837Y-10017519D01*
X9967837Y-9967519D01*
X10005932Y-9972281D02*
X10008313Y-9969900D01*
X10013075Y-9967519D01*
X10024980Y-9967519D01*
X10029742Y-9969900D01*
X10032123Y-9972281D01*
X10034504Y-9977043D01*
X10034504Y-9981805D01*
X10032123Y-9988948D01*
X10003551Y-10017519D01*
X10034504Y-10017519D01*
X10628667Y-10683119D02*
X10628667Y-10718833D01*
X10626286Y-10725976D01*
X10621524Y-10730738D01*
X10614381Y-10733119D01*
X10609619Y-10733119D01*
X10645333Y-10683119D02*
X10673905Y-10683119D01*
X10659619Y-10733119D02*
X10659619Y-10683119D01*
X10688190Y-10718833D02*
X10712000Y-10718833D01*
X10683429Y-10733119D02*
X10700095Y-10683119D01*
X10716762Y-10733119D01*
X10759619Y-10685500D02*
X10754857Y-10683119D01*
X10747714Y-10683119D01*
X10740571Y-10685500D01*
X10735810Y-10690262D01*
X10733429Y-10695024D01*
X10731048Y-10704548D01*
X10731048Y-10711690D01*
X10733429Y-10721214D01*
X10735810Y-10725976D01*
X10740571Y-10730738D01*
X10747714Y-10733119D01*
X10752476Y-10733119D01*
X10759619Y-10730738D01*
X10762000Y-10728357D01*
X10762000Y-10711690D01*
X10752476Y-10711690D01*
X10709619Y-10323905D02*
X10659619Y-10323905D01*
X10659619Y-10304857D01*
X10662000Y-10300095D01*
X10664381Y-10297714D01*
X10669143Y-10295333D01*
X10676286Y-10295333D01*
X10681048Y-10297714D01*
X10683429Y-10300095D01*
X10685810Y-10304857D01*
X10685810Y-10323905D01*
X10664381Y-10276286D02*
X10662000Y-10273905D01*
X10659619Y-10269143D01*
X10659619Y-10257238D01*
X10662000Y-10252476D01*
X10664381Y-10250095D01*
X10669143Y-10247714D01*
X10673905Y-10247714D01*
X10681048Y-10250095D01*
X10709619Y-10278667D01*
X10709619Y-10247714D01*
X10729886Y-9626990D02*
X10763219Y-9626990D01*
X10710838Y-9638895D02*
X10746552Y-9650800D01*
X10746552Y-9619848D01*
X10758457Y-9600800D02*
X10760838Y-9598419D01*
X10763219Y-9600800D01*
X10760838Y-9603181D01*
X10758457Y-9600800D01*
X10763219Y-9600800D01*
X10713219Y-9581752D02*
X10713219Y-9548419D01*
X10763219Y-9569848D01*
X10763219Y-9529371D02*
X10713219Y-9529371D01*
X10763219Y-9500800D02*
X10734648Y-9522229D01*
X10713219Y-9500800D02*
X10741790Y-9529371D01*
X10646219Y-9584133D02*
X10622410Y-9600800D01*
X10646219Y-9612705D02*
X10596219Y-9612705D01*
X10596219Y-9593657D01*
X10598600Y-9588895D01*
X10600981Y-9586514D01*
X10605743Y-9584133D01*
X10612886Y-9584133D01*
X10617648Y-9586514D01*
X10620029Y-9588895D01*
X10622410Y-9593657D01*
X10622410Y-9612705D01*
X10646219Y-9536514D02*
X10646219Y-9565086D01*
X10646219Y-9550800D02*
X10596219Y-9550800D01*
X10603362Y-9555562D01*
X10608124Y-9560324D01*
X10610505Y-9565086D01*
X9613819Y-9657474D02*
X9613819Y-9686045D01*
X9613819Y-9671760D02*
X9563819Y-9671760D01*
X9570962Y-9676521D01*
X9575724Y-9681283D01*
X9578105Y-9686045D01*
X9563819Y-9626521D02*
X9563819Y-9621760D01*
X9566200Y-9616998D01*
X9568581Y-9614617D01*
X9573343Y-9612236D01*
X9582867Y-9609855D01*
X9594771Y-9609855D01*
X9604295Y-9612236D01*
X9609057Y-9614617D01*
X9611438Y-9616998D01*
X9613819Y-9621760D01*
X9613819Y-9626521D01*
X9611438Y-9631283D01*
X9609057Y-9633664D01*
X9604295Y-9636045D01*
X9594771Y-9638426D01*
X9582867Y-9638426D01*
X9573343Y-9636045D01*
X9568581Y-9633664D01*
X9566200Y-9631283D01*
X9563819Y-9626521D01*
X9496819Y-9656283D02*
X9473010Y-9672950D01*
X9496819Y-9684855D02*
X9446819Y-9684855D01*
X9446819Y-9665807D01*
X9449200Y-9661045D01*
X9451581Y-9658664D01*
X9456343Y-9656283D01*
X9463486Y-9656283D01*
X9468248Y-9658664D01*
X9470629Y-9661045D01*
X9473010Y-9665807D01*
X9473010Y-9684855D01*
X9451581Y-9637236D02*
X9449200Y-9634855D01*
X9446819Y-9630093D01*
X9446819Y-9618188D01*
X9449200Y-9613426D01*
X9451581Y-9611045D01*
X9456343Y-9608664D01*
X9461105Y-9608664D01*
X9468248Y-9611045D01*
X9496819Y-9639617D01*
X9496819Y-9608664D01*
X9388564Y-8954219D02*
X9419517Y-8954219D01*
X9402850Y-8973267D01*
X9409993Y-8973267D01*
X9414755Y-8975648D01*
X9417136Y-8978029D01*
X9419517Y-8982790D01*
X9419517Y-8994695D01*
X9417136Y-8999457D01*
X9414755Y-9001838D01*
X9409993Y-9004219D01*
X9395707Y-9004219D01*
X9390945Y-9001838D01*
X9388564Y-8999457D01*
X9436183Y-8954219D02*
X9467136Y-8954219D01*
X9450469Y-8973267D01*
X9457612Y-8973267D01*
X9462374Y-8975648D01*
X9464755Y-8978029D01*
X9467136Y-8982790D01*
X9467136Y-8994695D01*
X9464755Y-8999457D01*
X9462374Y-9001838D01*
X9457612Y-9004219D01*
X9443326Y-9004219D01*
X9438564Y-9001838D01*
X9436183Y-8999457D01*
X9498088Y-8954219D02*
X9502850Y-8954219D01*
X9507612Y-8956600D01*
X9509993Y-8958981D01*
X9512374Y-8963743D01*
X9514755Y-8973267D01*
X9514755Y-8985171D01*
X9512374Y-8994695D01*
X9509993Y-8999457D01*
X9507612Y-9001838D01*
X9502850Y-9004219D01*
X9498088Y-9004219D01*
X9493326Y-9001838D01*
X9490945Y-8999457D01*
X9488564Y-8994695D01*
X9486183Y-8985171D01*
X9486183Y-8973267D01*
X9488564Y-8963743D01*
X9490945Y-8958981D01*
X9493326Y-8956600D01*
X9498088Y-8954219D01*
X9444517Y-8887219D02*
X9427850Y-8863410D01*
X9415945Y-8887219D02*
X9415945Y-8837219D01*
X9434993Y-8837219D01*
X9439755Y-8839600D01*
X9442136Y-8841981D01*
X9444517Y-8846743D01*
X9444517Y-8853886D01*
X9442136Y-8858648D01*
X9439755Y-8861029D01*
X9434993Y-8863410D01*
X9415945Y-8863410D01*
X9461183Y-8837219D02*
X9492136Y-8837219D01*
X9475469Y-8856267D01*
X9482612Y-8856267D01*
X9487374Y-8858648D01*
X9489755Y-8861029D01*
X9492136Y-8865790D01*
X9492136Y-8877695D01*
X9489755Y-8882457D01*
X9487374Y-8884838D01*
X9482612Y-8887219D01*
X9468326Y-8887219D01*
X9463564Y-8884838D01*
X9461183Y-8882457D01*
X9524286Y-10157890D02*
X9557619Y-10157890D01*
X9505238Y-10169795D02*
X9540952Y-10181700D01*
X9540952Y-10150748D01*
X9552857Y-10131700D02*
X9555238Y-10129319D01*
X9557619Y-10131700D01*
X9555238Y-10134081D01*
X9552857Y-10131700D01*
X9557619Y-10131700D01*
X9507619Y-10112652D02*
X9507619Y-10079319D01*
X9557619Y-10100748D01*
X9557619Y-10060271D02*
X9507619Y-10060271D01*
X9557619Y-10031700D02*
X9529048Y-10053129D01*
X9507619Y-10031700D02*
X9536190Y-10060271D01*
X9674619Y-10115033D02*
X9650810Y-10131700D01*
X9674619Y-10143605D02*
X9624619Y-10143605D01*
X9624619Y-10124557D01*
X9627000Y-10119795D01*
X9629381Y-10117414D01*
X9634143Y-10115033D01*
X9641286Y-10115033D01*
X9646048Y-10117414D01*
X9648429Y-10119795D01*
X9650810Y-10124557D01*
X9650810Y-10143605D01*
X9641286Y-10072176D02*
X9674619Y-10072176D01*
X9622238Y-10084081D02*
X9657952Y-10095986D01*
X9657952Y-10065033D01*
X10488486Y-10395390D02*
X10521819Y-10395390D01*
X10469438Y-10407295D02*
X10505152Y-10419200D01*
X10505152Y-10388248D01*
X10517057Y-10369200D02*
X10519438Y-10366819D01*
X10521819Y-10369200D01*
X10519438Y-10371581D01*
X10517057Y-10369200D01*
X10521819Y-10369200D01*
X10471819Y-10350152D02*
X10471819Y-10316819D01*
X10521819Y-10338248D01*
X10521819Y-10297771D02*
X10471819Y-10297771D01*
X10521819Y-10269200D02*
X10493248Y-10290629D01*
X10471819Y-10269200D02*
X10500390Y-10297771D01*
X10404819Y-10352533D02*
X10381010Y-10369200D01*
X10404819Y-10381105D02*
X10354819Y-10381105D01*
X10354819Y-10362057D01*
X10357200Y-10357295D01*
X10359581Y-10354914D01*
X10364343Y-10352533D01*
X10371486Y-10352533D01*
X10376248Y-10354914D01*
X10378629Y-10357295D01*
X10381010Y-10362057D01*
X10381010Y-10381105D01*
X10354819Y-10307295D02*
X10354819Y-10331105D01*
X10378629Y-10333486D01*
X10376248Y-10331105D01*
X10373867Y-10326343D01*
X10373867Y-10314438D01*
X10376248Y-10309676D01*
X10378629Y-10307295D01*
X10383390Y-10304914D01*
X10395295Y-10304914D01*
X10400057Y-10307295D01*
X10402438Y-10309676D01*
X10404819Y-10314438D01*
X10404819Y-10326343D01*
X10402438Y-10331105D01*
X10400057Y-10333486D01*
X10294914Y-9919619D02*
X10294914Y-9869619D01*
X10306819Y-9869619D01*
X10313962Y-9872000D01*
X10318724Y-9876762D01*
X10321105Y-9881524D01*
X10323486Y-9891048D01*
X10323486Y-9898190D01*
X10321105Y-9907714D01*
X10318724Y-9912476D01*
X10313962Y-9917238D01*
X10306819Y-9919619D01*
X10294914Y-9919619D01*
X10344914Y-9919619D02*
X10344914Y-9869619D01*
X10373486Y-9919619D01*
X10373486Y-9869619D01*
X10397295Y-9919619D02*
X10397295Y-9869619D01*
X10416343Y-9869619D01*
X10421105Y-9872000D01*
X10423486Y-9874381D01*
X10425867Y-9879143D01*
X10425867Y-9886286D01*
X10423486Y-9891048D01*
X10421105Y-9893429D01*
X10416343Y-9895810D01*
X10397295Y-9895810D01*
X10350867Y-10036619D02*
X10334200Y-10012810D01*
X10322295Y-10036619D02*
X10322295Y-9986619D01*
X10341343Y-9986619D01*
X10346105Y-9989000D01*
X10348486Y-9991381D01*
X10350867Y-9996143D01*
X10350867Y-10003286D01*
X10348486Y-10008048D01*
X10346105Y-10010429D01*
X10341343Y-10012810D01*
X10322295Y-10012810D01*
X10393724Y-9986619D02*
X10384200Y-9986619D01*
X10379438Y-9989000D01*
X10377057Y-9991381D01*
X10372295Y-9998524D01*
X10369914Y-10008048D01*
X10369914Y-10027095D01*
X10372295Y-10031857D01*
X10374676Y-10034238D01*
X10379438Y-10036619D01*
X10388962Y-10036619D01*
X10393724Y-10034238D01*
X10396105Y-10031857D01*
X10398486Y-10027095D01*
X10398486Y-10015190D01*
X10396105Y-10010429D01*
X10393724Y-10008048D01*
X10388962Y-10005667D01*
X10379438Y-10005667D01*
X10374676Y-10008048D01*
X10372295Y-10010429D01*
X10369914Y-10015190D01*
X10704119Y-9220195D02*
X10744595Y-9220195D01*
X10749357Y-9217814D01*
X10751738Y-9215433D01*
X10754119Y-9210671D01*
X10754119Y-9201148D01*
X10751738Y-9196386D01*
X10749357Y-9194005D01*
X10744595Y-9191624D01*
X10704119Y-9191624D01*
X10708881Y-9170195D02*
X10706500Y-9167814D01*
X10704119Y-9163052D01*
X10704119Y-9151148D01*
X10706500Y-9146386D01*
X10708881Y-9144005D01*
X10713643Y-9141624D01*
X10718405Y-9141624D01*
X10725548Y-9144005D01*
X10754119Y-9172576D01*
X10754119Y-9141624D01*
D12*
X8521429Y-10065238D02*
X8521429Y-9965238D01*
X8554762Y-10036667D01*
X8588095Y-9965238D01*
X8588095Y-10065238D01*
X8650000Y-10065238D02*
X8640476Y-10060476D01*
X8635714Y-10055714D01*
X8630952Y-10046190D01*
X8630952Y-10017619D01*
X8635714Y-10008095D01*
X8640476Y-10003333D01*
X8650000Y-9998571D01*
X8664286Y-9998571D01*
X8673810Y-10003333D01*
X8678571Y-10008095D01*
X8683333Y-10017619D01*
X8683333Y-10046190D01*
X8678571Y-10055714D01*
X8673810Y-10060476D01*
X8664286Y-10065238D01*
X8650000Y-10065238D01*
X8769048Y-9998571D02*
X8769048Y-10065238D01*
X8726190Y-9998571D02*
X8726190Y-10050952D01*
X8730952Y-10060476D01*
X8740476Y-10065238D01*
X8754762Y-10065238D01*
X8764286Y-10060476D01*
X8769048Y-10055714D01*
X8816667Y-9998571D02*
X8816667Y-10065238D01*
X8816667Y-10008095D02*
X8821429Y-10003333D01*
X8830952Y-9998571D01*
X8845238Y-9998571D01*
X8854762Y-10003333D01*
X8859524Y-10012857D01*
X8859524Y-10065238D01*
X8892857Y-9998571D02*
X8930952Y-9998571D01*
X8907143Y-9965238D02*
X8907143Y-10050952D01*
X8911905Y-10060476D01*
X8921429Y-10065238D01*
X8930952Y-10065238D01*
X8964286Y-10065238D02*
X8964286Y-9998571D01*
X8964286Y-9965238D02*
X8959524Y-9970000D01*
X8964286Y-9974762D01*
X8969048Y-9970000D01*
X8964286Y-9965238D01*
X8964286Y-9974762D01*
X9011905Y-9998571D02*
X9011905Y-10065238D01*
X9011905Y-10008095D02*
X9016667Y-10003333D01*
X9026190Y-9998571D01*
X9040476Y-9998571D01*
X9050000Y-10003333D01*
X9054762Y-10012857D01*
X9054762Y-10065238D01*
X9145238Y-9998571D02*
X9145238Y-10079524D01*
X9140476Y-10089048D01*
X9135714Y-10093810D01*
X9126190Y-10098571D01*
X9111905Y-10098571D01*
X9102381Y-10093810D01*
X9145238Y-10060476D02*
X9135714Y-10065238D01*
X9116667Y-10065238D01*
X9107143Y-10060476D01*
X9102381Y-10055714D01*
X9097619Y-10046190D01*
X9097619Y-10017619D01*
X9102381Y-10008095D01*
X9107143Y-10003333D01*
X9116667Y-9998571D01*
X9135714Y-9998571D01*
X9145238Y-10003333D01*
X9192857Y-10065238D02*
X9192857Y-9965238D01*
X9192857Y-10012857D02*
X9250000Y-10012857D01*
X9250000Y-10065238D02*
X9250000Y-9965238D01*
X9311905Y-10065238D02*
X9302381Y-10060476D01*
X9297619Y-10055714D01*
X9292857Y-10046190D01*
X9292857Y-10017619D01*
X9297619Y-10008095D01*
X9302381Y-10003333D01*
X9311905Y-9998571D01*
X9326190Y-9998571D01*
X9335714Y-10003333D01*
X9340476Y-10008095D01*
X9345238Y-10017619D01*
X9345238Y-10046190D01*
X9340476Y-10055714D01*
X9335714Y-10060476D01*
X9326190Y-10065238D01*
X9311905Y-10065238D01*
X9402381Y-10065238D02*
X9392857Y-10060476D01*
X9388095Y-10050952D01*
X9388095Y-9965238D01*
X9478571Y-10060476D02*
X9469048Y-10065238D01*
X9450000Y-10065238D01*
X9440476Y-10060476D01*
X9435714Y-10050952D01*
X9435714Y-10012857D01*
X9440476Y-10003333D01*
X9450000Y-9998571D01*
X9469048Y-9998571D01*
X9478571Y-10003333D01*
X9483333Y-10012857D01*
X9483333Y-10022381D01*
X9435714Y-10031905D01*
X8953810Y-9745238D02*
X8953810Y-9645238D01*
X8953810Y-9692857D02*
X9010952Y-9692857D01*
X9010952Y-9745238D02*
X9010952Y-9645238D01*
X9110952Y-9745238D02*
X9053810Y-9745238D01*
X9082381Y-9745238D02*
X9082381Y-9645238D01*
X9072857Y-9659524D01*
X9063333Y-9669048D01*
X9053810Y-9673810D01*
X10521429Y-10065238D02*
X10521429Y-9965238D01*
X10554762Y-10036667D01*
X10588095Y-9965238D01*
X10588095Y-10065238D01*
X10650000Y-10065238D02*
X10640476Y-10060476D01*
X10635714Y-10055714D01*
X10630952Y-10046190D01*
X10630952Y-10017619D01*
X10635714Y-10008095D01*
X10640476Y-10003333D01*
X10650000Y-9998571D01*
X10664286Y-9998571D01*
X10673810Y-10003333D01*
X10678571Y-10008095D01*
X10683333Y-10017619D01*
X10683333Y-10046190D01*
X10678571Y-10055714D01*
X10673810Y-10060476D01*
X10664286Y-10065238D01*
X10650000Y-10065238D01*
X10769048Y-9998571D02*
X10769048Y-10065238D01*
X10726190Y-9998571D02*
X10726190Y-10050952D01*
X10730952Y-10060476D01*
X10740476Y-10065238D01*
X10754762Y-10065238D01*
X10764286Y-10060476D01*
X10769048Y-10055714D01*
X10816667Y-9998571D02*
X10816667Y-10065238D01*
X10816667Y-10008095D02*
X10821429Y-10003333D01*
X10830952Y-9998571D01*
X10845238Y-9998571D01*
X10854762Y-10003333D01*
X10859524Y-10012857D01*
X10859524Y-10065238D01*
X10892857Y-9998571D02*
X10930952Y-9998571D01*
X10907143Y-9965238D02*
X10907143Y-10050952D01*
X10911905Y-10060476D01*
X10921429Y-10065238D01*
X10930952Y-10065238D01*
X10964286Y-10065238D02*
X10964286Y-9998571D01*
X10964286Y-9965238D02*
X10959524Y-9970000D01*
X10964286Y-9974762D01*
X10969048Y-9970000D01*
X10964286Y-9965238D01*
X10964286Y-9974762D01*
X11011905Y-9998571D02*
X11011905Y-10065238D01*
X11011905Y-10008095D02*
X11016667Y-10003333D01*
X11026190Y-9998571D01*
X11040476Y-9998571D01*
X11050000Y-10003333D01*
X11054762Y-10012857D01*
X11054762Y-10065238D01*
X11145238Y-9998571D02*
X11145238Y-10079524D01*
X11140476Y-10089048D01*
X11135714Y-10093810D01*
X11126190Y-10098571D01*
X11111905Y-10098571D01*
X11102381Y-10093810D01*
X11145238Y-10060476D02*
X11135714Y-10065238D01*
X11116667Y-10065238D01*
X11107143Y-10060476D01*
X11102381Y-10055714D01*
X11097619Y-10046190D01*
X11097619Y-10017619D01*
X11102381Y-10008095D01*
X11107143Y-10003333D01*
X11116667Y-9998571D01*
X11135714Y-9998571D01*
X11145238Y-10003333D01*
X11192857Y-10065238D02*
X11192857Y-9965238D01*
X11192857Y-10012857D02*
X11250000Y-10012857D01*
X11250000Y-10065238D02*
X11250000Y-9965238D01*
X11311905Y-10065238D02*
X11302381Y-10060476D01*
X11297619Y-10055714D01*
X11292857Y-10046190D01*
X11292857Y-10017619D01*
X11297619Y-10008095D01*
X11302381Y-10003333D01*
X11311905Y-9998571D01*
X11326190Y-9998571D01*
X11335714Y-10003333D01*
X11340476Y-10008095D01*
X11345238Y-10017619D01*
X11345238Y-10046190D01*
X11340476Y-10055714D01*
X11335714Y-10060476D01*
X11326190Y-10065238D01*
X11311905Y-10065238D01*
X11402381Y-10065238D02*
X11392857Y-10060476D01*
X11388095Y-10050952D01*
X11388095Y-9965238D01*
X11478571Y-10060476D02*
X11469048Y-10065238D01*
X11450000Y-10065238D01*
X11440476Y-10060476D01*
X11435714Y-10050952D01*
X11435714Y-10012857D01*
X11440476Y-10003333D01*
X11450000Y-9998571D01*
X11469048Y-9998571D01*
X11478571Y-10003333D01*
X11483333Y-10012857D01*
X11483333Y-10022381D01*
X11435714Y-10031905D01*
X10953810Y-9745238D02*
X10953810Y-9645238D01*
X10953810Y-9692857D02*
X11010952Y-9692857D01*
X11010952Y-9745238D02*
X11010952Y-9645238D01*
X11053810Y-9654762D02*
X11058571Y-9650000D01*
X11068095Y-9645238D01*
X11091905Y-9645238D01*
X11101429Y-9650000D01*
X11106190Y-9654762D01*
X11110952Y-9664286D01*
X11110952Y-9673810D01*
X11106190Y-9688095D01*
X11049048Y-9745238D01*
X11110952Y-9745238D01*
M02*
