G04 #@! TF.GenerationSoftware,KiCad,Pcbnew,5.1.9*
G04 #@! TF.CreationDate,2021-04-01T11:10:47+02:00*
G04 #@! TF.ProjectId,Y11025HL,59313130-3235-4484-9c2e-6b696361645f,rev?*
G04 #@! TF.SameCoordinates,Original*
G04 #@! TF.FileFunction,Other,User*
%FSLAX45Y45*%
G04 Gerber Fmt 4.5, Leading zero omitted, Abs format (unit mm)*
G04 Created by KiCad (PCBNEW 5.1.9) date 2021-04-01 11:10:47*
%MOMM*%
%LPD*%
G01*
G04 APERTURE LIST*
%ADD10C,0.050000*%
G04 APERTURE END LIST*
D10*
X9492083Y-9334500D02*
X10001200Y-9843617D01*
X10001200Y-8825383D02*
X9492083Y-9334500D01*
X10510317Y-9334500D02*
X10001200Y-8825383D01*
X10001200Y-9843617D02*
X10510317Y-9334500D01*
X9368800Y-9482350D02*
X9274800Y-9482350D01*
X9274800Y-9482350D02*
X9274800Y-9296350D01*
X9274800Y-9296350D02*
X9368800Y-9296350D01*
X9368800Y-9296350D02*
X9368800Y-9482350D01*
X9551605Y-9120363D02*
X9420083Y-9251885D01*
X9485137Y-9053895D02*
X9551605Y-9120363D01*
X9353615Y-9185417D02*
X9485137Y-9053895D01*
X9420083Y-9251885D02*
X9353615Y-9185417D01*
X9264600Y-10290800D02*
X9450600Y-10290800D01*
X9264600Y-10384800D02*
X9264600Y-10290800D01*
X9450600Y-10384800D02*
X9264600Y-10384800D01*
X9450600Y-10290800D02*
X9450600Y-10384800D01*
X9693920Y-9953280D02*
X9599920Y-9953280D01*
X9599920Y-9953280D02*
X9599920Y-9767280D01*
X9599920Y-9767280D02*
X9693920Y-9767280D01*
X9693920Y-9767280D02*
X9693920Y-9953280D01*
X9448850Y-10125700D02*
X9448850Y-10219700D01*
X9448850Y-10219700D02*
X9262850Y-10219700D01*
X9262850Y-10219700D02*
X9262850Y-10125700D01*
X9262850Y-10125700D02*
X9448850Y-10125700D01*
X9451350Y-9840700D02*
X9451350Y-10026700D01*
X9357350Y-9840700D02*
X9451350Y-9840700D01*
X9357350Y-10026700D02*
X9357350Y-9840700D01*
X9451350Y-10026700D02*
X9357350Y-10026700D01*
X10439400Y-8917950D02*
X10253400Y-8917950D01*
X10439400Y-8823950D02*
X10439400Y-8917950D01*
X10253400Y-8823950D02*
X10439400Y-8823950D01*
X10253400Y-8917950D02*
X10253400Y-8823950D01*
X10801400Y-8917950D02*
X10615400Y-8917950D01*
X10801400Y-8823950D02*
X10801400Y-8917950D01*
X10615400Y-8823950D02*
X10801400Y-8823950D01*
X10615400Y-8917950D02*
X10615400Y-8823950D01*
X10373400Y-9639250D02*
X10467400Y-9639250D01*
X10467400Y-9639250D02*
X10467400Y-9825250D01*
X10467400Y-9825250D02*
X10373400Y-9825250D01*
X10373400Y-9825250D02*
X10373400Y-9639250D01*
X9296450Y-8911600D02*
X9110450Y-8911600D01*
X9296450Y-8817600D02*
X9296450Y-8911600D01*
X9110450Y-8817600D02*
X9296450Y-8817600D01*
X9110450Y-8911600D02*
X9110450Y-8817600D01*
X9857000Y-10436200D02*
X9857000Y-10290200D01*
X9857000Y-10290200D02*
X10153000Y-10290200D01*
X10153000Y-10290200D02*
X10153000Y-10436200D01*
X10153000Y-10436200D02*
X9857000Y-10436200D01*
X10147980Y-10067900D02*
X9851980Y-10067900D01*
X10147980Y-9921900D02*
X10147980Y-10067900D01*
X9851980Y-9921900D02*
X10147980Y-9921900D01*
X9851980Y-10067900D02*
X9851980Y-9921900D01*
X10842000Y-9918000D02*
X10532000Y-9918000D01*
X10842000Y-10658000D02*
X10842000Y-9918000D01*
X10532000Y-10658000D02*
X10842000Y-10658000D01*
X10532000Y-9918000D02*
X10532000Y-10658000D01*
X10670600Y-9668800D02*
X10576600Y-9668800D01*
X10576600Y-9668800D02*
X10576600Y-9482800D01*
X10576600Y-9482800D02*
X10670600Y-9482800D01*
X10670600Y-9482800D02*
X10670600Y-9668800D01*
X9521200Y-9554950D02*
X9521200Y-9740950D01*
X9427200Y-9554950D02*
X9521200Y-9554950D01*
X9427200Y-9740950D02*
X9427200Y-9554950D01*
X9521200Y-9740950D02*
X9427200Y-9740950D01*
X9359850Y-8911600D02*
X9359850Y-8817600D01*
X9359850Y-8817600D02*
X9545850Y-8817600D01*
X9545850Y-8817600D02*
X9545850Y-8911600D01*
X9545850Y-8911600D02*
X9359850Y-8911600D01*
X9605000Y-10013700D02*
X9699000Y-10013700D01*
X9699000Y-10013700D02*
X9699000Y-10199700D01*
X9699000Y-10199700D02*
X9605000Y-10199700D01*
X9605000Y-10199700D02*
X9605000Y-10013700D01*
X10429200Y-10251200D02*
X10429200Y-10437200D01*
X10335200Y-10251200D02*
X10429200Y-10251200D01*
X10335200Y-10437200D02*
X10335200Y-10251200D01*
X10429200Y-10437200D02*
X10335200Y-10437200D01*
X10266200Y-9967000D02*
X10452200Y-9967000D01*
X10266200Y-10061000D02*
X10266200Y-9967000D01*
X10452200Y-10061000D02*
X10266200Y-10061000D01*
X10452200Y-9967000D02*
X10452200Y-10061000D01*
X10921500Y-9002100D02*
X10921500Y-9362100D01*
X10541500Y-9002100D02*
X10921500Y-9002100D01*
X10541500Y-9362100D02*
X10541500Y-9002100D01*
X10921500Y-9362100D02*
X10541500Y-9362100D01*
X9245000Y-9700000D02*
G75*
G03*
X9245000Y-9700000I-245000J0D01*
G01*
X11245000Y-9700000D02*
G75*
G03*
X11245000Y-9700000I-245000J0D01*
G01*
M02*
