G04 #@! TF.GenerationSoftware,KiCad,Pcbnew,5.1.9*
G04 #@! TF.CreationDate,2021-04-01T11:10:47+02:00*
G04 #@! TF.ProjectId,Y11025HL,59313130-3235-4484-9c2e-6b696361645f,rev?*
G04 #@! TF.SameCoordinates,Original*
G04 #@! TF.FileFunction,Other,Fab,Bot*
%FSLAX45Y45*%
G04 Gerber Fmt 4.5, Leading zero omitted, Abs format (unit mm)*
G04 Created by KiCad (PCBNEW 5.1.9) date 2021-04-01 11:10:47*
%MOMM*%
%LPD*%
G01*
G04 APERTURE LIST*
%ADD10C,0.070000*%
G04 APERTURE END LIST*
D10*
X9662104Y-10592118D02*
X9697459Y-10556762D01*
X9660420Y-10570231D01*
X9673889Y-10533192D01*
X9638534Y-10568548D01*
X9604862Y-10534876D02*
X9621698Y-10551712D01*
X9657053Y-10516356D01*
X9631799Y-10491102D02*
X9572874Y-10502888D01*
X9608229Y-10467532D02*
X9596444Y-10526458D01*
X9557722Y-10487735D02*
X9550987Y-10481001D01*
X9549304Y-10475950D01*
X9549304Y-10472583D01*
X9550987Y-10464165D01*
X9556038Y-10455747D01*
X9569507Y-10442278D01*
X9574557Y-10440595D01*
X9577925Y-10440595D01*
X9582975Y-10442278D01*
X9589710Y-10449013D01*
X9591393Y-10454064D01*
X9591393Y-10457431D01*
X9589710Y-10462482D01*
X9581292Y-10470899D01*
X9576241Y-10472583D01*
X9572874Y-10472583D01*
X9567823Y-10470899D01*
X9561089Y-10464165D01*
X9559405Y-10459114D01*
X9559405Y-10455747D01*
X9561089Y-10450696D01*
X9554354Y-10413657D02*
X9550987Y-10410290D01*
X9545936Y-10408607D01*
X9542569Y-10408607D01*
X9537518Y-10410290D01*
X9529101Y-10415341D01*
X9520683Y-10423759D01*
X9515632Y-10432177D01*
X9513948Y-10437228D01*
X9513948Y-10440595D01*
X9515632Y-10445646D01*
X9518999Y-10449013D01*
X9524050Y-10450696D01*
X9527417Y-10450696D01*
X9532468Y-10449013D01*
X9540886Y-10443962D01*
X9549304Y-10435544D01*
X9554354Y-10427126D01*
X9556038Y-10422075D01*
X9556038Y-10418708D01*
X9554354Y-10413657D01*
X9512265Y-10371568D02*
X9518999Y-10378302D01*
X9520683Y-10383353D01*
X9520683Y-10386720D01*
X9518999Y-10395138D01*
X9513948Y-10403556D01*
X9500480Y-10417025D01*
X9495429Y-10418708D01*
X9492062Y-10418708D01*
X9487011Y-10417025D01*
X9480277Y-10410290D01*
X9478593Y-10405240D01*
X9478593Y-10401872D01*
X9480277Y-10396822D01*
X9488694Y-10388404D01*
X9493745Y-10386720D01*
X9497112Y-10386720D01*
X9502163Y-10388404D01*
X9508898Y-10395138D01*
X9510581Y-10400189D01*
X9510581Y-10403556D01*
X9508898Y-10408607D01*
X9492062Y-10358099D02*
X9492062Y-10354732D01*
X9490378Y-10349681D01*
X9481960Y-10341263D01*
X9476909Y-10339580D01*
X9473542Y-10339580D01*
X9468491Y-10341263D01*
X9465124Y-10344630D01*
X9461757Y-10351365D01*
X9461757Y-10391771D01*
X9439870Y-10369884D01*
X9406199Y-10336212D02*
X9426402Y-10356415D01*
X9416300Y-10346314D02*
X9451656Y-10310959D01*
X9449972Y-10319377D01*
X9449972Y-10326111D01*
X9451656Y-10331162D01*
M02*
