G04 #@! TF.GenerationSoftware,KiCad,Pcbnew,5.1.9*
G04 #@! TF.CreationDate,2021-04-01T11:10:47+02:00*
G04 #@! TF.ProjectId,Y11025HL,59313130-3235-4484-9c2e-6b696361645f,rev?*
G04 #@! TF.SameCoordinates,Original*
G04 #@! TF.FileFunction,Legend,Bot*
G04 #@! TF.FilePolarity,Positive*
%FSLAX45Y45*%
G04 Gerber Fmt 4.5, Leading zero omitted, Abs format (unit mm)*
G04 Created by KiCad (PCBNEW 5.1.9) date 2021-04-01 11:10:47*
%MOMM*%
%LPD*%
G01*
G04 APERTURE LIST*
%ADD10C,0.150000*%
%ADD11C,0.070000*%
G04 APERTURE END LIST*
D10*
X10574264Y-11046619D02*
X10574264Y-11094238D01*
X10607598Y-10994238D02*
X10574264Y-11046619D01*
X10540931Y-10994238D01*
X10455217Y-11094238D02*
X10512360Y-11094238D01*
X10483788Y-11094238D02*
X10483788Y-10994238D01*
X10493312Y-11008524D01*
X10502836Y-11018048D01*
X10512360Y-11022810D01*
X10359979Y-11094238D02*
X10417121Y-11094238D01*
X10388550Y-11094238D02*
X10388550Y-10994238D01*
X10398074Y-11008524D01*
X10407598Y-11018048D01*
X10417121Y-11022810D01*
X10298074Y-10994238D02*
X10288550Y-10994238D01*
X10279026Y-10999000D01*
X10274264Y-11003762D01*
X10269502Y-11013286D01*
X10264740Y-11032333D01*
X10264740Y-11056143D01*
X10269502Y-11075190D01*
X10274264Y-11084714D01*
X10279026Y-11089476D01*
X10288550Y-11094238D01*
X10298074Y-11094238D01*
X10307598Y-11089476D01*
X10312360Y-11084714D01*
X10317121Y-11075190D01*
X10321883Y-11056143D01*
X10321883Y-11032333D01*
X10317121Y-11013286D01*
X10312360Y-11003762D01*
X10307598Y-10999000D01*
X10298074Y-10994238D01*
X10226645Y-11003762D02*
X10221883Y-10999000D01*
X10212360Y-10994238D01*
X10188550Y-10994238D01*
X10179026Y-10999000D01*
X10174264Y-11003762D01*
X10169502Y-11013286D01*
X10169502Y-11022810D01*
X10174264Y-11037095D01*
X10231407Y-11094238D01*
X10169502Y-11094238D01*
X10079026Y-10994238D02*
X10126645Y-10994238D01*
X10131407Y-11041857D01*
X10126645Y-11037095D01*
X10117121Y-11032333D01*
X10093312Y-11032333D01*
X10083788Y-11037095D01*
X10079026Y-11041857D01*
X10074264Y-11051381D01*
X10074264Y-11075190D01*
X10079026Y-11084714D01*
X10083788Y-11089476D01*
X10093312Y-11094238D01*
X10117121Y-11094238D01*
X10126645Y-11089476D01*
X10131407Y-11084714D01*
X10031407Y-11094238D02*
X10031407Y-10994238D01*
X10031407Y-11041857D02*
X9974264Y-11041857D01*
X9974264Y-11094238D02*
X9974264Y-10994238D01*
X9879026Y-11094238D02*
X9926645Y-11094238D01*
X9926645Y-10994238D01*
X9845693Y-11056143D02*
X9769502Y-11056143D01*
X9688550Y-11041857D02*
X9721883Y-11041857D01*
X9721883Y-11094238D02*
X9721883Y-10994238D01*
X9674264Y-10994238D01*
X9588550Y-11094238D02*
X9636169Y-11094238D01*
X9636169Y-10994238D01*
X9536169Y-10994238D02*
X9517121Y-10994238D01*
X9507598Y-10999000D01*
X9498074Y-11008524D01*
X9493312Y-11027571D01*
X9493312Y-11060905D01*
X9498074Y-11079952D01*
X9507598Y-11089476D01*
X9517121Y-11094238D01*
X9536169Y-11094238D01*
X9545693Y-11089476D01*
X9555217Y-11079952D01*
X9559979Y-11060905D01*
X9559979Y-11027571D01*
X9555217Y-11008524D01*
X9545693Y-10999000D01*
X9536169Y-10994238D01*
X9459979Y-10994238D02*
X9436169Y-11094238D01*
X9417121Y-11022810D01*
X9398074Y-11094238D01*
X9374264Y-10994238D01*
X10457500Y-10000000D02*
G75*
G03*
X10457500Y-10000000I-457500J0D01*
G01*
X10538815Y-9820395D02*
X10538815Y-10179605D01*
D11*
X10475950Y-9609913D02*
X10511306Y-9574557D01*
X10474267Y-9588026D01*
X10487735Y-9550987D01*
X10452380Y-9586343D01*
X10418708Y-9552671D02*
X10435544Y-9569507D01*
X10470899Y-9534151D01*
X10388404Y-9522366D02*
X10408607Y-9542569D01*
X10398505Y-9532468D02*
X10433861Y-9497112D01*
X10432177Y-9505530D01*
X10432177Y-9512265D01*
X10433861Y-9517315D01*
M02*
