M48
; DRILL file {KiCad 5.1.9} date Thu Apr  1 11:10:49 2021
; FORMAT={-:-/ absolute / inch / decimal}
; #@! TF.CreationDate,2021-04-01T11:10:49+02:00
; #@! TF.GenerationSoftware,Kicad,Pcbnew,5.1.9
; #@! TF.FileFunction,Plated,1,2,PTH
FMAT,2
INCH
T1C0.0118
T2C0.0197
T3C0.0256
%
G90
G05
T1
X3.5775Y-4.055
X3.58Y-4.35
X3.6025Y-3.575
X3.6025Y-3.6875
X3.64Y-3.905
X3.6575Y-4.195
X3.6675Y-3.7925
X3.715Y-3.545
X3.745Y-3.855
X3.7491Y-3.5246
X3.7775Y-3.7572
X3.7975Y-4.0725
X3.8225Y-3.835
X3.84Y-3.4875
X3.8549Y-3.8059
X3.935Y-3.8825
X4.0175Y-3.955
X4.0177Y-3.5438
X4.036Y-3.5641
X4.065Y-3.53
X4.0657Y-3.8626
X4.0744Y-3.8089
X4.077Y-3.8996
X4.085Y-3.9825
X4.0975Y-3.76
X4.2275Y-3.615
X4.255Y-3.53
T2
X3.8663Y-3.8663
X3.8663Y-4.0077
X4.0077Y-3.8663
X4.0077Y-4.0077
T3
X4.2075Y-3.95
X4.2075Y-4.0
X4.2075Y-4.05
X4.2075Y-4.1
X4.2075Y-4.15
T0
M30
