G04 #@! TF.GenerationSoftware,KiCad,Pcbnew,5.1.9*
G04 #@! TF.CreationDate,2021-04-01T11:10:47+02:00*
G04 #@! TF.ProjectId,Y11025HL,59313130-3235-4484-9c2e-6b696361645f,rev?*
G04 #@! TF.SameCoordinates,Original*
G04 #@! TF.FileFunction,Paste,Top*
G04 #@! TF.FilePolarity,Positive*
%FSLAX45Y45*%
G04 Gerber Fmt 4.5, Leading zero omitted, Abs format (unit mm)*
G04 Created by KiCad (PCBNEW 5.1.9) date 2021-04-01 11:10:47*
%MOMM*%
%LPD*%
G01*
G04 APERTURE LIST*
%ADD10R,0.998220X2.499360*%
%ADD11R,1.998980X2.499360*%
%ADD12R,1.060000X0.650000*%
G04 APERTURE END LIST*
D10*
X10299974Y-10740000D03*
X10099822Y-10740000D03*
X9900178Y-10740000D03*
X9700026Y-10740000D03*
D11*
X10579882Y-11052166D03*
X9420118Y-11052166D03*
G36*
G01*
X10064133Y-9552996D02*
X10018878Y-9598251D01*
G75*
G02*
X9983522Y-9598251I-17678J17678D01*
G01*
X9938267Y-9552996D01*
G75*
G02*
X9938267Y-9517641I17678J17678D01*
G01*
X9983522Y-9472386D01*
G75*
G02*
X10018878Y-9472386I17678J-17678D01*
G01*
X10064133Y-9517641D01*
G75*
G02*
X10064133Y-9552996I-17678J-17678D01*
G01*
G37*
G36*
G01*
X10164542Y-9452587D02*
X10119287Y-9497842D01*
G75*
G02*
X10083932Y-9497842I-17678J17678D01*
G01*
X10038677Y-9452587D01*
G75*
G02*
X10038677Y-9417232I17678J17678D01*
G01*
X10083932Y-9371977D01*
G75*
G02*
X10119287Y-9371977I17678J-17678D01*
G01*
X10164542Y-9417232D01*
G75*
G02*
X10164542Y-9452587I-17678J-17678D01*
G01*
G37*
G36*
G01*
X10264951Y-9352178D02*
X10219696Y-9397433D01*
G75*
G02*
X10184341Y-9397433I-17678J17678D01*
G01*
X10139086Y-9352178D01*
G75*
G02*
X10139086Y-9316822I17678J17678D01*
G01*
X10184341Y-9271567D01*
G75*
G02*
X10219696Y-9271567I17678J-17678D01*
G01*
X10264951Y-9316822D01*
G75*
G02*
X10264951Y-9352178I-17678J-17678D01*
G01*
G37*
G36*
G01*
X9963723Y-9452587D02*
X9918468Y-9497842D01*
G75*
G02*
X9883113Y-9497842I-17678J17678D01*
G01*
X9837858Y-9452587D01*
G75*
G02*
X9837858Y-9417232I17678J17678D01*
G01*
X9883113Y-9371977D01*
G75*
G02*
X9918468Y-9371977I17678J-17678D01*
G01*
X9963723Y-9417232D01*
G75*
G02*
X9963723Y-9452587I-17678J-17678D01*
G01*
G37*
G36*
G01*
X10064133Y-9352178D02*
X10018878Y-9397433D01*
G75*
G02*
X9983522Y-9397433I-17678J17678D01*
G01*
X9938267Y-9352178D01*
G75*
G02*
X9938267Y-9316822I17678J17678D01*
G01*
X9983522Y-9271567D01*
G75*
G02*
X10018878Y-9271567I17678J-17678D01*
G01*
X10064133Y-9316822D01*
G75*
G02*
X10064133Y-9352178I-17678J-17678D01*
G01*
G37*
G36*
G01*
X10164542Y-9251768D02*
X10119287Y-9297023D01*
G75*
G02*
X10083932Y-9297023I-17678J17678D01*
G01*
X10038677Y-9251768D01*
G75*
G02*
X10038677Y-9216413I17678J17678D01*
G01*
X10083932Y-9171158D01*
G75*
G02*
X10119287Y-9171158I17678J-17678D01*
G01*
X10164542Y-9216413D01*
G75*
G02*
X10164542Y-9251768I-17678J-17678D01*
G01*
G37*
G36*
G01*
X9863314Y-9352178D02*
X9818059Y-9397433D01*
G75*
G02*
X9782704Y-9397433I-17678J17678D01*
G01*
X9737449Y-9352178D01*
G75*
G02*
X9737449Y-9316822I17678J17678D01*
G01*
X9782704Y-9271567D01*
G75*
G02*
X9818059Y-9271567I17678J-17678D01*
G01*
X9863314Y-9316822D01*
G75*
G02*
X9863314Y-9352178I-17678J-17678D01*
G01*
G37*
G36*
G01*
X9963723Y-9251768D02*
X9918468Y-9297023D01*
G75*
G02*
X9883113Y-9297023I-17678J17678D01*
G01*
X9837858Y-9251768D01*
G75*
G02*
X9837858Y-9216413I17678J17678D01*
G01*
X9883113Y-9171158D01*
G75*
G02*
X9918468Y-9171158I17678J-17678D01*
G01*
X9963723Y-9216413D01*
G75*
G02*
X9963723Y-9251768I-17678J-17678D01*
G01*
G37*
G36*
G01*
X10064133Y-9151359D02*
X10018878Y-9196614D01*
G75*
G02*
X9983522Y-9196614I-17678J17678D01*
G01*
X9938267Y-9151359D01*
G75*
G02*
X9938267Y-9116004I17678J17678D01*
G01*
X9983522Y-9070749D01*
G75*
G02*
X10018878Y-9070749I17678J-17678D01*
G01*
X10064133Y-9116004D01*
G75*
G02*
X10064133Y-9151359I-17678J-17678D01*
G01*
G37*
G36*
G01*
X10105498Y-9703963D02*
X10094892Y-9714570D01*
G75*
G02*
X10084285Y-9714570I-5303J5303D01*
G01*
X10022413Y-9652698D01*
G75*
G02*
X10022413Y-9642092I5303J5303D01*
G01*
X10033020Y-9631485D01*
G75*
G02*
X10043626Y-9631485I5303J-5303D01*
G01*
X10105498Y-9693357D01*
G75*
G02*
X10105498Y-9703963I-5303J-5303D01*
G01*
G37*
G36*
G01*
X10151460Y-9658001D02*
X10140854Y-9668608D01*
G75*
G02*
X10130247Y-9668608I-5303J5303D01*
G01*
X10068375Y-9606736D01*
G75*
G02*
X10068375Y-9596130I5303J5303D01*
G01*
X10078982Y-9585523D01*
G75*
G02*
X10089588Y-9585523I5303J-5303D01*
G01*
X10151460Y-9647395D01*
G75*
G02*
X10151460Y-9658001I-5303J-5303D01*
G01*
G37*
G36*
G01*
X10197422Y-9612039D02*
X10186816Y-9622646D01*
G75*
G02*
X10176209Y-9622646I-5303J5303D01*
G01*
X10114337Y-9560774D01*
G75*
G02*
X10114337Y-9550168I5303J5303D01*
G01*
X10124944Y-9539561D01*
G75*
G02*
X10135550Y-9539561I5303J-5303D01*
G01*
X10197422Y-9601433D01*
G75*
G02*
X10197422Y-9612039I-5303J-5303D01*
G01*
G37*
G36*
G01*
X10243384Y-9566077D02*
X10232777Y-9576684D01*
G75*
G02*
X10222171Y-9576684I-5303J5303D01*
G01*
X10160299Y-9514812D01*
G75*
G02*
X10160299Y-9504206I5303J5303D01*
G01*
X10170906Y-9493599D01*
G75*
G02*
X10181512Y-9493599I5303J-5303D01*
G01*
X10243384Y-9555471D01*
G75*
G02*
X10243384Y-9566077I-5303J-5303D01*
G01*
G37*
G36*
G01*
X10289346Y-9520116D02*
X10278739Y-9530722D01*
G75*
G02*
X10268133Y-9530722I-5303J5303D01*
G01*
X10206261Y-9468850D01*
G75*
G02*
X10206261Y-9458244I5303J5303D01*
G01*
X10216868Y-9447637D01*
G75*
G02*
X10227474Y-9447637I5303J-5303D01*
G01*
X10289346Y-9509509D01*
G75*
G02*
X10289346Y-9520116I-5303J-5303D01*
G01*
G37*
G36*
G01*
X10335308Y-9474154D02*
X10324701Y-9484760D01*
G75*
G02*
X10314095Y-9484760I-5303J5303D01*
G01*
X10252223Y-9422888D01*
G75*
G02*
X10252223Y-9412282I5303J5303D01*
G01*
X10262830Y-9401675D01*
G75*
G02*
X10273436Y-9401675I5303J-5303D01*
G01*
X10335308Y-9463547D01*
G75*
G02*
X10335308Y-9474154I-5303J-5303D01*
G01*
G37*
G36*
G01*
X10381270Y-9428192D02*
X10370663Y-9438798D01*
G75*
G02*
X10360057Y-9438798I-5303J5303D01*
G01*
X10298185Y-9376926D01*
G75*
G02*
X10298185Y-9366320I5303J5303D01*
G01*
X10308792Y-9355713D01*
G75*
G02*
X10319398Y-9355713I5303J-5303D01*
G01*
X10381270Y-9417585D01*
G75*
G02*
X10381270Y-9428192I-5303J-5303D01*
G01*
G37*
G36*
G01*
X10381270Y-9251415D02*
X10319398Y-9313287D01*
G75*
G02*
X10308792Y-9313287I-5303J5303D01*
G01*
X10298185Y-9302680D01*
G75*
G02*
X10298185Y-9292074I5303J5303D01*
G01*
X10360057Y-9230202D01*
G75*
G02*
X10370663Y-9230202I5303J-5303D01*
G01*
X10381270Y-9240808D01*
G75*
G02*
X10381270Y-9251415I-5303J-5303D01*
G01*
G37*
G36*
G01*
X10335308Y-9205453D02*
X10273436Y-9267325D01*
G75*
G02*
X10262830Y-9267325I-5303J5303D01*
G01*
X10252223Y-9256718D01*
G75*
G02*
X10252223Y-9246112I5303J5303D01*
G01*
X10314095Y-9184240D01*
G75*
G02*
X10324701Y-9184240I5303J-5303D01*
G01*
X10335308Y-9194846D01*
G75*
G02*
X10335308Y-9205453I-5303J-5303D01*
G01*
G37*
G36*
G01*
X10289346Y-9159491D02*
X10227474Y-9221363D01*
G75*
G02*
X10216868Y-9221363I-5303J5303D01*
G01*
X10206261Y-9210756D01*
G75*
G02*
X10206261Y-9200150I5303J5303D01*
G01*
X10268133Y-9138278D01*
G75*
G02*
X10278739Y-9138278I5303J-5303D01*
G01*
X10289346Y-9148885D01*
G75*
G02*
X10289346Y-9159491I-5303J-5303D01*
G01*
G37*
G36*
G01*
X10243384Y-9113529D02*
X10181512Y-9175401D01*
G75*
G02*
X10170906Y-9175401I-5303J5303D01*
G01*
X10160299Y-9164794D01*
G75*
G02*
X10160299Y-9154188I5303J5303D01*
G01*
X10222171Y-9092316D01*
G75*
G02*
X10232777Y-9092316I5303J-5303D01*
G01*
X10243384Y-9102923D01*
G75*
G02*
X10243384Y-9113529I-5303J-5303D01*
G01*
G37*
G36*
G01*
X10197422Y-9067567D02*
X10135550Y-9129439D01*
G75*
G02*
X10124944Y-9129439I-5303J5303D01*
G01*
X10114337Y-9118832D01*
G75*
G02*
X10114337Y-9108226I5303J5303D01*
G01*
X10176209Y-9046354D01*
G75*
G02*
X10186816Y-9046354I5303J-5303D01*
G01*
X10197422Y-9056961D01*
G75*
G02*
X10197422Y-9067567I-5303J-5303D01*
G01*
G37*
G36*
G01*
X10151460Y-9021605D02*
X10089588Y-9083477D01*
G75*
G02*
X10078982Y-9083477I-5303J5303D01*
G01*
X10068375Y-9072871D01*
G75*
G02*
X10068375Y-9062264I5303J5303D01*
G01*
X10130247Y-9000392D01*
G75*
G02*
X10140854Y-9000392I5303J-5303D01*
G01*
X10151460Y-9010999D01*
G75*
G02*
X10151460Y-9021605I-5303J-5303D01*
G01*
G37*
G36*
G01*
X10105498Y-8975643D02*
X10043626Y-9037515D01*
G75*
G02*
X10033020Y-9037515I-5303J5303D01*
G01*
X10022413Y-9026909D01*
G75*
G02*
X10022413Y-9016302I5303J5303D01*
G01*
X10084285Y-8954430D01*
G75*
G02*
X10094892Y-8954430I5303J-5303D01*
G01*
X10105498Y-8965037D01*
G75*
G02*
X10105498Y-8975643I-5303J-5303D01*
G01*
G37*
G36*
G01*
X9979987Y-9026909D02*
X9969380Y-9037515D01*
G75*
G02*
X9958774Y-9037515I-5303J5303D01*
G01*
X9896902Y-8975643D01*
G75*
G02*
X9896902Y-8965037I5303J5303D01*
G01*
X9907508Y-8954430D01*
G75*
G02*
X9918115Y-8954430I5303J-5303D01*
G01*
X9979987Y-9016302D01*
G75*
G02*
X9979987Y-9026909I-5303J-5303D01*
G01*
G37*
G36*
G01*
X9934025Y-9072871D02*
X9923418Y-9083477D01*
G75*
G02*
X9912812Y-9083477I-5303J5303D01*
G01*
X9850940Y-9021605D01*
G75*
G02*
X9850940Y-9010999I5303J5303D01*
G01*
X9861546Y-9000392D01*
G75*
G02*
X9872153Y-9000392I5303J-5303D01*
G01*
X9934025Y-9062264D01*
G75*
G02*
X9934025Y-9072871I-5303J-5303D01*
G01*
G37*
G36*
G01*
X9888063Y-9118832D02*
X9877456Y-9129439D01*
G75*
G02*
X9866850Y-9129439I-5303J5303D01*
G01*
X9804978Y-9067567D01*
G75*
G02*
X9804978Y-9056961I5303J5303D01*
G01*
X9815585Y-9046354D01*
G75*
G02*
X9826191Y-9046354I5303J-5303D01*
G01*
X9888063Y-9108226D01*
G75*
G02*
X9888063Y-9118832I-5303J-5303D01*
G01*
G37*
G36*
G01*
X9842101Y-9164794D02*
X9831494Y-9175401D01*
G75*
G02*
X9820888Y-9175401I-5303J5303D01*
G01*
X9759016Y-9113529D01*
G75*
G02*
X9759016Y-9102923I5303J5303D01*
G01*
X9769623Y-9092316D01*
G75*
G02*
X9780229Y-9092316I5303J-5303D01*
G01*
X9842101Y-9154188D01*
G75*
G02*
X9842101Y-9164794I-5303J-5303D01*
G01*
G37*
G36*
G01*
X9796139Y-9210756D02*
X9785532Y-9221363D01*
G75*
G02*
X9774926Y-9221363I-5303J5303D01*
G01*
X9713054Y-9159491D01*
G75*
G02*
X9713054Y-9148885I5303J5303D01*
G01*
X9723661Y-9138278D01*
G75*
G02*
X9734267Y-9138278I5303J-5303D01*
G01*
X9796139Y-9200150D01*
G75*
G02*
X9796139Y-9210756I-5303J-5303D01*
G01*
G37*
G36*
G01*
X9750177Y-9256718D02*
X9739571Y-9267325D01*
G75*
G02*
X9728964Y-9267325I-5303J5303D01*
G01*
X9667092Y-9205453D01*
G75*
G02*
X9667092Y-9194846I5303J5303D01*
G01*
X9677699Y-9184240D01*
G75*
G02*
X9688305Y-9184240I5303J-5303D01*
G01*
X9750177Y-9246112D01*
G75*
G02*
X9750177Y-9256718I-5303J-5303D01*
G01*
G37*
G36*
G01*
X9704215Y-9302680D02*
X9693609Y-9313287D01*
G75*
G02*
X9683002Y-9313287I-5303J5303D01*
G01*
X9621130Y-9251415D01*
G75*
G02*
X9621130Y-9240808I5303J5303D01*
G01*
X9631737Y-9230202D01*
G75*
G02*
X9642343Y-9230202I5303J-5303D01*
G01*
X9704215Y-9292074D01*
G75*
G02*
X9704215Y-9302680I-5303J-5303D01*
G01*
G37*
G36*
G01*
X9704215Y-9376926D02*
X9642343Y-9438798D01*
G75*
G02*
X9631737Y-9438798I-5303J5303D01*
G01*
X9621130Y-9428192D01*
G75*
G02*
X9621130Y-9417585I5303J5303D01*
G01*
X9683002Y-9355713D01*
G75*
G02*
X9693609Y-9355713I5303J-5303D01*
G01*
X9704215Y-9366320D01*
G75*
G02*
X9704215Y-9376926I-5303J-5303D01*
G01*
G37*
G36*
G01*
X9750177Y-9422888D02*
X9688305Y-9484760D01*
G75*
G02*
X9677699Y-9484760I-5303J5303D01*
G01*
X9667092Y-9474154D01*
G75*
G02*
X9667092Y-9463547I5303J5303D01*
G01*
X9728964Y-9401675D01*
G75*
G02*
X9739571Y-9401675I5303J-5303D01*
G01*
X9750177Y-9412282D01*
G75*
G02*
X9750177Y-9422888I-5303J-5303D01*
G01*
G37*
G36*
G01*
X9796139Y-9468850D02*
X9734267Y-9530722D01*
G75*
G02*
X9723661Y-9530722I-5303J5303D01*
G01*
X9713054Y-9520116D01*
G75*
G02*
X9713054Y-9509509I5303J5303D01*
G01*
X9774926Y-9447637D01*
G75*
G02*
X9785532Y-9447637I5303J-5303D01*
G01*
X9796139Y-9458244D01*
G75*
G02*
X9796139Y-9468850I-5303J-5303D01*
G01*
G37*
G36*
G01*
X9842101Y-9514812D02*
X9780229Y-9576684D01*
G75*
G02*
X9769623Y-9576684I-5303J5303D01*
G01*
X9759016Y-9566077D01*
G75*
G02*
X9759016Y-9555471I5303J5303D01*
G01*
X9820888Y-9493599D01*
G75*
G02*
X9831494Y-9493599I5303J-5303D01*
G01*
X9842101Y-9504206D01*
G75*
G02*
X9842101Y-9514812I-5303J-5303D01*
G01*
G37*
G36*
G01*
X9888063Y-9560774D02*
X9826191Y-9622646D01*
G75*
G02*
X9815585Y-9622646I-5303J5303D01*
G01*
X9804978Y-9612039D01*
G75*
G02*
X9804978Y-9601433I5303J5303D01*
G01*
X9866850Y-9539561D01*
G75*
G02*
X9877456Y-9539561I5303J-5303D01*
G01*
X9888063Y-9550168D01*
G75*
G02*
X9888063Y-9560774I-5303J-5303D01*
G01*
G37*
G36*
G01*
X9934025Y-9606736D02*
X9872153Y-9668608D01*
G75*
G02*
X9861546Y-9668608I-5303J5303D01*
G01*
X9850940Y-9658001D01*
G75*
G02*
X9850940Y-9647395I5303J5303D01*
G01*
X9912812Y-9585523D01*
G75*
G02*
X9923418Y-9585523I5303J-5303D01*
G01*
X9934025Y-9596130D01*
G75*
G02*
X9934025Y-9606736I-5303J-5303D01*
G01*
G37*
G36*
G01*
X9979987Y-9652698D02*
X9918115Y-9714570D01*
G75*
G02*
X9907508Y-9714570I-5303J5303D01*
G01*
X9896902Y-9703963D01*
G75*
G02*
X9896902Y-9693357I5303J5303D01*
G01*
X9958774Y-9631485D01*
G75*
G02*
X9969380Y-9631485I5303J-5303D01*
G01*
X9979987Y-9642092D01*
G75*
G02*
X9979987Y-9652698I-5303J-5303D01*
G01*
G37*
G36*
G01*
X9339050Y-9370350D02*
X9304550Y-9370350D01*
G75*
G02*
X9289800Y-9355600I0J14750D01*
G01*
X9289800Y-9326100D01*
G75*
G02*
X9304550Y-9311350I14750J0D01*
G01*
X9339050Y-9311350D01*
G75*
G02*
X9353800Y-9326100I0J-14750D01*
G01*
X9353800Y-9355600D01*
G75*
G02*
X9339050Y-9370350I-14750J0D01*
G01*
G37*
G36*
G01*
X9339050Y-9467350D02*
X9304550Y-9467350D01*
G75*
G02*
X9289800Y-9452600I0J14750D01*
G01*
X9289800Y-9423100D01*
G75*
G02*
X9304550Y-9408350I14750J0D01*
G01*
X9339050Y-9408350D01*
G75*
G02*
X9353800Y-9423100I0J-14750D01*
G01*
X9353800Y-9452600D01*
G75*
G02*
X9339050Y-9467350I-14750J0D01*
G01*
G37*
G36*
G01*
X9409653Y-9220242D02*
X9385258Y-9195847D01*
G75*
G02*
X9385258Y-9174987I10430J10430D01*
G01*
X9406118Y-9154128D01*
G75*
G02*
X9426977Y-9154128I10430J-10430D01*
G01*
X9451373Y-9178523D01*
G75*
G02*
X9451373Y-9199382I-10430J-10430D01*
G01*
X9430513Y-9220242D01*
G75*
G02*
X9409653Y-9220242I-10430J10430D01*
G01*
G37*
G36*
G01*
X9478243Y-9151653D02*
X9453848Y-9127257D01*
G75*
G02*
X9453848Y-9106398I10430J10430D01*
G01*
X9474707Y-9085538D01*
G75*
G02*
X9495567Y-9085538I10430J-10430D01*
G01*
X9519962Y-9109933D01*
G75*
G02*
X9519962Y-9130793I-10430J-10430D01*
G01*
X9499102Y-9151653D01*
G75*
G02*
X9478243Y-9151653I-10430J10430D01*
G01*
G37*
G36*
G01*
X9435600Y-10320550D02*
X9435600Y-10355050D01*
G75*
G02*
X9420850Y-10369800I-14750J0D01*
G01*
X9391350Y-10369800D01*
G75*
G02*
X9376600Y-10355050I0J14750D01*
G01*
X9376600Y-10320550D01*
G75*
G02*
X9391350Y-10305800I14750J0D01*
G01*
X9420850Y-10305800D01*
G75*
G02*
X9435600Y-10320550I0J-14750D01*
G01*
G37*
G36*
G01*
X9338600Y-10320550D02*
X9338600Y-10355050D01*
G75*
G02*
X9323850Y-10369800I-14750J0D01*
G01*
X9294350Y-10369800D01*
G75*
G02*
X9279600Y-10355050I0J14750D01*
G01*
X9279600Y-10320550D01*
G75*
G02*
X9294350Y-10305800I14750J0D01*
G01*
X9323850Y-10305800D01*
G75*
G02*
X9338600Y-10320550I0J-14750D01*
G01*
G37*
G36*
G01*
X9664170Y-9841280D02*
X9629670Y-9841280D01*
G75*
G02*
X9614920Y-9826530I0J14750D01*
G01*
X9614920Y-9797030D01*
G75*
G02*
X9629670Y-9782280I14750J0D01*
G01*
X9664170Y-9782280D01*
G75*
G02*
X9678920Y-9797030I0J-14750D01*
G01*
X9678920Y-9826530D01*
G75*
G02*
X9664170Y-9841280I-14750J0D01*
G01*
G37*
G36*
G01*
X9664170Y-9938280D02*
X9629670Y-9938280D01*
G75*
G02*
X9614920Y-9923530I0J14750D01*
G01*
X9614920Y-9894030D01*
G75*
G02*
X9629670Y-9879280I14750J0D01*
G01*
X9664170Y-9879280D01*
G75*
G02*
X9678920Y-9894030I0J-14750D01*
G01*
X9678920Y-9923530D01*
G75*
G02*
X9664170Y-9938280I-14750J0D01*
G01*
G37*
G36*
G01*
X9336850Y-10155450D02*
X9336850Y-10189950D01*
G75*
G02*
X9322100Y-10204700I-14750J0D01*
G01*
X9292600Y-10204700D01*
G75*
G02*
X9277850Y-10189950I0J14750D01*
G01*
X9277850Y-10155450D01*
G75*
G02*
X9292600Y-10140700I14750J0D01*
G01*
X9322100Y-10140700D01*
G75*
G02*
X9336850Y-10155450I0J-14750D01*
G01*
G37*
G36*
G01*
X9433850Y-10155450D02*
X9433850Y-10189950D01*
G75*
G02*
X9419100Y-10204700I-14750J0D01*
G01*
X9389600Y-10204700D01*
G75*
G02*
X9374850Y-10189950I0J14750D01*
G01*
X9374850Y-10155450D01*
G75*
G02*
X9389600Y-10140700I14750J0D01*
G01*
X9419100Y-10140700D01*
G75*
G02*
X9433850Y-10155450I0J-14750D01*
G01*
G37*
G36*
G01*
X9421600Y-10011700D02*
X9387100Y-10011700D01*
G75*
G02*
X9372350Y-9996950I0J14750D01*
G01*
X9372350Y-9967450D01*
G75*
G02*
X9387100Y-9952700I14750J0D01*
G01*
X9421600Y-9952700D01*
G75*
G02*
X9436350Y-9967450I0J-14750D01*
G01*
X9436350Y-9996950D01*
G75*
G02*
X9421600Y-10011700I-14750J0D01*
G01*
G37*
G36*
G01*
X9421600Y-9914700D02*
X9387100Y-9914700D01*
G75*
G02*
X9372350Y-9899950I0J14750D01*
G01*
X9372350Y-9870450D01*
G75*
G02*
X9387100Y-9855700I14750J0D01*
G01*
X9421600Y-9855700D01*
G75*
G02*
X9436350Y-9870450I0J-14750D01*
G01*
X9436350Y-9899950D01*
G75*
G02*
X9421600Y-9914700I-14750J0D01*
G01*
G37*
G36*
G01*
X10268400Y-8888200D02*
X10268400Y-8853700D01*
G75*
G02*
X10283150Y-8838950I14750J0D01*
G01*
X10312650Y-8838950D01*
G75*
G02*
X10327400Y-8853700I0J-14750D01*
G01*
X10327400Y-8888200D01*
G75*
G02*
X10312650Y-8902950I-14750J0D01*
G01*
X10283150Y-8902950D01*
G75*
G02*
X10268400Y-8888200I0J14750D01*
G01*
G37*
G36*
G01*
X10365400Y-8888200D02*
X10365400Y-8853700D01*
G75*
G02*
X10380150Y-8838950I14750J0D01*
G01*
X10409650Y-8838950D01*
G75*
G02*
X10424400Y-8853700I0J-14750D01*
G01*
X10424400Y-8888200D01*
G75*
G02*
X10409650Y-8902950I-14750J0D01*
G01*
X10380150Y-8902950D01*
G75*
G02*
X10365400Y-8888200I0J14750D01*
G01*
G37*
G36*
G01*
X10630400Y-8888200D02*
X10630400Y-8853700D01*
G75*
G02*
X10645150Y-8838950I14750J0D01*
G01*
X10674650Y-8838950D01*
G75*
G02*
X10689400Y-8853700I0J-14750D01*
G01*
X10689400Y-8888200D01*
G75*
G02*
X10674650Y-8902950I-14750J0D01*
G01*
X10645150Y-8902950D01*
G75*
G02*
X10630400Y-8888200I0J14750D01*
G01*
G37*
G36*
G01*
X10727400Y-8888200D02*
X10727400Y-8853700D01*
G75*
G02*
X10742150Y-8838950I14750J0D01*
G01*
X10771650Y-8838950D01*
G75*
G02*
X10786400Y-8853700I0J-14750D01*
G01*
X10786400Y-8888200D01*
G75*
G02*
X10771650Y-8902950I-14750J0D01*
G01*
X10742150Y-8902950D01*
G75*
G02*
X10727400Y-8888200I0J14750D01*
G01*
G37*
G36*
G01*
X10403150Y-9751250D02*
X10437650Y-9751250D01*
G75*
G02*
X10452400Y-9766000I0J-14750D01*
G01*
X10452400Y-9795500D01*
G75*
G02*
X10437650Y-9810250I-14750J0D01*
G01*
X10403150Y-9810250D01*
G75*
G02*
X10388400Y-9795500I0J14750D01*
G01*
X10388400Y-9766000D01*
G75*
G02*
X10403150Y-9751250I14750J0D01*
G01*
G37*
G36*
G01*
X10403150Y-9654250D02*
X10437650Y-9654250D01*
G75*
G02*
X10452400Y-9669000I0J-14750D01*
G01*
X10452400Y-9698500D01*
G75*
G02*
X10437650Y-9713250I-14750J0D01*
G01*
X10403150Y-9713250D01*
G75*
G02*
X10388400Y-9698500I0J14750D01*
G01*
X10388400Y-9669000D01*
G75*
G02*
X10403150Y-9654250I14750J0D01*
G01*
G37*
G36*
G01*
X9125450Y-8881850D02*
X9125450Y-8847350D01*
G75*
G02*
X9140200Y-8832600I14750J0D01*
G01*
X9169700Y-8832600D01*
G75*
G02*
X9184450Y-8847350I0J-14750D01*
G01*
X9184450Y-8881850D01*
G75*
G02*
X9169700Y-8896600I-14750J0D01*
G01*
X9140200Y-8896600D01*
G75*
G02*
X9125450Y-8881850I0J14750D01*
G01*
G37*
G36*
G01*
X9222450Y-8881850D02*
X9222450Y-8847350D01*
G75*
G02*
X9237200Y-8832600I14750J0D01*
G01*
X9266700Y-8832600D01*
G75*
G02*
X9281450Y-8847350I0J-14750D01*
G01*
X9281450Y-8881850D01*
G75*
G02*
X9266700Y-8896600I-14750J0D01*
G01*
X9237200Y-8896600D01*
G75*
G02*
X9222450Y-8881850I0J14750D01*
G01*
G37*
G36*
G01*
X10040000Y-10388825D02*
X10040000Y-10337575D01*
G75*
G02*
X10061875Y-10315700I21875J0D01*
G01*
X10105625Y-10315700D01*
G75*
G02*
X10127500Y-10337575I0J-21875D01*
G01*
X10127500Y-10388825D01*
G75*
G02*
X10105625Y-10410700I-21875J0D01*
G01*
X10061875Y-10410700D01*
G75*
G02*
X10040000Y-10388825I0J21875D01*
G01*
G37*
G36*
G01*
X9882500Y-10388825D02*
X9882500Y-10337575D01*
G75*
G02*
X9904375Y-10315700I21875J0D01*
G01*
X9948125Y-10315700D01*
G75*
G02*
X9970000Y-10337575I0J-21875D01*
G01*
X9970000Y-10388825D01*
G75*
G02*
X9948125Y-10410700I-21875J0D01*
G01*
X9904375Y-10410700D01*
G75*
G02*
X9882500Y-10388825I0J21875D01*
G01*
G37*
G36*
G01*
X9877480Y-10020525D02*
X9877480Y-9969275D01*
G75*
G02*
X9899355Y-9947400I21875J0D01*
G01*
X9943105Y-9947400D01*
G75*
G02*
X9964980Y-9969275I0J-21875D01*
G01*
X9964980Y-10020525D01*
G75*
G02*
X9943105Y-10042400I-21875J0D01*
G01*
X9899355Y-10042400D01*
G75*
G02*
X9877480Y-10020525I0J21875D01*
G01*
G37*
G36*
G01*
X10034980Y-10020525D02*
X10034980Y-9969275D01*
G75*
G02*
X10056855Y-9947400I21875J0D01*
G01*
X10100605Y-9947400D01*
G75*
G02*
X10122480Y-9969275I0J-21875D01*
G01*
X10122480Y-10020525D01*
G75*
G02*
X10100605Y-10042400I-21875J0D01*
G01*
X10056855Y-10042400D01*
G75*
G02*
X10034980Y-10020525I0J21875D01*
G01*
G37*
G36*
G01*
X10640850Y-9556800D02*
X10606350Y-9556800D01*
G75*
G02*
X10591600Y-9542050I0J14750D01*
G01*
X10591600Y-9512550D01*
G75*
G02*
X10606350Y-9497800I14750J0D01*
G01*
X10640850Y-9497800D01*
G75*
G02*
X10655600Y-9512550I0J-14750D01*
G01*
X10655600Y-9542050D01*
G75*
G02*
X10640850Y-9556800I-14750J0D01*
G01*
G37*
G36*
G01*
X10640850Y-9653800D02*
X10606350Y-9653800D01*
G75*
G02*
X10591600Y-9639050I0J14750D01*
G01*
X10591600Y-9609550D01*
G75*
G02*
X10606350Y-9594800I14750J0D01*
G01*
X10640850Y-9594800D01*
G75*
G02*
X10655600Y-9609550I0J-14750D01*
G01*
X10655600Y-9639050D01*
G75*
G02*
X10640850Y-9653800I-14750J0D01*
G01*
G37*
G36*
G01*
X9491450Y-9725950D02*
X9456950Y-9725950D01*
G75*
G02*
X9442200Y-9711200I0J14750D01*
G01*
X9442200Y-9681700D01*
G75*
G02*
X9456950Y-9666950I14750J0D01*
G01*
X9491450Y-9666950D01*
G75*
G02*
X9506200Y-9681700I0J-14750D01*
G01*
X9506200Y-9711200D01*
G75*
G02*
X9491450Y-9725950I-14750J0D01*
G01*
G37*
G36*
G01*
X9491450Y-9628950D02*
X9456950Y-9628950D01*
G75*
G02*
X9442200Y-9614200I0J14750D01*
G01*
X9442200Y-9584700D01*
G75*
G02*
X9456950Y-9569950I14750J0D01*
G01*
X9491450Y-9569950D01*
G75*
G02*
X9506200Y-9584700I0J-14750D01*
G01*
X9506200Y-9614200D01*
G75*
G02*
X9491450Y-9628950I-14750J0D01*
G01*
G37*
G36*
G01*
X9471850Y-8881850D02*
X9471850Y-8847350D01*
G75*
G02*
X9486600Y-8832600I14750J0D01*
G01*
X9516100Y-8832600D01*
G75*
G02*
X9530850Y-8847350I0J-14750D01*
G01*
X9530850Y-8881850D01*
G75*
G02*
X9516100Y-8896600I-14750J0D01*
G01*
X9486600Y-8896600D01*
G75*
G02*
X9471850Y-8881850I0J14750D01*
G01*
G37*
G36*
G01*
X9374850Y-8881850D02*
X9374850Y-8847350D01*
G75*
G02*
X9389600Y-8832600I14750J0D01*
G01*
X9419100Y-8832600D01*
G75*
G02*
X9433850Y-8847350I0J-14750D01*
G01*
X9433850Y-8881850D01*
G75*
G02*
X9419100Y-8896600I-14750J0D01*
G01*
X9389600Y-8896600D01*
G75*
G02*
X9374850Y-8881850I0J14750D01*
G01*
G37*
G36*
G01*
X9634750Y-10125700D02*
X9669250Y-10125700D01*
G75*
G02*
X9684000Y-10140450I0J-14750D01*
G01*
X9684000Y-10169950D01*
G75*
G02*
X9669250Y-10184700I-14750J0D01*
G01*
X9634750Y-10184700D01*
G75*
G02*
X9620000Y-10169950I0J14750D01*
G01*
X9620000Y-10140450D01*
G75*
G02*
X9634750Y-10125700I14750J0D01*
G01*
G37*
G36*
G01*
X9634750Y-10028700D02*
X9669250Y-10028700D01*
G75*
G02*
X9684000Y-10043450I0J-14750D01*
G01*
X9684000Y-10072950D01*
G75*
G02*
X9669250Y-10087700I-14750J0D01*
G01*
X9634750Y-10087700D01*
G75*
G02*
X9620000Y-10072950I0J14750D01*
G01*
X9620000Y-10043450D01*
G75*
G02*
X9634750Y-10028700I14750J0D01*
G01*
G37*
G36*
G01*
X10399450Y-10422200D02*
X10364950Y-10422200D01*
G75*
G02*
X10350200Y-10407450I0J14750D01*
G01*
X10350200Y-10377950D01*
G75*
G02*
X10364950Y-10363200I14750J0D01*
G01*
X10399450Y-10363200D01*
G75*
G02*
X10414200Y-10377950I0J-14750D01*
G01*
X10414200Y-10407450D01*
G75*
G02*
X10399450Y-10422200I-14750J0D01*
G01*
G37*
G36*
G01*
X10399450Y-10325200D02*
X10364950Y-10325200D01*
G75*
G02*
X10350200Y-10310450I0J14750D01*
G01*
X10350200Y-10280950D01*
G75*
G02*
X10364950Y-10266200I14750J0D01*
G01*
X10399450Y-10266200D01*
G75*
G02*
X10414200Y-10280950I0J-14750D01*
G01*
X10414200Y-10310450D01*
G75*
G02*
X10399450Y-10325200I-14750J0D01*
G01*
G37*
G36*
G01*
X10437200Y-9996750D02*
X10437200Y-10031250D01*
G75*
G02*
X10422450Y-10046000I-14750J0D01*
G01*
X10392950Y-10046000D01*
G75*
G02*
X10378200Y-10031250I0J14750D01*
G01*
X10378200Y-9996750D01*
G75*
G02*
X10392950Y-9982000I14750J0D01*
G01*
X10422450Y-9982000D01*
G75*
G02*
X10437200Y-9996750I0J-14750D01*
G01*
G37*
G36*
G01*
X10340200Y-9996750D02*
X10340200Y-10031250D01*
G75*
G02*
X10325450Y-10046000I-14750J0D01*
G01*
X10295950Y-10046000D01*
G75*
G02*
X10281200Y-10031250I0J14750D01*
G01*
X10281200Y-9996750D01*
G75*
G02*
X10295950Y-9982000I14750J0D01*
G01*
X10325450Y-9982000D01*
G75*
G02*
X10340200Y-9996750I0J-14750D01*
G01*
G37*
D12*
X10841500Y-9277100D03*
X10841500Y-9182100D03*
X10841500Y-9087100D03*
X10621500Y-9087100D03*
X10621500Y-9277100D03*
M02*
